G04 #@! TF.GenerationSoftware,KiCad,Pcbnew,no-vcs-found-6223534~58~ubuntu16.04.1*
G04 #@! TF.CreationDate,2017-03-08T14:08:53-05:00*
G04 #@! TF.ProjectId,h_bridge_controller_3x2,685F6272696467655F636F6E74726F6C,1.0*
G04 #@! TF.FileFunction,Legend,Top*
G04 #@! TF.FilePolarity,Positive*
%FSLAX46Y46*%
G04 Gerber Fmt 4.6, Leading zero omitted, Abs format (unit mm)*
G04 Created by KiCad (PCBNEW no-vcs-found-6223534~58~ubuntu16.04.1) date Wed Mar  8 14:08:53 2017*
%MOMM*%
%LPD*%
G01*
G04 APERTURE LIST*
%ADD10C,0.100000*%
%ADD11C,0.508000*%
%ADD12C,0.190500*%
%ADD13C,0.254000*%
%ADD14C,0.228600*%
%ADD15C,0.381000*%
%ADD16O,1.854200X2.540000*%
%ADD17R,1.854200X2.540000*%
%ADD18C,3.556000*%
%ADD19O,2.032000X1.524000*%
%ADD20O,1.524000X2.032000*%
%ADD21C,1.930400*%
%ADD22O,4.572000X3.556000*%
%ADD23O,4.064000X5.080000*%
%ADD24O,5.080000X3.556000*%
%ADD25O,1.651000X2.159000*%
%ADD26C,2.540000*%
G04 APERTURE END LIST*
D10*
D11*
X131305904Y-76345142D02*
X132854095Y-76345142D01*
X107175904Y-76345142D02*
X108724095Y-76345142D01*
X126225904Y-76345142D02*
X127774095Y-76345142D01*
X127000000Y-77119238D02*
X127000000Y-75571047D01*
X102095904Y-76345142D02*
X103644095Y-76345142D01*
X102870000Y-77119238D02*
X102870000Y-75571047D01*
X130120571Y-100614238D02*
X128959428Y-100614238D01*
X129540000Y-100614238D02*
X129540000Y-98582238D01*
X129346476Y-98872523D01*
X129152952Y-99066047D01*
X128959428Y-99162809D01*
X105313238Y-98582238D02*
X105506761Y-98582238D01*
X105700285Y-98679000D01*
X105797047Y-98775761D01*
X105893809Y-98969285D01*
X105990571Y-99356333D01*
X105990571Y-99840142D01*
X105893809Y-100227190D01*
X105797047Y-100420714D01*
X105700285Y-100517476D01*
X105506761Y-100614238D01*
X105313238Y-100614238D01*
X105119714Y-100517476D01*
X105022952Y-100420714D01*
X104926190Y-100227190D01*
X104829428Y-99840142D01*
X104829428Y-99356333D01*
X104926190Y-98969285D01*
X105022952Y-98775761D01*
X105119714Y-98679000D01*
X105313238Y-98582238D01*
D12*
X145015857Y-81969428D02*
X145596428Y-81969428D01*
X145306142Y-82259714D02*
X145306142Y-81679142D01*
X145995571Y-82259714D02*
X146140714Y-82259714D01*
X146213285Y-82223428D01*
X146249571Y-82187142D01*
X146322142Y-82078285D01*
X146358428Y-81933142D01*
X146358428Y-81642857D01*
X146322142Y-81570285D01*
X146285857Y-81534000D01*
X146213285Y-81497714D01*
X146068142Y-81497714D01*
X145995571Y-81534000D01*
X145959285Y-81570285D01*
X145923000Y-81642857D01*
X145923000Y-81824285D01*
X145959285Y-81896857D01*
X145995571Y-81933142D01*
X146068142Y-81969428D01*
X146213285Y-81969428D01*
X146285857Y-81933142D01*
X146322142Y-81896857D01*
X146358428Y-81824285D01*
X146685000Y-81969428D02*
X147265571Y-81969428D01*
X147955000Y-81751714D02*
X147955000Y-82259714D01*
X147773571Y-81461428D02*
X147592142Y-82005714D01*
X148063857Y-82005714D01*
X148317857Y-81570285D02*
X148354142Y-81534000D01*
X148426714Y-81497714D01*
X148608142Y-81497714D01*
X148680714Y-81534000D01*
X148717000Y-81570285D01*
X148753285Y-81642857D01*
X148753285Y-81715428D01*
X148717000Y-81824285D01*
X148281571Y-82259714D01*
X148753285Y-82259714D01*
X148971000Y-81497714D02*
X149225000Y-82259714D01*
X149479000Y-81497714D01*
X149733000Y-82259714D02*
X149733000Y-81497714D01*
X149914428Y-81497714D01*
X150023285Y-81534000D01*
X150095857Y-81606571D01*
X150132142Y-81679142D01*
X150168428Y-81824285D01*
X150168428Y-81933142D01*
X150132142Y-82078285D01*
X150095857Y-82150857D01*
X150023285Y-82223428D01*
X149914428Y-82259714D01*
X149733000Y-82259714D01*
X150930428Y-82187142D02*
X150894142Y-82223428D01*
X150785285Y-82259714D01*
X150712714Y-82259714D01*
X150603857Y-82223428D01*
X150531285Y-82150857D01*
X150495000Y-82078285D01*
X150458714Y-81933142D01*
X150458714Y-81824285D01*
X150495000Y-81679142D01*
X150531285Y-81606571D01*
X150603857Y-81534000D01*
X150712714Y-81497714D01*
X150785285Y-81497714D01*
X150894142Y-81534000D01*
X150930428Y-81570285D01*
X143727714Y-95540285D02*
X143764000Y-95504000D01*
X143836571Y-95467714D01*
X144018000Y-95467714D01*
X144090571Y-95504000D01*
X144126857Y-95540285D01*
X144163142Y-95612857D01*
X144163142Y-95685428D01*
X144126857Y-95794285D01*
X143691428Y-96229714D01*
X144163142Y-96229714D01*
X144489714Y-96157142D02*
X144526000Y-96193428D01*
X144489714Y-96229714D01*
X144453428Y-96193428D01*
X144489714Y-96157142D01*
X144489714Y-96229714D01*
X145215428Y-95467714D02*
X144852571Y-95467714D01*
X144816285Y-95830571D01*
X144852571Y-95794285D01*
X144925142Y-95758000D01*
X145106571Y-95758000D01*
X145179142Y-95794285D01*
X145215428Y-95830571D01*
X145251714Y-95903142D01*
X145251714Y-96084571D01*
X145215428Y-96157142D01*
X145179142Y-96193428D01*
X145106571Y-96229714D01*
X144925142Y-96229714D01*
X144852571Y-96193428D01*
X144816285Y-96157142D01*
X145505714Y-96229714D02*
X145904857Y-95721714D01*
X145505714Y-95721714D02*
X145904857Y-96229714D01*
X146558000Y-95467714D02*
X146195142Y-95467714D01*
X146158857Y-95830571D01*
X146195142Y-95794285D01*
X146267714Y-95758000D01*
X146449142Y-95758000D01*
X146521714Y-95794285D01*
X146558000Y-95830571D01*
X146594285Y-95903142D01*
X146594285Y-96084571D01*
X146558000Y-96157142D01*
X146521714Y-96193428D01*
X146449142Y-96229714D01*
X146267714Y-96229714D01*
X146195142Y-96193428D01*
X146158857Y-96157142D01*
X146920857Y-96157142D02*
X146957142Y-96193428D01*
X146920857Y-96229714D01*
X146884571Y-96193428D01*
X146920857Y-96157142D01*
X146920857Y-96229714D01*
X147646571Y-95467714D02*
X147283714Y-95467714D01*
X147247428Y-95830571D01*
X147283714Y-95794285D01*
X147356285Y-95758000D01*
X147537714Y-95758000D01*
X147610285Y-95794285D01*
X147646571Y-95830571D01*
X147682857Y-95903142D01*
X147682857Y-96084571D01*
X147646571Y-96157142D01*
X147610285Y-96193428D01*
X147537714Y-96229714D01*
X147356285Y-96229714D01*
X147283714Y-96193428D01*
X147247428Y-96157142D01*
X149025428Y-96157142D02*
X148989142Y-96193428D01*
X148880285Y-96229714D01*
X148807714Y-96229714D01*
X148698857Y-96193428D01*
X148626285Y-96120857D01*
X148590000Y-96048285D01*
X148553714Y-95903142D01*
X148553714Y-95794285D01*
X148590000Y-95649142D01*
X148626285Y-95576571D01*
X148698857Y-95504000D01*
X148807714Y-95467714D01*
X148880285Y-95467714D01*
X148989142Y-95504000D01*
X149025428Y-95540285D01*
X149642285Y-96193428D02*
X149569714Y-96229714D01*
X149424571Y-96229714D01*
X149352000Y-96193428D01*
X149315714Y-96120857D01*
X149315714Y-95830571D01*
X149352000Y-95758000D01*
X149424571Y-95721714D01*
X149569714Y-95721714D01*
X149642285Y-95758000D01*
X149678571Y-95830571D01*
X149678571Y-95903142D01*
X149315714Y-95975714D01*
X150005142Y-95721714D02*
X150005142Y-96229714D01*
X150005142Y-95794285D02*
X150041428Y-95758000D01*
X150114000Y-95721714D01*
X150222857Y-95721714D01*
X150295428Y-95758000D01*
X150331714Y-95830571D01*
X150331714Y-96229714D01*
X150585714Y-95721714D02*
X150876000Y-95721714D01*
X150694571Y-95467714D02*
X150694571Y-96120857D01*
X150730857Y-96193428D01*
X150803428Y-96229714D01*
X150876000Y-96229714D01*
X151420285Y-96193428D02*
X151347714Y-96229714D01*
X151202571Y-96229714D01*
X151130000Y-96193428D01*
X151093714Y-96120857D01*
X151093714Y-95830571D01*
X151130000Y-95758000D01*
X151202571Y-95721714D01*
X151347714Y-95721714D01*
X151420285Y-95758000D01*
X151456571Y-95830571D01*
X151456571Y-95903142D01*
X151093714Y-95975714D01*
X151783142Y-96229714D02*
X151783142Y-95721714D01*
X151783142Y-95866857D02*
X151819428Y-95794285D01*
X151855714Y-95758000D01*
X151928285Y-95721714D01*
X152000857Y-95721714D01*
X152835428Y-95939428D02*
X153416000Y-95939428D01*
X153125714Y-96229714D02*
X153125714Y-95649142D01*
D13*
X147041809Y-103964619D02*
X146558000Y-103964619D01*
X146558000Y-102948619D01*
X147380476Y-103964619D02*
X147380476Y-103287285D01*
X147380476Y-102948619D02*
X147332095Y-102997000D01*
X147380476Y-103045380D01*
X147428857Y-102997000D01*
X147380476Y-102948619D01*
X147380476Y-103045380D01*
X148299714Y-103287285D02*
X148299714Y-104109761D01*
X148251333Y-104206523D01*
X148202952Y-104254904D01*
X148106190Y-104303285D01*
X147961047Y-104303285D01*
X147864285Y-104254904D01*
X148299714Y-103916238D02*
X148202952Y-103964619D01*
X148009428Y-103964619D01*
X147912666Y-103916238D01*
X147864285Y-103867857D01*
X147815904Y-103771095D01*
X147815904Y-103480809D01*
X147864285Y-103384047D01*
X147912666Y-103335666D01*
X148009428Y-103287285D01*
X148202952Y-103287285D01*
X148299714Y-103335666D01*
X148783523Y-103964619D02*
X148783523Y-102948619D01*
X149218952Y-103964619D02*
X149218952Y-103432428D01*
X149170571Y-103335666D01*
X149073809Y-103287285D01*
X148928666Y-103287285D01*
X148831904Y-103335666D01*
X148783523Y-103384047D01*
X149557619Y-103287285D02*
X149944666Y-103287285D01*
X149702761Y-102948619D02*
X149702761Y-103819476D01*
X149751142Y-103916238D01*
X149847904Y-103964619D01*
X149944666Y-103964619D01*
X150234952Y-103916238D02*
X150331714Y-103964619D01*
X150525238Y-103964619D01*
X150622000Y-103916238D01*
X150670380Y-103819476D01*
X150670380Y-103771095D01*
X150622000Y-103674333D01*
X150525238Y-103625952D01*
X150380095Y-103625952D01*
X150283333Y-103577571D01*
X150234952Y-103480809D01*
X150234952Y-103432428D01*
X150283333Y-103335666D01*
X150380095Y-103287285D01*
X150525238Y-103287285D01*
X150622000Y-103335666D01*
D14*
X141605000Y-74930000D02*
X141605000Y-102870000D01*
X93345000Y-74930000D02*
X141605000Y-74930000D01*
X93345000Y-74930000D02*
X93345000Y-102870000D01*
X117475000Y-102870000D02*
X117475000Y-74930000D01*
X93345000Y-102870000D02*
X141605000Y-102870000D01*
X155575000Y-68580000D02*
X85725000Y-68580000D01*
X155575000Y-109220000D02*
X155575000Y-68580000D01*
X85725000Y-109220000D02*
X155575000Y-109220000D01*
X85725000Y-68580000D02*
X85725000Y-109220000D01*
D12*
X92437857Y-104599619D02*
X92437857Y-103583619D01*
X92873285Y-104599619D02*
X92873285Y-104067428D01*
X92824904Y-103970666D01*
X92728142Y-103922285D01*
X92583000Y-103922285D01*
X92486238Y-103970666D01*
X92437857Y-104019047D01*
X93211952Y-103922285D02*
X93599000Y-103922285D01*
X93357095Y-103583619D02*
X93357095Y-104454476D01*
X93405476Y-104551238D01*
X93502238Y-104599619D01*
X93599000Y-104599619D01*
X93792523Y-103922285D02*
X94179571Y-103922285D01*
X93937666Y-103583619D02*
X93937666Y-104454476D01*
X93986047Y-104551238D01*
X94082809Y-104599619D01*
X94179571Y-104599619D01*
X94518238Y-103922285D02*
X94518238Y-104938285D01*
X94518238Y-103970666D02*
X94615000Y-103922285D01*
X94808523Y-103922285D01*
X94905285Y-103970666D01*
X94953666Y-104019047D01*
X95002047Y-104115809D01*
X95002047Y-104406095D01*
X94953666Y-104502857D01*
X94905285Y-104551238D01*
X94808523Y-104599619D01*
X94615000Y-104599619D01*
X94518238Y-104551238D01*
X95389095Y-104551238D02*
X95485857Y-104599619D01*
X95679380Y-104599619D01*
X95776142Y-104551238D01*
X95824523Y-104454476D01*
X95824523Y-104406095D01*
X95776142Y-104309333D01*
X95679380Y-104260952D01*
X95534238Y-104260952D01*
X95437476Y-104212571D01*
X95389095Y-104115809D01*
X95389095Y-104067428D01*
X95437476Y-103970666D01*
X95534238Y-103922285D01*
X95679380Y-103922285D01*
X95776142Y-103970666D01*
X96259952Y-104502857D02*
X96308333Y-104551238D01*
X96259952Y-104599619D01*
X96211571Y-104551238D01*
X96259952Y-104502857D01*
X96259952Y-104599619D01*
X96259952Y-103970666D02*
X96308333Y-104019047D01*
X96259952Y-104067428D01*
X96211571Y-104019047D01*
X96259952Y-103970666D01*
X96259952Y-104067428D01*
X97469476Y-103535238D02*
X96598619Y-104841523D01*
X98533857Y-103535238D02*
X97663000Y-104841523D01*
X99307952Y-103922285D02*
X99307952Y-104744761D01*
X99259571Y-104841523D01*
X99211190Y-104889904D01*
X99114428Y-104938285D01*
X98969285Y-104938285D01*
X98872523Y-104889904D01*
X99307952Y-104551238D02*
X99211190Y-104599619D01*
X99017666Y-104599619D01*
X98920904Y-104551238D01*
X98872523Y-104502857D01*
X98824142Y-104406095D01*
X98824142Y-104115809D01*
X98872523Y-104019047D01*
X98920904Y-103970666D01*
X99017666Y-103922285D01*
X99211190Y-103922285D01*
X99307952Y-103970666D01*
X99791761Y-104599619D02*
X99791761Y-103922285D01*
X99791761Y-103583619D02*
X99743380Y-103632000D01*
X99791761Y-103680380D01*
X99840142Y-103632000D01*
X99791761Y-103583619D01*
X99791761Y-103680380D01*
X100130428Y-103922285D02*
X100517476Y-103922285D01*
X100275571Y-103583619D02*
X100275571Y-104454476D01*
X100323952Y-104551238D01*
X100420714Y-104599619D01*
X100517476Y-104599619D01*
X100856142Y-104599619D02*
X100856142Y-103583619D01*
X101291571Y-104599619D02*
X101291571Y-104067428D01*
X101243190Y-103970666D01*
X101146428Y-103922285D01*
X101001285Y-103922285D01*
X100904523Y-103970666D01*
X100856142Y-104019047D01*
X102210809Y-103922285D02*
X102210809Y-104599619D01*
X101775380Y-103922285D02*
X101775380Y-104454476D01*
X101823761Y-104551238D01*
X101920523Y-104599619D01*
X102065666Y-104599619D01*
X102162428Y-104551238D01*
X102210809Y-104502857D01*
X102694619Y-104599619D02*
X102694619Y-103583619D01*
X102694619Y-103970666D02*
X102791380Y-103922285D01*
X102984904Y-103922285D01*
X103081666Y-103970666D01*
X103130047Y-104019047D01*
X103178428Y-104115809D01*
X103178428Y-104406095D01*
X103130047Y-104502857D01*
X103081666Y-104551238D01*
X102984904Y-104599619D01*
X102791380Y-104599619D01*
X102694619Y-104551238D01*
X103613857Y-104502857D02*
X103662238Y-104551238D01*
X103613857Y-104599619D01*
X103565476Y-104551238D01*
X103613857Y-104502857D01*
X103613857Y-104599619D01*
X104533095Y-104551238D02*
X104436333Y-104599619D01*
X104242809Y-104599619D01*
X104146047Y-104551238D01*
X104097666Y-104502857D01*
X104049285Y-104406095D01*
X104049285Y-104115809D01*
X104097666Y-104019047D01*
X104146047Y-103970666D01*
X104242809Y-103922285D01*
X104436333Y-103922285D01*
X104533095Y-103970666D01*
X105113666Y-104599619D02*
X105016904Y-104551238D01*
X104968523Y-104502857D01*
X104920142Y-104406095D01*
X104920142Y-104115809D01*
X104968523Y-104019047D01*
X105016904Y-103970666D01*
X105113666Y-103922285D01*
X105258809Y-103922285D01*
X105355571Y-103970666D01*
X105403952Y-104019047D01*
X105452333Y-104115809D01*
X105452333Y-104406095D01*
X105403952Y-104502857D01*
X105355571Y-104551238D01*
X105258809Y-104599619D01*
X105113666Y-104599619D01*
X105887761Y-104599619D02*
X105887761Y-103922285D01*
X105887761Y-104019047D02*
X105936142Y-103970666D01*
X106032904Y-103922285D01*
X106178047Y-103922285D01*
X106274809Y-103970666D01*
X106323190Y-104067428D01*
X106323190Y-104599619D01*
X106323190Y-104067428D02*
X106371571Y-103970666D01*
X106468333Y-103922285D01*
X106613476Y-103922285D01*
X106710238Y-103970666D01*
X106758619Y-104067428D01*
X106758619Y-104599619D01*
X107968142Y-103535238D02*
X107097285Y-104841523D01*
X108306809Y-103922285D02*
X108306809Y-104793142D01*
X108258428Y-104889904D01*
X108161666Y-104938285D01*
X108113285Y-104938285D01*
X108306809Y-103583619D02*
X108258428Y-103632000D01*
X108306809Y-103680380D01*
X108355190Y-103632000D01*
X108306809Y-103583619D01*
X108306809Y-103680380D01*
X109226047Y-104599619D02*
X109226047Y-104067428D01*
X109177666Y-103970666D01*
X109080904Y-103922285D01*
X108887380Y-103922285D01*
X108790619Y-103970666D01*
X109226047Y-104551238D02*
X109129285Y-104599619D01*
X108887380Y-104599619D01*
X108790619Y-104551238D01*
X108742238Y-104454476D01*
X108742238Y-104357714D01*
X108790619Y-104260952D01*
X108887380Y-104212571D01*
X109129285Y-104212571D01*
X109226047Y-104164190D01*
X109709857Y-103922285D02*
X109709857Y-104599619D01*
X109709857Y-104019047D02*
X109758238Y-103970666D01*
X109855000Y-103922285D01*
X110000142Y-103922285D01*
X110096904Y-103970666D01*
X110145285Y-104067428D01*
X110145285Y-104599619D01*
X111016142Y-104551238D02*
X110919380Y-104599619D01*
X110725857Y-104599619D01*
X110629095Y-104551238D01*
X110580714Y-104454476D01*
X110580714Y-104067428D01*
X110629095Y-103970666D01*
X110725857Y-103922285D01*
X110919380Y-103922285D01*
X111016142Y-103970666D01*
X111064523Y-104067428D01*
X111064523Y-104164190D01*
X110580714Y-104260952D01*
X111645095Y-104599619D02*
X111548333Y-104551238D01*
X111499952Y-104454476D01*
X111499952Y-103583619D01*
X112032142Y-104599619D02*
X112032142Y-103922285D01*
X112032142Y-103583619D02*
X111983761Y-103632000D01*
X112032142Y-103680380D01*
X112080523Y-103632000D01*
X112032142Y-103583619D01*
X112032142Y-103680380D01*
X112951380Y-104599619D02*
X112951380Y-104067428D01*
X112903000Y-103970666D01*
X112806238Y-103922285D01*
X112612714Y-103922285D01*
X112515952Y-103970666D01*
X112951380Y-104551238D02*
X112854619Y-104599619D01*
X112612714Y-104599619D01*
X112515952Y-104551238D01*
X112467571Y-104454476D01*
X112467571Y-104357714D01*
X112515952Y-104260952D01*
X112612714Y-104212571D01*
X112854619Y-104212571D01*
X112951380Y-104164190D01*
X113435190Y-104212571D02*
X114209285Y-104212571D01*
X114693095Y-104599619D02*
X114693095Y-103922285D01*
X114693095Y-104019047D02*
X114741476Y-103970666D01*
X114838238Y-103922285D01*
X114983380Y-103922285D01*
X115080142Y-103970666D01*
X115128523Y-104067428D01*
X115128523Y-104599619D01*
X115128523Y-104067428D02*
X115176904Y-103970666D01*
X115273666Y-103922285D01*
X115418809Y-103922285D01*
X115515571Y-103970666D01*
X115563952Y-104067428D01*
X115563952Y-104599619D01*
X116192904Y-104599619D02*
X116096142Y-104551238D01*
X116047761Y-104502857D01*
X115999380Y-104406095D01*
X115999380Y-104115809D01*
X116047761Y-104019047D01*
X116096142Y-103970666D01*
X116192904Y-103922285D01*
X116338047Y-103922285D01*
X116434809Y-103970666D01*
X116483190Y-104019047D01*
X116531571Y-104115809D01*
X116531571Y-104406095D01*
X116483190Y-104502857D01*
X116434809Y-104551238D01*
X116338047Y-104599619D01*
X116192904Y-104599619D01*
X117402428Y-104599619D02*
X117402428Y-103583619D01*
X117402428Y-104551238D02*
X117305666Y-104599619D01*
X117112142Y-104599619D01*
X117015380Y-104551238D01*
X116967000Y-104502857D01*
X116918619Y-104406095D01*
X116918619Y-104115809D01*
X116967000Y-104019047D01*
X117015380Y-103970666D01*
X117112142Y-103922285D01*
X117305666Y-103922285D01*
X117402428Y-103970666D01*
X118321666Y-103922285D02*
X118321666Y-104599619D01*
X117886238Y-103922285D02*
X117886238Y-104454476D01*
X117934619Y-104551238D01*
X118031380Y-104599619D01*
X118176523Y-104599619D01*
X118273285Y-104551238D01*
X118321666Y-104502857D01*
X118950619Y-104599619D02*
X118853857Y-104551238D01*
X118805476Y-104454476D01*
X118805476Y-103583619D01*
X119773095Y-104599619D02*
X119773095Y-104067428D01*
X119724714Y-103970666D01*
X119627952Y-103922285D01*
X119434428Y-103922285D01*
X119337666Y-103970666D01*
X119773095Y-104551238D02*
X119676333Y-104599619D01*
X119434428Y-104599619D01*
X119337666Y-104551238D01*
X119289285Y-104454476D01*
X119289285Y-104357714D01*
X119337666Y-104260952D01*
X119434428Y-104212571D01*
X119676333Y-104212571D01*
X119773095Y-104164190D01*
X120256904Y-104599619D02*
X120256904Y-103922285D01*
X120256904Y-104115809D02*
X120305285Y-104019047D01*
X120353666Y-103970666D01*
X120450428Y-103922285D01*
X120547190Y-103922285D01*
X120885857Y-104212571D02*
X121659952Y-104212571D01*
X122579190Y-104599619D02*
X122579190Y-103583619D01*
X122579190Y-104551238D02*
X122482428Y-104599619D01*
X122288904Y-104599619D01*
X122192142Y-104551238D01*
X122143761Y-104502857D01*
X122095380Y-104406095D01*
X122095380Y-104115809D01*
X122143761Y-104019047D01*
X122192142Y-103970666D01*
X122288904Y-103922285D01*
X122482428Y-103922285D01*
X122579190Y-103970666D01*
X123450047Y-104551238D02*
X123353285Y-104599619D01*
X123159761Y-104599619D01*
X123063000Y-104551238D01*
X123014619Y-104454476D01*
X123014619Y-104067428D01*
X123063000Y-103970666D01*
X123159761Y-103922285D01*
X123353285Y-103922285D01*
X123450047Y-103970666D01*
X123498428Y-104067428D01*
X123498428Y-104164190D01*
X123014619Y-104260952D01*
X123837095Y-103922285D02*
X124079000Y-104599619D01*
X124320904Y-103922285D01*
X124707952Y-104599619D02*
X124707952Y-103922285D01*
X124707952Y-103583619D02*
X124659571Y-103632000D01*
X124707952Y-103680380D01*
X124756333Y-103632000D01*
X124707952Y-103583619D01*
X124707952Y-103680380D01*
X125627190Y-104551238D02*
X125530428Y-104599619D01*
X125336904Y-104599619D01*
X125240142Y-104551238D01*
X125191761Y-104502857D01*
X125143380Y-104406095D01*
X125143380Y-104115809D01*
X125191761Y-104019047D01*
X125240142Y-103970666D01*
X125336904Y-103922285D01*
X125530428Y-103922285D01*
X125627190Y-103970666D01*
X126449666Y-104551238D02*
X126352904Y-104599619D01*
X126159380Y-104599619D01*
X126062619Y-104551238D01*
X126014238Y-104454476D01*
X126014238Y-104067428D01*
X126062619Y-103970666D01*
X126159380Y-103922285D01*
X126352904Y-103922285D01*
X126449666Y-103970666D01*
X126498047Y-104067428D01*
X126498047Y-104164190D01*
X126014238Y-104260952D01*
X126885095Y-104551238D02*
X126981857Y-104599619D01*
X127175380Y-104599619D01*
X127272142Y-104551238D01*
X127320523Y-104454476D01*
X127320523Y-104406095D01*
X127272142Y-104309333D01*
X127175380Y-104260952D01*
X127030238Y-104260952D01*
X126933476Y-104212571D01*
X126885095Y-104115809D01*
X126885095Y-104067428D01*
X126933476Y-103970666D01*
X127030238Y-103922285D01*
X127175380Y-103922285D01*
X127272142Y-103970666D01*
D13*
X86311619Y-97294095D02*
X87037333Y-97294095D01*
X87182476Y-97342476D01*
X87279238Y-97439238D01*
X87327619Y-97584380D01*
X87327619Y-97681142D01*
X87327619Y-96374857D02*
X86795428Y-96374857D01*
X86698666Y-96423238D01*
X86650285Y-96520000D01*
X86650285Y-96713523D01*
X86698666Y-96810285D01*
X87279238Y-96374857D02*
X87327619Y-96471619D01*
X87327619Y-96713523D01*
X87279238Y-96810285D01*
X87182476Y-96858666D01*
X87085714Y-96858666D01*
X86988952Y-96810285D01*
X86940571Y-96713523D01*
X86940571Y-96471619D01*
X86892190Y-96374857D01*
X86650285Y-95891047D02*
X87327619Y-95891047D01*
X86747047Y-95891047D02*
X86698666Y-95842666D01*
X86650285Y-95745904D01*
X86650285Y-95600761D01*
X86698666Y-95504000D01*
X86795428Y-95455619D01*
X87327619Y-95455619D01*
X87279238Y-94584761D02*
X87327619Y-94681523D01*
X87327619Y-94875047D01*
X87279238Y-94971809D01*
X87182476Y-95020190D01*
X86795428Y-95020190D01*
X86698666Y-94971809D01*
X86650285Y-94875047D01*
X86650285Y-94681523D01*
X86698666Y-94584761D01*
X86795428Y-94536380D01*
X86892190Y-94536380D01*
X86988952Y-95020190D01*
X87327619Y-93955809D02*
X87279238Y-94052571D01*
X87182476Y-94100952D01*
X86311619Y-94100952D01*
X87327619Y-93568761D02*
X86650285Y-93568761D01*
X86311619Y-93568761D02*
X86360000Y-93617142D01*
X86408380Y-93568761D01*
X86360000Y-93520380D01*
X86311619Y-93568761D01*
X86408380Y-93568761D01*
X87327619Y-92649523D02*
X86795428Y-92649523D01*
X86698666Y-92697904D01*
X86650285Y-92794666D01*
X86650285Y-92988190D01*
X86698666Y-93084952D01*
X87279238Y-92649523D02*
X87327619Y-92746285D01*
X87327619Y-92988190D01*
X87279238Y-93084952D01*
X87182476Y-93133333D01*
X87085714Y-93133333D01*
X86988952Y-93084952D01*
X86940571Y-92988190D01*
X86940571Y-92746285D01*
X86892190Y-92649523D01*
X87327619Y-91391619D02*
X86311619Y-91391619D01*
X87037333Y-91052952D01*
X86311619Y-90714285D01*
X87327619Y-90714285D01*
X87327619Y-90085333D02*
X87279238Y-90182095D01*
X87230857Y-90230476D01*
X87134095Y-90278857D01*
X86843809Y-90278857D01*
X86747047Y-90230476D01*
X86698666Y-90182095D01*
X86650285Y-90085333D01*
X86650285Y-89940190D01*
X86698666Y-89843428D01*
X86747047Y-89795047D01*
X86843809Y-89746666D01*
X87134095Y-89746666D01*
X87230857Y-89795047D01*
X87279238Y-89843428D01*
X87327619Y-89940190D01*
X87327619Y-90085333D01*
X87327619Y-88875809D02*
X86311619Y-88875809D01*
X87279238Y-88875809D02*
X87327619Y-88972571D01*
X87327619Y-89166095D01*
X87279238Y-89262857D01*
X87230857Y-89311238D01*
X87134095Y-89359619D01*
X86843809Y-89359619D01*
X86747047Y-89311238D01*
X86698666Y-89262857D01*
X86650285Y-89166095D01*
X86650285Y-88972571D01*
X86698666Y-88875809D01*
X86650285Y-87956571D02*
X87327619Y-87956571D01*
X86650285Y-88392000D02*
X87182476Y-88392000D01*
X87279238Y-88343619D01*
X87327619Y-88246857D01*
X87327619Y-88101714D01*
X87279238Y-88004952D01*
X87230857Y-87956571D01*
X87327619Y-87327619D02*
X87279238Y-87424380D01*
X87182476Y-87472761D01*
X86311619Y-87472761D01*
X87327619Y-86505142D02*
X86795428Y-86505142D01*
X86698666Y-86553523D01*
X86650285Y-86650285D01*
X86650285Y-86843809D01*
X86698666Y-86940571D01*
X87279238Y-86505142D02*
X87327619Y-86601904D01*
X87327619Y-86843809D01*
X87279238Y-86940571D01*
X87182476Y-86988952D01*
X87085714Y-86988952D01*
X86988952Y-86940571D01*
X86940571Y-86843809D01*
X86940571Y-86601904D01*
X86892190Y-86505142D01*
X87327619Y-86021333D02*
X86650285Y-86021333D01*
X86843809Y-86021333D02*
X86747047Y-85972952D01*
X86698666Y-85924571D01*
X86650285Y-85827809D01*
X86650285Y-85731047D01*
X87327619Y-84618285D02*
X86311619Y-84618285D01*
X86311619Y-84376380D01*
X86360000Y-84231238D01*
X86456761Y-84134476D01*
X86553523Y-84086095D01*
X86747047Y-84037714D01*
X86892190Y-84037714D01*
X87085714Y-84086095D01*
X87182476Y-84134476D01*
X87279238Y-84231238D01*
X87327619Y-84376380D01*
X87327619Y-84618285D01*
X87279238Y-83215238D02*
X87327619Y-83312000D01*
X87327619Y-83505523D01*
X87279238Y-83602285D01*
X87182476Y-83650666D01*
X86795428Y-83650666D01*
X86698666Y-83602285D01*
X86650285Y-83505523D01*
X86650285Y-83312000D01*
X86698666Y-83215238D01*
X86795428Y-83166857D01*
X86892190Y-83166857D01*
X86988952Y-83650666D01*
X86650285Y-82828190D02*
X87327619Y-82586285D01*
X86650285Y-82344380D01*
X87327619Y-81957333D02*
X86650285Y-81957333D01*
X86311619Y-81957333D02*
X86360000Y-82005714D01*
X86408380Y-81957333D01*
X86360000Y-81908952D01*
X86311619Y-81957333D01*
X86408380Y-81957333D01*
X87279238Y-81038095D02*
X87327619Y-81134857D01*
X87327619Y-81328380D01*
X87279238Y-81425142D01*
X87230857Y-81473523D01*
X87134095Y-81521904D01*
X86843809Y-81521904D01*
X86747047Y-81473523D01*
X86698666Y-81425142D01*
X86650285Y-81328380D01*
X86650285Y-81134857D01*
X86698666Y-81038095D01*
X87279238Y-80215619D02*
X87327619Y-80312380D01*
X87327619Y-80505904D01*
X87279238Y-80602666D01*
X87182476Y-80651047D01*
X86795428Y-80651047D01*
X86698666Y-80602666D01*
X86650285Y-80505904D01*
X86650285Y-80312380D01*
X86698666Y-80215619D01*
X86795428Y-80167238D01*
X86892190Y-80167238D01*
X86988952Y-80651047D01*
X89105619Y-95963619D02*
X88089619Y-95963619D01*
X89105619Y-95528190D02*
X88573428Y-95528190D01*
X88476666Y-95576571D01*
X88428285Y-95673333D01*
X88428285Y-95818476D01*
X88476666Y-95915238D01*
X88525047Y-95963619D01*
X89202380Y-95286285D02*
X89202380Y-94512190D01*
X89105619Y-94270285D02*
X88089619Y-94270285D01*
X88476666Y-94270285D02*
X88428285Y-94173523D01*
X88428285Y-93980000D01*
X88476666Y-93883238D01*
X88525047Y-93834857D01*
X88621809Y-93786476D01*
X88912095Y-93786476D01*
X89008857Y-93834857D01*
X89057238Y-93883238D01*
X89105619Y-93980000D01*
X89105619Y-94173523D01*
X89057238Y-94270285D01*
X89105619Y-93351047D02*
X88428285Y-93351047D01*
X88621809Y-93351047D02*
X88525047Y-93302666D01*
X88476666Y-93254285D01*
X88428285Y-93157523D01*
X88428285Y-93060761D01*
X89105619Y-92722095D02*
X88428285Y-92722095D01*
X88089619Y-92722095D02*
X88138000Y-92770476D01*
X88186380Y-92722095D01*
X88138000Y-92673714D01*
X88089619Y-92722095D01*
X88186380Y-92722095D01*
X89105619Y-91802857D02*
X88089619Y-91802857D01*
X89057238Y-91802857D02*
X89105619Y-91899619D01*
X89105619Y-92093142D01*
X89057238Y-92189904D01*
X89008857Y-92238285D01*
X88912095Y-92286666D01*
X88621809Y-92286666D01*
X88525047Y-92238285D01*
X88476666Y-92189904D01*
X88428285Y-92093142D01*
X88428285Y-91899619D01*
X88476666Y-91802857D01*
X88428285Y-90883619D02*
X89250761Y-90883619D01*
X89347523Y-90932000D01*
X89395904Y-90980380D01*
X89444285Y-91077142D01*
X89444285Y-91222285D01*
X89395904Y-91319047D01*
X89057238Y-90883619D02*
X89105619Y-90980380D01*
X89105619Y-91173904D01*
X89057238Y-91270666D01*
X89008857Y-91319047D01*
X88912095Y-91367428D01*
X88621809Y-91367428D01*
X88525047Y-91319047D01*
X88476666Y-91270666D01*
X88428285Y-91173904D01*
X88428285Y-90980380D01*
X88476666Y-90883619D01*
X89057238Y-90012761D02*
X89105619Y-90109523D01*
X89105619Y-90303047D01*
X89057238Y-90399809D01*
X88960476Y-90448190D01*
X88573428Y-90448190D01*
X88476666Y-90399809D01*
X88428285Y-90303047D01*
X88428285Y-90109523D01*
X88476666Y-90012761D01*
X88573428Y-89964380D01*
X88670190Y-89964380D01*
X88766952Y-90448190D01*
X89202380Y-89770857D02*
X89202380Y-88996761D01*
X89057238Y-88319428D02*
X89105619Y-88416190D01*
X89105619Y-88609714D01*
X89057238Y-88706476D01*
X89008857Y-88754857D01*
X88912095Y-88803238D01*
X88621809Y-88803238D01*
X88525047Y-88754857D01*
X88476666Y-88706476D01*
X88428285Y-88609714D01*
X88428285Y-88416190D01*
X88476666Y-88319428D01*
X89105619Y-87738857D02*
X89057238Y-87835619D01*
X89008857Y-87884000D01*
X88912095Y-87932380D01*
X88621809Y-87932380D01*
X88525047Y-87884000D01*
X88476666Y-87835619D01*
X88428285Y-87738857D01*
X88428285Y-87593714D01*
X88476666Y-87496952D01*
X88525047Y-87448571D01*
X88621809Y-87400190D01*
X88912095Y-87400190D01*
X89008857Y-87448571D01*
X89057238Y-87496952D01*
X89105619Y-87593714D01*
X89105619Y-87738857D01*
X88428285Y-86964761D02*
X89105619Y-86964761D01*
X88525047Y-86964761D02*
X88476666Y-86916380D01*
X88428285Y-86819619D01*
X88428285Y-86674476D01*
X88476666Y-86577714D01*
X88573428Y-86529333D01*
X89105619Y-86529333D01*
X88428285Y-86190666D02*
X88428285Y-85803619D01*
X88089619Y-86045523D02*
X88960476Y-86045523D01*
X89057238Y-85997142D01*
X89105619Y-85900380D01*
X89105619Y-85803619D01*
X89105619Y-85464952D02*
X88428285Y-85464952D01*
X88621809Y-85464952D02*
X88525047Y-85416571D01*
X88476666Y-85368190D01*
X88428285Y-85271428D01*
X88428285Y-85174666D01*
X89105619Y-84690857D02*
X89057238Y-84787619D01*
X89008857Y-84836000D01*
X88912095Y-84884380D01*
X88621809Y-84884380D01*
X88525047Y-84836000D01*
X88476666Y-84787619D01*
X88428285Y-84690857D01*
X88428285Y-84545714D01*
X88476666Y-84448952D01*
X88525047Y-84400571D01*
X88621809Y-84352190D01*
X88912095Y-84352190D01*
X89008857Y-84400571D01*
X89057238Y-84448952D01*
X89105619Y-84545714D01*
X89105619Y-84690857D01*
X89105619Y-83771619D02*
X89057238Y-83868380D01*
X88960476Y-83916761D01*
X88089619Y-83916761D01*
X89105619Y-83239428D02*
X89057238Y-83336190D01*
X88960476Y-83384571D01*
X88089619Y-83384571D01*
X89057238Y-82465333D02*
X89105619Y-82562095D01*
X89105619Y-82755619D01*
X89057238Y-82852380D01*
X88960476Y-82900761D01*
X88573428Y-82900761D01*
X88476666Y-82852380D01*
X88428285Y-82755619D01*
X88428285Y-82562095D01*
X88476666Y-82465333D01*
X88573428Y-82416952D01*
X88670190Y-82416952D01*
X88766952Y-82900761D01*
X89105619Y-81981523D02*
X88428285Y-81981523D01*
X88621809Y-81981523D02*
X88525047Y-81933142D01*
X88476666Y-81884761D01*
X88428285Y-81788000D01*
X88428285Y-81691238D01*
X90206285Y-95939428D02*
X91222285Y-95939428D01*
X90254666Y-95939428D02*
X90206285Y-95842666D01*
X90206285Y-95649142D01*
X90254666Y-95552380D01*
X90303047Y-95504000D01*
X90399809Y-95455619D01*
X90690095Y-95455619D01*
X90786857Y-95504000D01*
X90835238Y-95552380D01*
X90883619Y-95649142D01*
X90883619Y-95842666D01*
X90835238Y-95939428D01*
X90883619Y-94584761D02*
X90351428Y-94584761D01*
X90254666Y-94633142D01*
X90206285Y-94729904D01*
X90206285Y-94923428D01*
X90254666Y-95020190D01*
X90835238Y-94584761D02*
X90883619Y-94681523D01*
X90883619Y-94923428D01*
X90835238Y-95020190D01*
X90738476Y-95068571D01*
X90641714Y-95068571D01*
X90544952Y-95020190D01*
X90496571Y-94923428D01*
X90496571Y-94681523D01*
X90448190Y-94584761D01*
X90883619Y-94100952D02*
X90206285Y-94100952D01*
X90399809Y-94100952D02*
X90303047Y-94052571D01*
X90254666Y-94004190D01*
X90206285Y-93907428D01*
X90206285Y-93810666D01*
X90206285Y-93617142D02*
X90206285Y-93230095D01*
X89867619Y-93472000D02*
X90738476Y-93472000D01*
X90835238Y-93423619D01*
X90883619Y-93326857D01*
X90883619Y-93230095D01*
X90980380Y-93133333D02*
X90980380Y-92359238D01*
X90206285Y-92117333D02*
X90883619Y-92117333D01*
X90303047Y-92117333D02*
X90254666Y-92068952D01*
X90206285Y-91972190D01*
X90206285Y-91827047D01*
X90254666Y-91730285D01*
X90351428Y-91681904D01*
X90883619Y-91681904D01*
X90206285Y-90762666D02*
X90883619Y-90762666D01*
X90206285Y-91198095D02*
X90738476Y-91198095D01*
X90835238Y-91149714D01*
X90883619Y-91052952D01*
X90883619Y-90907809D01*
X90835238Y-90811047D01*
X90786857Y-90762666D01*
X90883619Y-90278857D02*
X90206285Y-90278857D01*
X90303047Y-90278857D02*
X90254666Y-90230476D01*
X90206285Y-90133714D01*
X90206285Y-89988571D01*
X90254666Y-89891809D01*
X90351428Y-89843428D01*
X90883619Y-89843428D01*
X90351428Y-89843428D02*
X90254666Y-89795047D01*
X90206285Y-89698285D01*
X90206285Y-89553142D01*
X90254666Y-89456380D01*
X90351428Y-89408000D01*
X90883619Y-89408000D01*
X90883619Y-88924190D02*
X89867619Y-88924190D01*
X90254666Y-88924190D02*
X90206285Y-88827428D01*
X90206285Y-88633904D01*
X90254666Y-88537142D01*
X90303047Y-88488761D01*
X90399809Y-88440380D01*
X90690095Y-88440380D01*
X90786857Y-88488761D01*
X90835238Y-88537142D01*
X90883619Y-88633904D01*
X90883619Y-88827428D01*
X90835238Y-88924190D01*
X90835238Y-87617904D02*
X90883619Y-87714666D01*
X90883619Y-87908190D01*
X90835238Y-88004952D01*
X90738476Y-88053333D01*
X90351428Y-88053333D01*
X90254666Y-88004952D01*
X90206285Y-87908190D01*
X90206285Y-87714666D01*
X90254666Y-87617904D01*
X90351428Y-87569523D01*
X90448190Y-87569523D01*
X90544952Y-88053333D01*
X90883619Y-87134095D02*
X90206285Y-87134095D01*
X90399809Y-87134095D02*
X90303047Y-87085714D01*
X90254666Y-87037333D01*
X90206285Y-86940571D01*
X90206285Y-86843809D01*
X90786857Y-86505142D02*
X90835238Y-86456761D01*
X90883619Y-86505142D01*
X90835238Y-86553523D01*
X90786857Y-86505142D01*
X90883619Y-86505142D01*
X90254666Y-86505142D02*
X90303047Y-86456761D01*
X90351428Y-86505142D01*
X90303047Y-86553523D01*
X90254666Y-86505142D01*
X90351428Y-86505142D01*
X90883619Y-84715047D02*
X90883619Y-85295619D01*
X90883619Y-85005333D02*
X89867619Y-85005333D01*
X90012761Y-85102095D01*
X90109523Y-85198857D01*
X90157904Y-85295619D01*
X90883619Y-83747428D02*
X90883619Y-84328000D01*
X90883619Y-84037714D02*
X89867619Y-84037714D01*
X90012761Y-84134476D01*
X90109523Y-84231238D01*
X90157904Y-84328000D01*
X89867619Y-83408761D02*
X89867619Y-82731428D01*
X90883619Y-83166857D01*
X90883619Y-81812190D02*
X90883619Y-82392761D01*
X90883619Y-82102476D02*
X89867619Y-82102476D01*
X90012761Y-82199238D01*
X90109523Y-82295999D01*
X90157904Y-82392761D01*
X91645619Y-96786095D02*
X91645619Y-96689333D01*
X91694000Y-96592571D01*
X91742380Y-96544190D01*
X91839142Y-96495809D01*
X92032666Y-96447428D01*
X92274571Y-96447428D01*
X92468095Y-96495809D01*
X92564857Y-96544190D01*
X92613238Y-96592571D01*
X92661619Y-96689333D01*
X92661619Y-96786095D01*
X92613238Y-96882857D01*
X92564857Y-96931238D01*
X92468095Y-96979619D01*
X92274571Y-97028000D01*
X92032666Y-97028000D01*
X91839142Y-96979619D01*
X91742380Y-96931238D01*
X91694000Y-96882857D01*
X91645619Y-96786095D01*
X91645619Y-96108761D02*
X91645619Y-95479809D01*
X92032666Y-95818476D01*
X92032666Y-95673333D01*
X92081047Y-95576571D01*
X92129428Y-95528190D01*
X92226190Y-95479809D01*
X92468095Y-95479809D01*
X92564857Y-95528190D01*
X92613238Y-95576571D01*
X92661619Y-95673333D01*
X92661619Y-95963619D01*
X92613238Y-96060380D01*
X92564857Y-96108761D01*
X91597238Y-94318666D02*
X92903523Y-95189523D01*
X91742380Y-94028380D02*
X91694000Y-93980000D01*
X91645619Y-93883238D01*
X91645619Y-93641333D01*
X91694000Y-93544571D01*
X91742380Y-93496190D01*
X91839142Y-93447809D01*
X91935904Y-93447809D01*
X92081047Y-93496190D01*
X92661619Y-94076761D01*
X92661619Y-93447809D01*
X91645619Y-92818857D02*
X91645619Y-92722095D01*
X91694000Y-92625333D01*
X91742380Y-92576952D01*
X91839142Y-92528571D01*
X92032666Y-92480190D01*
X92274571Y-92480190D01*
X92468095Y-92528571D01*
X92564857Y-92576952D01*
X92613238Y-92625333D01*
X92661619Y-92722095D01*
X92661619Y-92818857D01*
X92613238Y-92915619D01*
X92564857Y-92964000D01*
X92468095Y-93012380D01*
X92274571Y-93060761D01*
X92032666Y-93060761D01*
X91839142Y-93012380D01*
X91742380Y-92964000D01*
X91694000Y-92915619D01*
X91645619Y-92818857D01*
X92661619Y-91512571D02*
X92661619Y-92093142D01*
X92661619Y-91802857D02*
X91645619Y-91802857D01*
X91790761Y-91899619D01*
X91887523Y-91996380D01*
X91935904Y-92093142D01*
X91645619Y-91173904D02*
X91645619Y-90496571D01*
X92661619Y-90932000D01*
X91984285Y-89432190D02*
X92661619Y-89190285D01*
X91984285Y-88948380D01*
X92613238Y-88174285D02*
X92661619Y-88271047D01*
X92661619Y-88464571D01*
X92613238Y-88561333D01*
X92516476Y-88609714D01*
X92129428Y-88609714D01*
X92032666Y-88561333D01*
X91984285Y-88464571D01*
X91984285Y-88271047D01*
X92032666Y-88174285D01*
X92129428Y-88125904D01*
X92226190Y-88125904D01*
X92322952Y-88609714D01*
X92661619Y-87690476D02*
X91984285Y-87690476D01*
X92177809Y-87690476D02*
X92081047Y-87642095D01*
X92032666Y-87593714D01*
X91984285Y-87496952D01*
X91984285Y-87400190D01*
X92661619Y-85755238D02*
X92661619Y-86335809D01*
X92661619Y-86045523D02*
X91645619Y-86045523D01*
X91790761Y-86142285D01*
X91887523Y-86239047D01*
X91935904Y-86335809D01*
X92564857Y-85319809D02*
X92613238Y-85271428D01*
X92661619Y-85319809D01*
X92613238Y-85368190D01*
X92564857Y-85319809D01*
X92661619Y-85319809D01*
X91645619Y-84642476D02*
X91645619Y-84545714D01*
X91694000Y-84448952D01*
X91742380Y-84400571D01*
X91839142Y-84352190D01*
X92032666Y-84303809D01*
X92274571Y-84303809D01*
X92468095Y-84352190D01*
X92564857Y-84400571D01*
X92613238Y-84448952D01*
X92661619Y-84545714D01*
X92661619Y-84642476D01*
X92613238Y-84739238D01*
X92564857Y-84787619D01*
X92468095Y-84836000D01*
X92274571Y-84884380D01*
X92032666Y-84884380D01*
X91839142Y-84836000D01*
X91742380Y-84787619D01*
X91694000Y-84739238D01*
X91645619Y-84642476D01*
X91645619Y-83191047D02*
X91645619Y-82562095D01*
X92032666Y-82900761D01*
X92032666Y-82755619D01*
X92081047Y-82658857D01*
X92129428Y-82610476D01*
X92226190Y-82562095D01*
X92468095Y-82562095D01*
X92564857Y-82610476D01*
X92613238Y-82658857D01*
X92661619Y-82755619D01*
X92661619Y-83045904D01*
X92613238Y-83142666D01*
X92564857Y-83191047D01*
X92661619Y-82223428D02*
X91984285Y-81691238D01*
X91984285Y-82223428D02*
X92661619Y-81691238D01*
X91742380Y-81352571D02*
X91694000Y-81304190D01*
X91645619Y-81207428D01*
X91645619Y-80965523D01*
X91694000Y-80868761D01*
X91742380Y-80820380D01*
X91839142Y-80772000D01*
X91935904Y-80772000D01*
X92081047Y-80820380D01*
X92661619Y-81400952D01*
X92661619Y-80772000D01*
D14*
X92075000Y-76200000D02*
G75*
G03X92075000Y-76200000I-2540000J0D01*
G01*
X92075000Y-101600000D02*
G75*
G03X92075000Y-101600000I-2540000J0D01*
G01*
X132715000Y-106680000D02*
G75*
G03X132715000Y-106680000I-2540000J0D01*
G01*
X132715000Y-71120000D02*
G75*
G03X132715000Y-71120000I-2540000J0D01*
G01*
X144780000Y-78105000D02*
X152400000Y-78105000D01*
X144780000Y-80645000D02*
X144780000Y-78105000D01*
X152400000Y-80645000D02*
X144780000Y-80645000D01*
X152400000Y-78105000D02*
X152400000Y-80645000D01*
X148590000Y-79375000D02*
X149606000Y-79375000D01*
X149098000Y-78867000D02*
X149098000Y-79883000D01*
X97282000Y-82677000D02*
X98298000Y-82677000D01*
X97790000Y-83185000D02*
X97790000Y-82169000D01*
X96520000Y-79375000D02*
X99060000Y-79375000D01*
X99060000Y-79375000D02*
X99060000Y-86995000D01*
X99060000Y-86995000D02*
X96520000Y-86995000D01*
X96520000Y-86995000D02*
X96520000Y-79375000D01*
X111760000Y-86995000D02*
X111760000Y-79375000D01*
X114300000Y-86995000D02*
X111760000Y-86995000D01*
X114300000Y-79375000D02*
X114300000Y-86995000D01*
X111760000Y-79375000D02*
X114300000Y-79375000D01*
X113030000Y-83185000D02*
X113030000Y-82169000D01*
X112522000Y-82677000D02*
X113538000Y-82677000D01*
X121412000Y-82677000D02*
X122428000Y-82677000D01*
X121920000Y-83185000D02*
X121920000Y-82169000D01*
X120650000Y-79375000D02*
X123190000Y-79375000D01*
X123190000Y-79375000D02*
X123190000Y-86995000D01*
X123190000Y-86995000D02*
X120650000Y-86995000D01*
X120650000Y-86995000D02*
X120650000Y-79375000D01*
D15*
X142240000Y-83820000D02*
X142240000Y-93980000D01*
X142240000Y-93980000D02*
X155575000Y-93980000D01*
X142240000Y-83820000D02*
X155575000Y-83820000D01*
X155575000Y-83820000D02*
X155575000Y-93980000D01*
X143510000Y-102235000D02*
X143510000Y-97155000D01*
X143510000Y-97155000D02*
X153670000Y-97155000D01*
X153670000Y-97155000D02*
X153670000Y-102235000D01*
X153670000Y-102235000D02*
X143510000Y-102235000D01*
X100330000Y-85725000D02*
X100330000Y-79375000D01*
X100330000Y-79375000D02*
X110490000Y-79375000D01*
X110490000Y-79375000D02*
X110490000Y-85725000D01*
X100330000Y-85725000D02*
G75*
G03X105410000Y-85725000I2540000J2540000D01*
G01*
X105410000Y-85725000D02*
G75*
G03X110490000Y-85725000I2540000J2540000D01*
G01*
X111506000Y-86995000D02*
X111506000Y-78384400D01*
X99314000Y-78384400D02*
X111506000Y-78384400D01*
X99314000Y-86995000D02*
X99314000Y-78384400D01*
X99314000Y-86995000D02*
X111506000Y-86995000D01*
X123444000Y-86995000D02*
X135636000Y-86995000D01*
X123444000Y-86995000D02*
X123444000Y-78384400D01*
X123444000Y-78384400D02*
X135636000Y-78384400D01*
X135636000Y-86995000D02*
X135636000Y-78384400D01*
X129540000Y-85725000D02*
G75*
G03X134620000Y-85725000I2540000J2540000D01*
G01*
X124460000Y-85725000D02*
G75*
G03X129540000Y-85725000I2540000J2540000D01*
G01*
X134620000Y-79375000D02*
X134620000Y-85725000D01*
X124460000Y-79375000D02*
X134620000Y-79375000D01*
X124460000Y-85725000D02*
X124460000Y-79375000D01*
D14*
X136652000Y-82677000D02*
X137668000Y-82677000D01*
X137160000Y-83185000D02*
X137160000Y-82169000D01*
X135890000Y-79375000D02*
X138430000Y-79375000D01*
X138430000Y-79375000D02*
X138430000Y-86995000D01*
X138430000Y-86995000D02*
X135890000Y-86995000D01*
X135890000Y-86995000D02*
X135890000Y-79375000D01*
D15*
X100330000Y-95250000D02*
X100330000Y-90170000D01*
X100330000Y-90170000D02*
X110490000Y-90170000D01*
X110490000Y-90170000D02*
X110490000Y-95250000D01*
X110490000Y-95250000D02*
X100330000Y-95250000D01*
X134620000Y-95250000D02*
X124460000Y-95250000D01*
X134620000Y-90170000D02*
X134620000Y-95250000D01*
X124460000Y-90170000D02*
X134620000Y-90170000D01*
X124460000Y-95250000D02*
X124460000Y-90170000D01*
D13*
X143969619Y-79544333D02*
X143969619Y-80028142D01*
X142953619Y-80028142D01*
X143969619Y-78673476D02*
X143969619Y-79254047D01*
X143969619Y-78963761D02*
X142953619Y-78963761D01*
X143098761Y-79060523D01*
X143195523Y-79157285D01*
X143243904Y-79254047D01*
X97620666Y-88724619D02*
X97136857Y-88724619D01*
X97136857Y-87708619D01*
X97910952Y-87805380D02*
X97959333Y-87757000D01*
X98056095Y-87708619D01*
X98298000Y-87708619D01*
X98394761Y-87757000D01*
X98443142Y-87805380D01*
X98491523Y-87902142D01*
X98491523Y-87998904D01*
X98443142Y-88144047D01*
X97862571Y-88724619D01*
X98491523Y-88724619D01*
X112860666Y-88724619D02*
X112376857Y-88724619D01*
X112376857Y-87708619D01*
X113102571Y-87708619D02*
X113731523Y-87708619D01*
X113392857Y-88095666D01*
X113538000Y-88095666D01*
X113634761Y-88144047D01*
X113683142Y-88192428D01*
X113731523Y-88289190D01*
X113731523Y-88531095D01*
X113683142Y-88627857D01*
X113634761Y-88676238D01*
X113538000Y-88724619D01*
X113247714Y-88724619D01*
X113150952Y-88676238D01*
X113102571Y-88627857D01*
X121750666Y-88724619D02*
X121266857Y-88724619D01*
X121266857Y-87708619D01*
X122524761Y-88047285D02*
X122524761Y-88724619D01*
X122282857Y-87660238D02*
X122040952Y-88385952D01*
X122669904Y-88385952D01*
X153555095Y-83009619D02*
X153555095Y-81993619D01*
X153942142Y-81993619D01*
X154038904Y-82042000D01*
X154087285Y-82090380D01*
X154135666Y-82187142D01*
X154135666Y-82332285D01*
X154087285Y-82429047D01*
X154038904Y-82477428D01*
X153942142Y-82525809D01*
X153555095Y-82525809D01*
X155103285Y-83009619D02*
X154522714Y-83009619D01*
X154813000Y-83009619D02*
X154813000Y-81993619D01*
X154716238Y-82138761D01*
X154619476Y-82235523D01*
X154522714Y-82283904D01*
X142155333Y-103916238D02*
X142300476Y-103964619D01*
X142542380Y-103964619D01*
X142639142Y-103916238D01*
X142687523Y-103867857D01*
X142735904Y-103771095D01*
X142735904Y-103674333D01*
X142687523Y-103577571D01*
X142639142Y-103529190D01*
X142542380Y-103480809D01*
X142348857Y-103432428D01*
X142252095Y-103384047D01*
X142203714Y-103335666D01*
X142155333Y-103238904D01*
X142155333Y-103142142D01*
X142203714Y-103045380D01*
X142252095Y-102997000D01*
X142348857Y-102948619D01*
X142590761Y-102948619D01*
X142735904Y-102997000D01*
X143074571Y-102948619D02*
X143316476Y-103964619D01*
X143510000Y-103238904D01*
X143703523Y-103964619D01*
X143945428Y-102948619D01*
X144864666Y-103964619D02*
X144284095Y-103964619D01*
X144574380Y-103964619D02*
X144574380Y-102948619D01*
X144477619Y-103093761D01*
X144380857Y-103190523D01*
X144284095Y-103238904D01*
X154129619Y-100662619D02*
X154129619Y-100469095D01*
X154178000Y-100372333D01*
X154274761Y-100275571D01*
X154468285Y-100227190D01*
X154806952Y-100227190D01*
X155000476Y-100275571D01*
X155097238Y-100372333D01*
X155145619Y-100469095D01*
X155145619Y-100662619D01*
X155097238Y-100759380D01*
X155000476Y-100856142D01*
X154806952Y-100904523D01*
X154468285Y-100904523D01*
X154274761Y-100856142D01*
X154178000Y-100759380D01*
X154129619Y-100662619D01*
X154613428Y-99453095D02*
X154613428Y-99791761D01*
X155145619Y-99791761D02*
X154129619Y-99791761D01*
X154129619Y-99307952D01*
X154613428Y-98582238D02*
X154613428Y-98920904D01*
X155145619Y-98920904D02*
X154129619Y-98920904D01*
X154129619Y-98437095D01*
X142064619Y-100323952D02*
X142064619Y-100130428D01*
X142113000Y-100033666D01*
X142209761Y-99936904D01*
X142403285Y-99888523D01*
X142741952Y-99888523D01*
X142935476Y-99936904D01*
X143032238Y-100033666D01*
X143080619Y-100130428D01*
X143080619Y-100323952D01*
X143032238Y-100420714D01*
X142935476Y-100517476D01*
X142741952Y-100565857D01*
X142403285Y-100565857D01*
X142209761Y-100517476D01*
X142113000Y-100420714D01*
X142064619Y-100323952D01*
X143080619Y-99453095D02*
X142064619Y-99453095D01*
X143080619Y-98872523D01*
X142064619Y-98872523D01*
X104635904Y-87708619D02*
X105216476Y-87708619D01*
X104926190Y-88724619D02*
X104926190Y-87708619D01*
X106087333Y-88724619D02*
X105506761Y-88724619D01*
X105797047Y-88724619D02*
X105797047Y-87708619D01*
X105700285Y-87853761D01*
X105603523Y-87950523D01*
X105506761Y-87998904D01*
X128765904Y-87708619D02*
X129346476Y-87708619D01*
X129056190Y-88724619D02*
X129056190Y-87708619D01*
X129636761Y-87805380D02*
X129685142Y-87757000D01*
X129781904Y-87708619D01*
X130023809Y-87708619D01*
X130120571Y-87757000D01*
X130168952Y-87805380D01*
X130217333Y-87902142D01*
X130217333Y-87998904D01*
X130168952Y-88144047D01*
X129588380Y-88724619D01*
X130217333Y-88724619D01*
X136990666Y-88724619D02*
X136506857Y-88724619D01*
X136506857Y-87708619D01*
X137813142Y-87708619D02*
X137329333Y-87708619D01*
X137280952Y-88192428D01*
X137329333Y-88144047D01*
X137426095Y-88095666D01*
X137668000Y-88095666D01*
X137764761Y-88144047D01*
X137813142Y-88192428D01*
X137861523Y-88289190D01*
X137861523Y-88531095D01*
X137813142Y-88627857D01*
X137764761Y-88676238D01*
X137668000Y-88724619D01*
X137426095Y-88724619D01*
X137329333Y-88676238D01*
X137280952Y-88627857D01*
X104055333Y-96931238D02*
X104200476Y-96979619D01*
X104442380Y-96979619D01*
X104539142Y-96931238D01*
X104587523Y-96882857D01*
X104635904Y-96786095D01*
X104635904Y-96689333D01*
X104587523Y-96592571D01*
X104539142Y-96544190D01*
X104442380Y-96495809D01*
X104248857Y-96447428D01*
X104152095Y-96399047D01*
X104103714Y-96350666D01*
X104055333Y-96253904D01*
X104055333Y-96157142D01*
X104103714Y-96060380D01*
X104152095Y-96012000D01*
X104248857Y-95963619D01*
X104490761Y-95963619D01*
X104635904Y-96012000D01*
X104974571Y-95963619D02*
X105216476Y-96979619D01*
X105410000Y-96253904D01*
X105603523Y-96979619D01*
X105845428Y-95963619D01*
X106184095Y-96060380D02*
X106232476Y-96012000D01*
X106329238Y-95963619D01*
X106571142Y-95963619D01*
X106667904Y-96012000D01*
X106716285Y-96060380D01*
X106764666Y-96157142D01*
X106764666Y-96253904D01*
X106716285Y-96399047D01*
X106135714Y-96979619D01*
X106764666Y-96979619D01*
X111965619Y-95516095D02*
X110949619Y-95516095D01*
X110949619Y-95274190D01*
X110998000Y-95129047D01*
X111094761Y-95032285D01*
X111191523Y-94983904D01*
X111385047Y-94935523D01*
X111530190Y-94935523D01*
X111723714Y-94983904D01*
X111820476Y-95032285D01*
X111917238Y-95129047D01*
X111965619Y-95274190D01*
X111965619Y-95516095D01*
X111965619Y-94500095D02*
X110949619Y-94500095D01*
X111917238Y-94064666D02*
X111965619Y-93919523D01*
X111965619Y-93677619D01*
X111917238Y-93580857D01*
X111868857Y-93532476D01*
X111772095Y-93484095D01*
X111675333Y-93484095D01*
X111578571Y-93532476D01*
X111530190Y-93580857D01*
X111481809Y-93677619D01*
X111433428Y-93871142D01*
X111385047Y-93967904D01*
X111336666Y-94016285D01*
X111239904Y-94064666D01*
X111143142Y-94064666D01*
X111046380Y-94016285D01*
X110998000Y-93967904D01*
X110949619Y-93871142D01*
X110949619Y-93629238D01*
X110998000Y-93484095D01*
X111675333Y-93097047D02*
X111675333Y-92613238D01*
X111965619Y-93193809D02*
X110949619Y-92855142D01*
X111965619Y-92516476D01*
X111433428Y-91839142D02*
X111481809Y-91694000D01*
X111530190Y-91645619D01*
X111626952Y-91597238D01*
X111772095Y-91597238D01*
X111868857Y-91645619D01*
X111917238Y-91694000D01*
X111965619Y-91790761D01*
X111965619Y-92177809D01*
X110949619Y-92177809D01*
X110949619Y-91839142D01*
X110998000Y-91742380D01*
X111046380Y-91694000D01*
X111143142Y-91645619D01*
X111239904Y-91645619D01*
X111336666Y-91694000D01*
X111385047Y-91742380D01*
X111433428Y-91839142D01*
X111433428Y-92177809D01*
X111965619Y-90678000D02*
X111965619Y-91161809D01*
X110949619Y-91161809D01*
X111433428Y-90339333D02*
X111433428Y-90000666D01*
X111965619Y-89855523D02*
X111965619Y-90339333D01*
X110949619Y-90339333D01*
X110949619Y-89855523D01*
X99368428Y-95274190D02*
X99368428Y-94935523D01*
X99900619Y-94790380D02*
X99900619Y-95274190D01*
X98884619Y-95274190D01*
X98884619Y-94790380D01*
X99900619Y-94354952D02*
X98884619Y-94354952D01*
X99900619Y-93774380D01*
X98884619Y-93774380D01*
X99610333Y-93338952D02*
X99610333Y-92855142D01*
X99900619Y-93435714D02*
X98884619Y-93097047D01*
X99900619Y-92758380D01*
X99368428Y-92081047D02*
X99416809Y-91935904D01*
X99465190Y-91887523D01*
X99561952Y-91839142D01*
X99707095Y-91839142D01*
X99803857Y-91887523D01*
X99852238Y-91935904D01*
X99900619Y-92032666D01*
X99900619Y-92419714D01*
X98884619Y-92419714D01*
X98884619Y-92081047D01*
X98933000Y-91984285D01*
X98981380Y-91935904D01*
X99078142Y-91887523D01*
X99174904Y-91887523D01*
X99271666Y-91935904D01*
X99320047Y-91984285D01*
X99368428Y-92081047D01*
X99368428Y-92419714D01*
X99900619Y-90919904D02*
X99900619Y-91403714D01*
X98884619Y-91403714D01*
X99368428Y-90581238D02*
X99368428Y-90242571D01*
X99900619Y-90097428D02*
X99900619Y-90581238D01*
X98884619Y-90581238D01*
X98884619Y-90097428D01*
X128185333Y-96931238D02*
X128330476Y-96979619D01*
X128572380Y-96979619D01*
X128669142Y-96931238D01*
X128717523Y-96882857D01*
X128765904Y-96786095D01*
X128765904Y-96689333D01*
X128717523Y-96592571D01*
X128669142Y-96544190D01*
X128572380Y-96495809D01*
X128378857Y-96447428D01*
X128282095Y-96399047D01*
X128233714Y-96350666D01*
X128185333Y-96253904D01*
X128185333Y-96157142D01*
X128233714Y-96060380D01*
X128282095Y-96012000D01*
X128378857Y-95963619D01*
X128620761Y-95963619D01*
X128765904Y-96012000D01*
X129104571Y-95963619D02*
X129346476Y-96979619D01*
X129540000Y-96253904D01*
X129733523Y-96979619D01*
X129975428Y-95963619D01*
X130265714Y-95963619D02*
X130894666Y-95963619D01*
X130556000Y-96350666D01*
X130701142Y-96350666D01*
X130797904Y-96399047D01*
X130846285Y-96447428D01*
X130894666Y-96544190D01*
X130894666Y-96786095D01*
X130846285Y-96882857D01*
X130797904Y-96931238D01*
X130701142Y-96979619D01*
X130410857Y-96979619D01*
X130314095Y-96931238D01*
X130265714Y-96882857D01*
X123498428Y-95274190D02*
X123498428Y-94935523D01*
X124030619Y-94790380D02*
X124030619Y-95274190D01*
X123014619Y-95274190D01*
X123014619Y-94790380D01*
X124030619Y-94354952D02*
X123014619Y-94354952D01*
X124030619Y-93774380D01*
X123014619Y-93774380D01*
X123740333Y-93338952D02*
X123740333Y-92855142D01*
X124030619Y-93435714D02*
X123014619Y-93097047D01*
X124030619Y-92758380D01*
X123498428Y-92081047D02*
X123546809Y-91935904D01*
X123595190Y-91887523D01*
X123691952Y-91839142D01*
X123837095Y-91839142D01*
X123933857Y-91887523D01*
X123982238Y-91935904D01*
X124030619Y-92032666D01*
X124030619Y-92419714D01*
X123014619Y-92419714D01*
X123014619Y-92081047D01*
X123063000Y-91984285D01*
X123111380Y-91935904D01*
X123208142Y-91887523D01*
X123304904Y-91887523D01*
X123401666Y-91935904D01*
X123450047Y-91984285D01*
X123498428Y-92081047D01*
X123498428Y-92419714D01*
X124030619Y-90919904D02*
X124030619Y-91403714D01*
X123014619Y-91403714D01*
X123498428Y-90581238D02*
X123498428Y-90242571D01*
X124030619Y-90097428D02*
X124030619Y-90581238D01*
X123014619Y-90581238D01*
X123014619Y-90097428D01*
X136095619Y-95516095D02*
X135079619Y-95516095D01*
X135079619Y-95274190D01*
X135128000Y-95129047D01*
X135224761Y-95032285D01*
X135321523Y-94983904D01*
X135515047Y-94935523D01*
X135660190Y-94935523D01*
X135853714Y-94983904D01*
X135950476Y-95032285D01*
X136047238Y-95129047D01*
X136095619Y-95274190D01*
X136095619Y-95516095D01*
X136095619Y-94500095D02*
X135079619Y-94500095D01*
X136047238Y-94064666D02*
X136095619Y-93919523D01*
X136095619Y-93677619D01*
X136047238Y-93580857D01*
X135998857Y-93532476D01*
X135902095Y-93484095D01*
X135805333Y-93484095D01*
X135708571Y-93532476D01*
X135660190Y-93580857D01*
X135611809Y-93677619D01*
X135563428Y-93871142D01*
X135515047Y-93967904D01*
X135466666Y-94016285D01*
X135369904Y-94064666D01*
X135273142Y-94064666D01*
X135176380Y-94016285D01*
X135128000Y-93967904D01*
X135079619Y-93871142D01*
X135079619Y-93629238D01*
X135128000Y-93484095D01*
X135805333Y-93097047D02*
X135805333Y-92613238D01*
X136095619Y-93193809D02*
X135079619Y-92855142D01*
X136095619Y-92516476D01*
X135563428Y-91839142D02*
X135611809Y-91694000D01*
X135660190Y-91645619D01*
X135756952Y-91597238D01*
X135902095Y-91597238D01*
X135998857Y-91645619D01*
X136047238Y-91694000D01*
X136095619Y-91790761D01*
X136095619Y-92177809D01*
X135079619Y-92177809D01*
X135079619Y-91839142D01*
X135128000Y-91742380D01*
X135176380Y-91694000D01*
X135273142Y-91645619D01*
X135369904Y-91645619D01*
X135466666Y-91694000D01*
X135515047Y-91742380D01*
X135563428Y-91839142D01*
X135563428Y-92177809D01*
X136095619Y-90678000D02*
X136095619Y-91161809D01*
X135079619Y-91161809D01*
X135563428Y-90339333D02*
X135563428Y-90000666D01*
X136095619Y-89855523D02*
X136095619Y-90339333D01*
X135079619Y-90339333D01*
X135079619Y-89855523D01*
%LPC*%
D16*
X90805000Y-71120000D03*
X93345000Y-71120000D03*
D17*
X88265000Y-71120000D03*
D16*
X95885000Y-71120000D03*
X98425000Y-71120000D03*
X100965000Y-71120000D03*
X103505000Y-71120000D03*
X106045000Y-71120000D03*
X108585000Y-71120000D03*
X111125000Y-71120000D03*
X113665000Y-71120000D03*
X116205000Y-71120000D03*
X118745000Y-71120000D03*
X121285000Y-71120000D03*
X123825000Y-71120000D03*
X126365000Y-71120000D03*
X126365000Y-106680000D03*
X123825000Y-106680000D03*
X121285000Y-106680000D03*
X118745000Y-106680000D03*
X116205000Y-106680000D03*
X113665000Y-106680000D03*
X111125000Y-106680000D03*
X108585000Y-106680000D03*
X106045000Y-106680000D03*
X103505000Y-106680000D03*
X100965000Y-106680000D03*
X98425000Y-106680000D03*
X95885000Y-106680000D03*
X93345000Y-106680000D03*
X90805000Y-106680000D03*
X88265000Y-106680000D03*
D18*
X89535000Y-76200000D03*
X89535000Y-101600000D03*
X130175000Y-106680000D03*
X130175000Y-71120000D03*
D19*
X146050000Y-79375000D03*
X151130000Y-79375000D03*
D20*
X97790000Y-80645000D03*
X97790000Y-85725000D03*
X113030000Y-85725000D03*
X113030000Y-80645000D03*
X121920000Y-80645000D03*
X121920000Y-85725000D03*
D21*
X152577800Y-88900000D03*
D22*
X149072600Y-88900000D03*
D23*
X143586200Y-88900000D03*
D24*
X150571200Y-84404200D03*
X150571200Y-93395800D03*
D25*
X146050000Y-100685600D03*
X151130000Y-100685600D03*
D26*
X102870000Y-83185000D03*
X107950000Y-83185000D03*
X132080000Y-83185000D03*
X127000000Y-83185000D03*
D20*
X137160000Y-80645000D03*
X137160000Y-85725000D03*
D25*
X102870000Y-93700600D03*
X107950000Y-93700600D03*
X132080000Y-93700600D03*
X127000000Y-93700600D03*
M02*
