M48
;DRILL file {KiCad no-vcs-found-6223534~58~ubuntu16.04.1} date Wed Mar  8 14:09:02 2017
;FORMAT={-:-/ absolute / inch / decimal}
FMAT,2
INCH,TZ
T1C0.025
T2C0.031
T3C0.038
T4C0.043
T5C0.055
T6C0.063
T7C0.106
T8C0.124
T9C0.130
%
G90
G05
M72
T1
X4.132Y-4.0822
X4.1939Y-3.8581
X4.2939Y-3.6345
X4.4092Y-3.6048
X4.5553Y-3.2563
X4.6274Y-3.5415
X4.7938Y-3.7333
X4.837Y-3.7336
X4.968Y-3.807
X5.012Y-3.8363
T2
X4.05Y-3.689
X4.25Y-3.689
X5.Y-3.689
X5.2Y-3.689
X5.75Y-3.964
X5.95Y-3.964
T3
X3.85Y-3.175
X3.85Y-3.375
X4.45Y-3.175
X4.45Y-3.375
X4.8Y-3.175
X4.8Y-3.375
X5.4Y-3.175
X5.4Y-3.375
X5.75Y-3.125
X5.95Y-3.125
T4
X3.475Y-2.8
X3.475Y-4.2
X3.575Y-2.8
X3.575Y-4.2
X3.675Y-2.8
X3.675Y-4.2
X3.775Y-2.8
X3.775Y-4.2
X3.875Y-2.8
X3.875Y-4.2
X3.975Y-2.8
X3.975Y-4.2
X4.075Y-2.8
X4.075Y-4.2
X4.175Y-2.8
X4.175Y-4.2
X4.275Y-2.8
X4.275Y-4.2
X4.375Y-2.8
X4.375Y-4.2
X4.475Y-2.8
X4.475Y-4.2
X4.575Y-2.8
X4.575Y-4.2
X4.675Y-2.8
X4.675Y-4.2
X4.775Y-2.8
X4.775Y-4.2
X4.875Y-2.8
X4.875Y-4.2
X4.975Y-2.8
X4.975Y-4.2
T5
X4.05Y-3.275
X4.25Y-3.275
X5.Y-3.275
X5.2Y-3.275
T6
X6.007Y-3.5
T7
X5.889Y-3.5
X5.928Y-3.323
X5.928Y-3.677
T8
X5.653Y-3.5
T9
X3.525Y-3.
X3.525Y-4.
X5.125Y-2.8
X5.125Y-4.2
T0
M30
