G04 #@! TF.GenerationSoftware,KiCad,Pcbnew,no-vcs-found-6223534~58~ubuntu16.04.1*
G04 #@! TF.CreationDate,2017-03-08T14:08:53-05:00*
G04 #@! TF.ProjectId,h_bridge_controller_3x2,685F6272696467655F636F6E74726F6C,1.0*
G04 #@! TF.FileFunction,Copper,L2,Bot,Signal*
G04 #@! TF.FilePolarity,Positive*
%FSLAX46Y46*%
G04 Gerber Fmt 4.6, Leading zero omitted, Abs format (unit mm)*
G04 Created by KiCad (PCBNEW no-vcs-found-6223534~58~ubuntu16.04.1) date Wed Mar  8 14:08:53 2017*
%MOMM*%
%LPD*%
G01*
G04 APERTURE LIST*
%ADD10C,0.100000*%
%ADD11C,0.228600*%
%ADD12O,1.854200X2.540000*%
%ADD13R,1.854200X2.540000*%
%ADD14C,3.556000*%
%ADD15R,2.540000X1.270000*%
%ADD16R,2.550000X2.770000*%
%ADD17R,3.800000X4.960000*%
%ADD18R,1.600000X1.440000*%
%ADD19R,1.750000X2.650000*%
%ADD20O,2.032000X1.524000*%
%ADD21O,1.524000X2.032000*%
%ADD22C,1.930400*%
%ADD23O,4.572000X3.556000*%
%ADD24O,4.064000X5.080000*%
%ADD25O,5.080000X3.556000*%
%ADD26R,1.397000X2.489200*%
%ADD27O,1.651000X2.159000*%
%ADD28C,2.540000*%
%ADD29R,1.700000X0.760000*%
%ADD30C,0.889000*%
%ADD31C,1.219200*%
%ADD32C,0.759800*%
%ADD33C,0.812800*%
%ADD34C,0.609600*%
%ADD35C,0.406400*%
%ADD36C,0.203200*%
G04 APERTURE END LIST*
D10*
D11*
X155575000Y-68580000D02*
X85725000Y-68580000D01*
X155575000Y-109220000D02*
X155575000Y-68580000D01*
X85725000Y-109220000D02*
X155575000Y-109220000D01*
X85725000Y-68580000D02*
X85725000Y-109220000D01*
D12*
X90805000Y-71120000D03*
X93345000Y-71120000D03*
D13*
X88265000Y-71120000D03*
D12*
X95885000Y-71120000D03*
X98425000Y-71120000D03*
X100965000Y-71120000D03*
X103505000Y-71120000D03*
X106045000Y-71120000D03*
X108585000Y-71120000D03*
X111125000Y-71120000D03*
X113665000Y-71120000D03*
X116205000Y-71120000D03*
X118745000Y-71120000D03*
X121285000Y-71120000D03*
X123825000Y-71120000D03*
X126365000Y-71120000D03*
X126365000Y-106680000D03*
X123825000Y-106680000D03*
X121285000Y-106680000D03*
X118745000Y-106680000D03*
X116205000Y-106680000D03*
X113665000Y-106680000D03*
X111125000Y-106680000D03*
X108585000Y-106680000D03*
X106045000Y-106680000D03*
X103505000Y-106680000D03*
X100965000Y-106680000D03*
X98425000Y-106680000D03*
X95885000Y-106680000D03*
X93345000Y-106680000D03*
X90805000Y-106680000D03*
X88265000Y-106680000D03*
D14*
X89535000Y-76200000D03*
X89535000Y-101600000D03*
X130175000Y-106680000D03*
X130175000Y-71120000D03*
D15*
X105410000Y-96139000D03*
X105410000Y-93091000D03*
X129540000Y-93091000D03*
X129540000Y-96139000D03*
D16*
X98425000Y-97835000D03*
X98425000Y-91395000D03*
D17*
X89535000Y-87880000D03*
D18*
X88470000Y-91680000D03*
X90600000Y-91680000D03*
D19*
X102870000Y-80255000D03*
X102870000Y-75955000D03*
X102870000Y-86115000D03*
X102870000Y-90415000D03*
X107950000Y-80255000D03*
X107950000Y-75955000D03*
X107950000Y-86115000D03*
X107950000Y-90415000D03*
X127000000Y-75955000D03*
X127000000Y-80255000D03*
X127000000Y-90415000D03*
X127000000Y-86115000D03*
X132080000Y-75955000D03*
X132080000Y-80255000D03*
X132080000Y-90415000D03*
X132080000Y-86115000D03*
D20*
X146050000Y-79375000D03*
X151130000Y-79375000D03*
D21*
X97790000Y-80645000D03*
X97790000Y-85725000D03*
X113030000Y-85725000D03*
X113030000Y-80645000D03*
X121920000Y-80645000D03*
X121920000Y-85725000D03*
D22*
X152577800Y-88900000D03*
D23*
X149072600Y-88900000D03*
D24*
X143586200Y-88900000D03*
D25*
X150571200Y-84404200D03*
X150571200Y-93395800D03*
D26*
X102908100Y-100965000D03*
X107911900Y-100965000D03*
X127038100Y-100965000D03*
X132041900Y-100965000D03*
D27*
X146050000Y-100685600D03*
X151130000Y-100685600D03*
D28*
X102870000Y-83185000D03*
X107950000Y-83185000D03*
X132080000Y-83185000D03*
X127000000Y-83185000D03*
D29*
X110595000Y-102235000D03*
X110595000Y-100965000D03*
X110595000Y-99695000D03*
X110595000Y-98425000D03*
X110595000Y-97155000D03*
X110595000Y-95885000D03*
X110595000Y-94615000D03*
X110595000Y-93345000D03*
X110595000Y-92075000D03*
X110595000Y-90805000D03*
X124355000Y-90805000D03*
X124355000Y-92075000D03*
X124355000Y-93345000D03*
X124355000Y-94615000D03*
X124355000Y-95885000D03*
X124355000Y-97155000D03*
X124355000Y-98425000D03*
X124355000Y-99695000D03*
X124355000Y-100965000D03*
X124355000Y-102235000D03*
D21*
X137160000Y-80645000D03*
X137160000Y-85725000D03*
D27*
X102870000Y-93700600D03*
X107950000Y-93700600D03*
X132080000Y-93700600D03*
X127000000Y-93700600D03*
D30*
X106524300Y-97995700D03*
X127306000Y-97441700D03*
X104953200Y-103687400D03*
X117537100Y-89954800D03*
X115705800Y-82709200D03*
X109063900Y-92316800D03*
X122859900Y-94833000D03*
X121763300Y-94825700D03*
X111994900Y-91561600D03*
X126186300Y-96698100D03*
D31*
X91715000Y-93263900D02*
X90600000Y-93263900D01*
X96286100Y-97835000D02*
X91715000Y-93263900D01*
X98425000Y-97835000D02*
X96286100Y-97835000D01*
X90600000Y-91680000D02*
X90600000Y-92471900D01*
X90600000Y-92471900D02*
X90600000Y-93263900D01*
X90133900Y-92005800D02*
X90133900Y-91680000D01*
X90600000Y-92471900D02*
X90133900Y-92005800D01*
X88470000Y-91680000D02*
X90133900Y-91680000D01*
X107950000Y-75955000D02*
X102870000Y-75955000D01*
X98425000Y-97835000D02*
X100563900Y-97835000D01*
X102259900Y-96139000D02*
X100563900Y-97835000D01*
X105410000Y-96139000D02*
X102259900Y-96139000D01*
X105410000Y-96139000D02*
X107543900Y-96139000D01*
X148723100Y-79375000D02*
X143586200Y-84511900D01*
X151130000Y-79375000D02*
X148723100Y-79375000D01*
X135029300Y-75955000D02*
X143586200Y-84511900D01*
X132080000Y-75955000D02*
X135029300Y-75955000D01*
X143586200Y-84511900D02*
X143586200Y-88900000D01*
X107797900Y-95885000D02*
X110595000Y-95885000D01*
X107543900Y-96139000D02*
X107797900Y-95885000D01*
X110595000Y-95885000D02*
X112308900Y-95885000D01*
X132080000Y-75955000D02*
X127000000Y-75955000D01*
X118546600Y-75955000D02*
X114720000Y-79781600D01*
X127000000Y-75955000D02*
X118546600Y-75955000D01*
X110893400Y-75955000D02*
X107950000Y-75955000D01*
X114720000Y-79781600D02*
X110893400Y-75955000D01*
X114720000Y-81559700D02*
X114720000Y-79781600D01*
X113602300Y-82677400D02*
X114720000Y-81559700D01*
X113461100Y-82677400D02*
X113602300Y-82677400D01*
X111372600Y-84765900D02*
X113461100Y-82677400D01*
X111372600Y-88122400D02*
X111372600Y-84765900D01*
X113828200Y-90578000D02*
X111372600Y-88122400D01*
X113828200Y-94365700D02*
X113828200Y-90578000D01*
X112308900Y-95885000D02*
X113828200Y-94365700D01*
X132041900Y-100965000D02*
X130606800Y-100965000D01*
X109951600Y-90805000D02*
X109561600Y-90415000D01*
X110595000Y-90805000D02*
X109951600Y-90805000D01*
X133756400Y-100685600D02*
X133477000Y-100965000D01*
X146050000Y-100685600D02*
X133756400Y-100685600D01*
X132041900Y-100965000D02*
X133477000Y-100965000D01*
X125066800Y-102946800D02*
X124355000Y-102235000D01*
X128625000Y-102946800D02*
X125066800Y-102946800D01*
X130606800Y-100965000D02*
X128625000Y-102946800D01*
X105410000Y-93091000D02*
X105410000Y-91719400D01*
X98425000Y-91395000D02*
X96413400Y-91395000D01*
X90805000Y-71120000D02*
X90805000Y-73126600D01*
X101258400Y-90573200D02*
X100436600Y-91395000D01*
X101258400Y-90415000D02*
X101258400Y-90573200D01*
X98425000Y-91395000D02*
X100436600Y-91395000D01*
X102870000Y-90415000D02*
X101258400Y-90415000D01*
X124355000Y-90805000D02*
X125941600Y-90805000D01*
X95162500Y-90144100D02*
X96413400Y-91395000D01*
X95162500Y-77484100D02*
X95162500Y-90144100D01*
X90805000Y-73126600D02*
X95162500Y-77484100D01*
X126331600Y-90415000D02*
X127000000Y-90415000D01*
X125941600Y-90805000D02*
X126331600Y-90415000D01*
X128611600Y-90791000D02*
X129540000Y-91719400D01*
X128611600Y-90415000D02*
X128611600Y-90791000D01*
X127000000Y-90415000D02*
X128611600Y-90415000D01*
X129540000Y-93091000D02*
X129540000Y-91719400D01*
X102908100Y-100965000D02*
X104343200Y-100965000D01*
X106299400Y-102921200D02*
X104343200Y-100965000D01*
X109908800Y-102921200D02*
X106299400Y-102921200D01*
X110595000Y-102235000D02*
X109908800Y-102921200D01*
X129540000Y-93091000D02*
X130543300Y-93091000D01*
X131157700Y-92476600D02*
X132080000Y-92476600D01*
X130543300Y-93091000D02*
X131157700Y-92476600D01*
X132080000Y-90415000D02*
X132080000Y-92476600D01*
X104343200Y-100176800D02*
X106524300Y-97995700D01*
X104343200Y-100965000D02*
X104343200Y-100176800D01*
X132080000Y-93700600D02*
X132080000Y-92476600D01*
X108259300Y-90415000D02*
X109561600Y-90415000D01*
X108259300Y-90415000D02*
X107950000Y-90415000D01*
X107950000Y-90415000D02*
X106338400Y-90415000D01*
X102870000Y-90415000D02*
X104481600Y-90415000D01*
X105410000Y-91255200D02*
X105410000Y-91719400D01*
X105498200Y-91255200D02*
X105410000Y-91255200D01*
X106338400Y-90415000D02*
X105498200Y-91255200D01*
X105321800Y-91255200D02*
X104481600Y-90415000D01*
X105410000Y-91255200D02*
X105321800Y-91255200D01*
X107416600Y-93167200D02*
X107416600Y-93091000D01*
X107950000Y-93700600D02*
X107416600Y-93167200D01*
X105410000Y-93091000D02*
X107416600Y-93091000D01*
D32*
X124125800Y-92304200D02*
X124355000Y-92075000D01*
X124057800Y-92304200D02*
X124125800Y-92304200D01*
D33*
X132002900Y-96139000D02*
X129540000Y-96139000D01*
X133615800Y-94526100D02*
X132002900Y-96139000D01*
X133615800Y-88751500D02*
X133615800Y-94526100D01*
X133293500Y-88429200D02*
X133615800Y-88751500D01*
X124487000Y-88429200D02*
X133293500Y-88429200D01*
X122844200Y-90072000D02*
X124487000Y-88429200D01*
X122844200Y-91458500D02*
X122844200Y-90072000D01*
X123689900Y-92304200D02*
X122844200Y-91458500D01*
X124057800Y-92304200D02*
X123689900Y-92304200D01*
X127609300Y-97138400D02*
X127306000Y-97441700D01*
X127609300Y-96139000D02*
X127609300Y-97138400D01*
X90805000Y-106680000D02*
X90805000Y-104749300D01*
X129540000Y-96139000D02*
X127609300Y-96139000D01*
X91866900Y-103687400D02*
X104953200Y-103687400D01*
X90805000Y-104749300D02*
X91866900Y-103687400D01*
X87038300Y-74277400D02*
X88265000Y-73050700D01*
X87038300Y-82242600D02*
X87038300Y-74277400D01*
X89535000Y-84739300D02*
X87038300Y-82242600D01*
X89535000Y-87880000D02*
X89535000Y-84739300D01*
X88265000Y-71120000D02*
X88265000Y-73050700D01*
D31*
X102870000Y-86115000D02*
X102870000Y-83185000D01*
X97790000Y-80645000D02*
X99415900Y-80645000D01*
X102870000Y-80645000D02*
X99415900Y-80645000D01*
X102870000Y-83185000D02*
X102870000Y-80645000D01*
X102870000Y-80645000D02*
X102870000Y-80255000D01*
X117537100Y-95101200D02*
X117537100Y-89954800D01*
X114004000Y-98634300D02*
X117537100Y-95101200D01*
X112518200Y-98634300D02*
X114004000Y-98634300D01*
X112308900Y-98425000D02*
X112518200Y-98634300D01*
X110595000Y-98425000D02*
X112308900Y-98425000D01*
D32*
X110595000Y-97155000D02*
X112079200Y-97155000D01*
D31*
X115705800Y-94848500D02*
X115705800Y-82709200D01*
X113399300Y-97155000D02*
X115705800Y-94848500D01*
D32*
X113399300Y-97155000D02*
X112079200Y-97155000D01*
D31*
X110078900Y-80645000D02*
X109688900Y-80255000D01*
X113030000Y-80645000D02*
X110078900Y-80645000D01*
X107950000Y-80255000D02*
X109688900Y-80255000D01*
X107950000Y-86115000D02*
X107950000Y-83185000D01*
X107950000Y-83185000D02*
X107950000Y-80255000D01*
X127000000Y-80255000D02*
X125261100Y-80255000D01*
D32*
X122870800Y-97143100D02*
X122870800Y-97155000D01*
X122640900Y-96913200D02*
X122870800Y-97143100D01*
X124355000Y-97155000D02*
X122870800Y-97155000D01*
D31*
X124871100Y-80645000D02*
X125261100Y-80255000D01*
X121920000Y-80645000D02*
X124871100Y-80645000D01*
X121920000Y-80645000D02*
X120294100Y-80645000D01*
X121915600Y-96913200D02*
X122640900Y-96913200D01*
X120294100Y-95291700D02*
X121915600Y-96913200D01*
X120294100Y-80645000D02*
X120294100Y-95291700D01*
X127000000Y-80255000D02*
X127000000Y-83185000D01*
X127000000Y-83185000D02*
X127000000Y-86115000D01*
X137160000Y-80645000D02*
X132080000Y-80645000D01*
X132080000Y-80645000D02*
X132080000Y-80255000D01*
X132080000Y-80645000D02*
X132080000Y-83185000D01*
X132080000Y-83185000D02*
X132080000Y-86115000D01*
X132080000Y-86115000D02*
X133818900Y-86115000D01*
X134912700Y-87208800D02*
X133818900Y-86115000D01*
X134912700Y-95039700D02*
X134912700Y-87208800D01*
X131202300Y-98750100D02*
X134912700Y-95039700D01*
X126764100Y-98750100D02*
X131202300Y-98750100D01*
X126439000Y-98425000D02*
X126764100Y-98750100D01*
X124355000Y-98425000D02*
X126439000Y-98425000D01*
D34*
X137160000Y-88100200D02*
X137160000Y-85725000D01*
X149745400Y-100685600D02*
X137160000Y-88100200D01*
X151130000Y-100685600D02*
X149745400Y-100685600D01*
D35*
X107911900Y-100965000D02*
X110595000Y-100965000D01*
X120027700Y-107543900D02*
X120027700Y-106680000D01*
X119285100Y-108286500D02*
X120027700Y-107543900D01*
X118263700Y-108286500D02*
X119285100Y-108286500D01*
X117475000Y-107497800D02*
X118263700Y-108286500D01*
X117475000Y-105844700D02*
X117475000Y-107497800D01*
X112595300Y-100965000D02*
X117475000Y-105844700D01*
X110595000Y-100965000D02*
X112595300Y-100965000D01*
X121285000Y-106680000D02*
X120027700Y-106680000D01*
X118745000Y-106680000D02*
X118745000Y-105079800D01*
X122859800Y-100965000D02*
X124355000Y-100965000D01*
X118745000Y-105079800D02*
X122859800Y-100965000D01*
X124355000Y-100965000D02*
X127038100Y-100965000D01*
X110595000Y-94615000D02*
X111775200Y-94615000D01*
X111125000Y-106680000D02*
X109867700Y-106680000D01*
X109867700Y-107543900D02*
X109867700Y-106680000D01*
X108978700Y-108432900D02*
X109867700Y-107543900D01*
X87888500Y-108432900D02*
X108978700Y-108432900D01*
X86164300Y-106708700D02*
X87888500Y-108432900D01*
X86164300Y-70308400D02*
X86164300Y-106708700D01*
X87080300Y-69392400D02*
X86164300Y-70308400D01*
X91213600Y-69392400D02*
X87080300Y-69392400D01*
X92075000Y-70253800D02*
X91213600Y-69392400D01*
X92075000Y-72148900D02*
X92075000Y-70253800D01*
X96570400Y-76644300D02*
X92075000Y-72148900D01*
X96570400Y-82513600D02*
X96570400Y-76644300D01*
X99417700Y-85360900D02*
X96570400Y-82513600D01*
X99417700Y-85519300D02*
X99417700Y-85360900D01*
X101796000Y-87897600D02*
X99417700Y-85519300D01*
X109392400Y-87897600D02*
X101796000Y-87897600D01*
X112752600Y-91257800D02*
X109392400Y-87897600D01*
X112752600Y-93637600D02*
X112752600Y-91257800D01*
X111775200Y-94615000D02*
X112752600Y-93637600D01*
X109305700Y-92075000D02*
X109063900Y-92316800D01*
X110595000Y-92075000D02*
X109305700Y-92075000D01*
X123174800Y-94518100D02*
X122859900Y-94833000D01*
X123174800Y-93345000D02*
X123174800Y-94518100D01*
X124355000Y-93345000D02*
X123174800Y-93345000D01*
X122773200Y-95835600D02*
X121763300Y-94825700D01*
X123125400Y-95835600D02*
X122773200Y-95835600D01*
X123174800Y-95885000D02*
X123125400Y-95835600D01*
X124355000Y-95885000D02*
X123174800Y-95885000D01*
X110595000Y-93345000D02*
X111775200Y-93345000D01*
X111775200Y-91781300D02*
X111994900Y-91561600D01*
X111775200Y-93345000D02*
X111775200Y-91781300D01*
X124355000Y-94615000D02*
X125535200Y-94615000D01*
X125535200Y-96047000D02*
X126186300Y-96698100D01*
X125535200Y-94615000D02*
X125535200Y-96047000D01*
D36*
G36*
X155155900Y-108800900D02*
X109324755Y-108800900D01*
X109337910Y-108792110D01*
X110226910Y-107903110D01*
X110233154Y-107893766D01*
X110253915Y-107924837D01*
X110653572Y-108191879D01*
X111125000Y-108285652D01*
X111596428Y-108191879D01*
X111996085Y-107924837D01*
X112263127Y-107525180D01*
X112356900Y-107053752D01*
X112356900Y-106306248D01*
X112433100Y-106306248D01*
X112433100Y-107053752D01*
X112526873Y-107525180D01*
X112793915Y-107924837D01*
X113193572Y-108191879D01*
X113665000Y-108285652D01*
X114136428Y-108191879D01*
X114536085Y-107924837D01*
X114803127Y-107525180D01*
X114896900Y-107053752D01*
X114896900Y-106306248D01*
X114803127Y-105834820D01*
X114536085Y-105435163D01*
X114136428Y-105168121D01*
X113665000Y-105074348D01*
X113193572Y-105168121D01*
X112793915Y-105435163D01*
X112526873Y-105834820D01*
X112433100Y-106306248D01*
X112356900Y-106306248D01*
X112263127Y-105834820D01*
X111996085Y-105435163D01*
X111596428Y-105168121D01*
X111125000Y-105074348D01*
X110653572Y-105168121D01*
X110253915Y-105435163D01*
X109986873Y-105834820D01*
X109919804Y-106172000D01*
X109867700Y-106172000D01*
X109793146Y-106186830D01*
X109723127Y-105834820D01*
X109456085Y-105435163D01*
X109056428Y-105168121D01*
X108585000Y-105074348D01*
X108113572Y-105168121D01*
X107713915Y-105435163D01*
X107446873Y-105834820D01*
X107353100Y-106306248D01*
X107353100Y-107053752D01*
X107446873Y-107525180D01*
X107713915Y-107924837D01*
X107714009Y-107924900D01*
X106915991Y-107924900D01*
X106916085Y-107924837D01*
X107183127Y-107525180D01*
X107276900Y-107053752D01*
X107276900Y-106306248D01*
X107183127Y-105834820D01*
X106916085Y-105435163D01*
X106516428Y-105168121D01*
X106045000Y-105074348D01*
X105573572Y-105168121D01*
X105173915Y-105435163D01*
X104906873Y-105834820D01*
X104813100Y-106306248D01*
X104813100Y-107053752D01*
X104906873Y-107525180D01*
X105173915Y-107924837D01*
X105174009Y-107924900D01*
X104375991Y-107924900D01*
X104376085Y-107924837D01*
X104643127Y-107525180D01*
X104736900Y-107053752D01*
X104736900Y-106306248D01*
X104643127Y-105834820D01*
X104376085Y-105435163D01*
X103976428Y-105168121D01*
X103505000Y-105074348D01*
X103033572Y-105168121D01*
X102633915Y-105435163D01*
X102366873Y-105834820D01*
X102273100Y-106306248D01*
X102273100Y-107053752D01*
X102366873Y-107525180D01*
X102633915Y-107924837D01*
X102634009Y-107924900D01*
X101835991Y-107924900D01*
X101836085Y-107924837D01*
X102103127Y-107525180D01*
X102196900Y-107053752D01*
X102196900Y-106306248D01*
X102103127Y-105834820D01*
X101836085Y-105435163D01*
X101436428Y-105168121D01*
X100965000Y-105074348D01*
X100493572Y-105168121D01*
X100093915Y-105435163D01*
X99826873Y-105834820D01*
X99733100Y-106306248D01*
X99733100Y-107053752D01*
X99826873Y-107525180D01*
X100093915Y-107924837D01*
X100094009Y-107924900D01*
X99295991Y-107924900D01*
X99296085Y-107924837D01*
X99563127Y-107525180D01*
X99656900Y-107053752D01*
X99656900Y-106306248D01*
X99563127Y-105834820D01*
X99296085Y-105435163D01*
X98896428Y-105168121D01*
X98425000Y-105074348D01*
X97953572Y-105168121D01*
X97553915Y-105435163D01*
X97286873Y-105834820D01*
X97193100Y-106306248D01*
X97193100Y-107053752D01*
X97286873Y-107525180D01*
X97553915Y-107924837D01*
X97554009Y-107924900D01*
X96755991Y-107924900D01*
X96756085Y-107924837D01*
X97023127Y-107525180D01*
X97116900Y-107053752D01*
X97116900Y-106306248D01*
X97023127Y-105834820D01*
X96756085Y-105435163D01*
X96356428Y-105168121D01*
X95885000Y-105074348D01*
X95413572Y-105168121D01*
X95013915Y-105435163D01*
X94746873Y-105834820D01*
X94653100Y-106306248D01*
X94653100Y-107053752D01*
X94746873Y-107525180D01*
X95013915Y-107924837D01*
X95014009Y-107924900D01*
X94215991Y-107924900D01*
X94216085Y-107924837D01*
X94483127Y-107525180D01*
X94576900Y-107053752D01*
X94576900Y-106306248D01*
X94483127Y-105834820D01*
X94216085Y-105435163D01*
X93816428Y-105168121D01*
X93345000Y-105074348D01*
X92873572Y-105168121D01*
X92473915Y-105435163D01*
X92206873Y-105834820D01*
X92113100Y-106306248D01*
X92113100Y-107053752D01*
X92206873Y-107525180D01*
X92473915Y-107924837D01*
X92474009Y-107924900D01*
X91736630Y-107924900D01*
X91990060Y-107545615D01*
X92087700Y-107054747D01*
X92087700Y-106305253D01*
X91990060Y-105814385D01*
X91712006Y-105398247D01*
X91567000Y-105301357D01*
X91567000Y-105064930D01*
X92182531Y-104449400D01*
X104701932Y-104449400D01*
X104793352Y-104487361D01*
X105111652Y-104487639D01*
X105405828Y-104366087D01*
X105631096Y-104141212D01*
X105753161Y-103847248D01*
X105753346Y-103634947D01*
X105949475Y-103765996D01*
X106299400Y-103835600D01*
X109908800Y-103835600D01*
X110258726Y-103765995D01*
X110555378Y-103567778D01*
X111197386Y-102925771D01*
X111445000Y-102925771D01*
X111563927Y-102902115D01*
X111664748Y-102834748D01*
X111732115Y-102733927D01*
X111755771Y-102615000D01*
X111755771Y-101855000D01*
X111732115Y-101736073D01*
X111664748Y-101635252D01*
X111611990Y-101600000D01*
X111664748Y-101564748D01*
X111726053Y-101473000D01*
X112384880Y-101473000D01*
X116022525Y-105110645D01*
X115733572Y-105168121D01*
X115333915Y-105435163D01*
X115066873Y-105834820D01*
X114973100Y-106306248D01*
X114973100Y-107053752D01*
X115066873Y-107525180D01*
X115333915Y-107924837D01*
X115733572Y-108191879D01*
X116205000Y-108285652D01*
X116676428Y-108191879D01*
X117076085Y-107924837D01*
X117119156Y-107860376D01*
X117904490Y-108645710D01*
X118069296Y-108755831D01*
X118101550Y-108762246D01*
X118263700Y-108794500D01*
X119285100Y-108794500D01*
X119479503Y-108755831D01*
X119644310Y-108645710D01*
X120386910Y-107903110D01*
X120393154Y-107893766D01*
X120413915Y-107924837D01*
X120813572Y-108191879D01*
X121285000Y-108285652D01*
X121756428Y-108191879D01*
X122156085Y-107924837D01*
X122423127Y-107525180D01*
X122516900Y-107053752D01*
X122516900Y-106306248D01*
X122593100Y-106306248D01*
X122593100Y-107053752D01*
X122686873Y-107525180D01*
X122953915Y-107924837D01*
X123353572Y-108191879D01*
X123825000Y-108285652D01*
X124296428Y-108191879D01*
X124696085Y-107924837D01*
X124963127Y-107525180D01*
X125056900Y-107053752D01*
X125056900Y-106306248D01*
X125133100Y-106306248D01*
X125133100Y-107053752D01*
X125226873Y-107525180D01*
X125493915Y-107924837D01*
X125893572Y-108191879D01*
X126365000Y-108285652D01*
X126836428Y-108191879D01*
X127236085Y-107924837D01*
X127503127Y-107525180D01*
X127589197Y-107092477D01*
X128091840Y-107092477D01*
X128408259Y-107858270D01*
X128993648Y-108444682D01*
X129758888Y-108762437D01*
X130587477Y-108763160D01*
X131353270Y-108446741D01*
X131939682Y-107861352D01*
X132257437Y-107096112D01*
X132258160Y-106267523D01*
X131941741Y-105501730D01*
X131356352Y-104915318D01*
X130591112Y-104597563D01*
X129762523Y-104596840D01*
X128996730Y-104913259D01*
X128410318Y-105498648D01*
X128092563Y-106263888D01*
X128091840Y-107092477D01*
X127589197Y-107092477D01*
X127596900Y-107053752D01*
X127596900Y-106306248D01*
X127503127Y-105834820D01*
X127236085Y-105435163D01*
X126836428Y-105168121D01*
X126365000Y-105074348D01*
X125893572Y-105168121D01*
X125493915Y-105435163D01*
X125226873Y-105834820D01*
X125133100Y-106306248D01*
X125056900Y-106306248D01*
X124963127Y-105834820D01*
X124696085Y-105435163D01*
X124296428Y-105168121D01*
X123825000Y-105074348D01*
X123353572Y-105168121D01*
X122953915Y-105435163D01*
X122686873Y-105834820D01*
X122593100Y-106306248D01*
X122516900Y-106306248D01*
X122423127Y-105834820D01*
X122156085Y-105435163D01*
X121756428Y-105168121D01*
X121285000Y-105074348D01*
X120813572Y-105168121D01*
X120413915Y-105435163D01*
X120146873Y-105834820D01*
X120079804Y-106172000D01*
X120027700Y-106172000D01*
X119953146Y-106186830D01*
X119883127Y-105834820D01*
X119616085Y-105435163D01*
X119311544Y-105231676D01*
X123070220Y-101473000D01*
X123223947Y-101473000D01*
X123285252Y-101564748D01*
X123338010Y-101600000D01*
X123285252Y-101635252D01*
X123217885Y-101736073D01*
X123194229Y-101855000D01*
X123194229Y-102615000D01*
X123217885Y-102733927D01*
X123285252Y-102834748D01*
X123386073Y-102902115D01*
X123505000Y-102925771D01*
X123752615Y-102925771D01*
X124420221Y-103593378D01*
X124568548Y-103692486D01*
X124716874Y-103791595D01*
X125066800Y-103861200D01*
X128625000Y-103861200D01*
X128974926Y-103791595D01*
X129271578Y-103593378D01*
X130985557Y-101879400D01*
X131032629Y-101879400D01*
X131032629Y-102209600D01*
X131056285Y-102328527D01*
X131123652Y-102429348D01*
X131224473Y-102496715D01*
X131343400Y-102520371D01*
X132740400Y-102520371D01*
X132859327Y-102496715D01*
X132960148Y-102429348D01*
X133027515Y-102328527D01*
X133051171Y-102209600D01*
X133051171Y-101879400D01*
X133477000Y-101879400D01*
X133826926Y-101809795D01*
X134123578Y-101611578D01*
X134135156Y-101600000D01*
X145139864Y-101600000D01*
X145250757Y-101765963D01*
X145617453Y-102010981D01*
X146050000Y-102097020D01*
X146482547Y-102010981D01*
X146849243Y-101765963D01*
X147094261Y-101399267D01*
X147180300Y-100966720D01*
X147180300Y-100404480D01*
X147094261Y-99971933D01*
X146849243Y-99605237D01*
X146482547Y-99360219D01*
X146050000Y-99274180D01*
X145617453Y-99360219D01*
X145250757Y-99605237D01*
X145139864Y-99771200D01*
X133756400Y-99771200D01*
X133406474Y-99840805D01*
X133258148Y-99939913D01*
X133109821Y-100039022D01*
X133098243Y-100050600D01*
X133051171Y-100050600D01*
X133051171Y-99720400D01*
X133027515Y-99601473D01*
X132960148Y-99500652D01*
X132859327Y-99433285D01*
X132740400Y-99409629D01*
X131907769Y-99409629D01*
X135595199Y-95722199D01*
X135804429Y-95409066D01*
X135822134Y-95320056D01*
X135877900Y-95039700D01*
X135877900Y-87208800D01*
X135804429Y-86839434D01*
X135775497Y-86796134D01*
X135595200Y-86526301D01*
X134513028Y-85444129D01*
X136042400Y-85444129D01*
X136042400Y-86005871D01*
X136127472Y-86433558D01*
X136369737Y-86796134D01*
X136499600Y-86882905D01*
X136499600Y-88100200D01*
X136549870Y-88352924D01*
X136693027Y-88567173D01*
X149278426Y-101152573D01*
X149492676Y-101295730D01*
X149745400Y-101346000D01*
X150024146Y-101346000D01*
X150038806Y-101419702D01*
X150294836Y-101802879D01*
X150678013Y-102058909D01*
X151130000Y-102148815D01*
X151581987Y-102058909D01*
X151965164Y-101802879D01*
X152221194Y-101419702D01*
X152311100Y-100967715D01*
X152311100Y-100403485D01*
X152221194Y-99951498D01*
X151965164Y-99568321D01*
X151581987Y-99312291D01*
X151130000Y-99222385D01*
X150678013Y-99312291D01*
X150294836Y-99568321D01*
X150038806Y-99951498D01*
X150024146Y-100025200D01*
X150018947Y-100025200D01*
X143389547Y-93395800D01*
X147670667Y-93395800D01*
X147829211Y-94192853D01*
X148280705Y-94868562D01*
X148956414Y-95320056D01*
X149753467Y-95478600D01*
X151388933Y-95478600D01*
X152185986Y-95320056D01*
X152861695Y-94868562D01*
X153313189Y-94192853D01*
X153471733Y-93395800D01*
X153313189Y-92598747D01*
X152861695Y-91923038D01*
X152185986Y-91471544D01*
X151388933Y-91313000D01*
X149753467Y-91313000D01*
X148956414Y-91471544D01*
X148280705Y-91923038D01*
X147829211Y-92598747D01*
X147670667Y-93395800D01*
X143389547Y-93395800D01*
X139046147Y-89052400D01*
X140944600Y-89052400D01*
X140944600Y-89560400D01*
X141204001Y-90559696D01*
X141826070Y-91383656D01*
X142716103Y-91906841D01*
X143023127Y-91988891D01*
X143433800Y-91892530D01*
X143433800Y-89052400D01*
X143738600Y-89052400D01*
X143738600Y-91892530D01*
X144149273Y-91988891D01*
X144456297Y-91906841D01*
X145346330Y-91383656D01*
X145968399Y-90559696D01*
X146227800Y-89560400D01*
X146227800Y-89052400D01*
X143738600Y-89052400D01*
X143433800Y-89052400D01*
X140944600Y-89052400D01*
X139046147Y-89052400D01*
X138893747Y-88900000D01*
X146431043Y-88900000D01*
X146589587Y-89697053D01*
X147041081Y-90372762D01*
X147716790Y-90824256D01*
X148513843Y-90982800D01*
X149631357Y-90982800D01*
X150428410Y-90824256D01*
X151104119Y-90372762D01*
X151555613Y-89697053D01*
X151559495Y-89677538D01*
X151857463Y-89976026D01*
X152324073Y-90169779D01*
X152829310Y-90170220D01*
X153296258Y-89977282D01*
X153653826Y-89620337D01*
X153847579Y-89153727D01*
X153848020Y-88648490D01*
X153655082Y-88181542D01*
X153298137Y-87823974D01*
X152831527Y-87630221D01*
X152326290Y-87629780D01*
X151859342Y-87822718D01*
X151559425Y-88122112D01*
X151555613Y-88102947D01*
X151104119Y-87427238D01*
X150428410Y-86975744D01*
X149631357Y-86817200D01*
X148513843Y-86817200D01*
X147716790Y-86975744D01*
X147041081Y-87427238D01*
X146589587Y-88102947D01*
X146431043Y-88900000D01*
X138893747Y-88900000D01*
X138233347Y-88239600D01*
X140944600Y-88239600D01*
X140944600Y-88747600D01*
X143433800Y-88747600D01*
X143433800Y-85907470D01*
X143738600Y-85907470D01*
X143738600Y-88747600D01*
X146227800Y-88747600D01*
X146227800Y-88239600D01*
X145968399Y-87240304D01*
X145346330Y-86416344D01*
X144456297Y-85893159D01*
X144149273Y-85811109D01*
X143738600Y-85907470D01*
X143433800Y-85907470D01*
X143023127Y-85811109D01*
X142716103Y-85893159D01*
X141826070Y-86416344D01*
X141204001Y-87240304D01*
X140944600Y-88239600D01*
X138233347Y-88239600D01*
X137820400Y-87826654D01*
X137820400Y-86882905D01*
X137950263Y-86796134D01*
X138192528Y-86433558D01*
X138277600Y-86005871D01*
X138277600Y-85444129D01*
X138192528Y-85016442D01*
X137950263Y-84653866D01*
X137587687Y-84411601D01*
X137550480Y-84404200D01*
X147670667Y-84404200D01*
X147829211Y-85201253D01*
X148280705Y-85876962D01*
X148956414Y-86328456D01*
X149753467Y-86487000D01*
X151388933Y-86487000D01*
X152185986Y-86328456D01*
X152861695Y-85876962D01*
X153313189Y-85201253D01*
X153471733Y-84404200D01*
X153313189Y-83607147D01*
X152861695Y-82931438D01*
X152185986Y-82479944D01*
X151388933Y-82321400D01*
X149753467Y-82321400D01*
X148956414Y-82479944D01*
X148280705Y-82931438D01*
X147829211Y-83607147D01*
X147670667Y-84404200D01*
X137550480Y-84404200D01*
X137160000Y-84326529D01*
X136732313Y-84411601D01*
X136369737Y-84653866D01*
X136127472Y-85016442D01*
X136042400Y-85444129D01*
X134513028Y-85444129D01*
X134501399Y-85432501D01*
X134188266Y-85223271D01*
X133818900Y-85149800D01*
X133317566Y-85149800D01*
X133317566Y-84790000D01*
X133289967Y-84651252D01*
X133211373Y-84533627D01*
X133102706Y-84461019D01*
X133457313Y-84107030D01*
X133705317Y-83509770D01*
X133705881Y-82863067D01*
X133458920Y-82265375D01*
X133102971Y-81908804D01*
X133211373Y-81836373D01*
X133289967Y-81718748D01*
X133311559Y-81610200D01*
X136298954Y-81610200D01*
X136369737Y-81716134D01*
X136732313Y-81958399D01*
X137160000Y-82043471D01*
X137587687Y-81958399D01*
X137950263Y-81716134D01*
X138192528Y-81353558D01*
X138277600Y-80925871D01*
X138277600Y-80364129D01*
X138192528Y-79936442D01*
X137950263Y-79573866D01*
X137652639Y-79375000D01*
X144651529Y-79375000D01*
X144736601Y-79802687D01*
X144978866Y-80165263D01*
X145341442Y-80407528D01*
X145769129Y-80492600D01*
X146330871Y-80492600D01*
X146758558Y-80407528D01*
X147121134Y-80165263D01*
X147363399Y-79802687D01*
X147376114Y-79738761D01*
X149553516Y-79738761D01*
X149560546Y-79795299D01*
X149821520Y-80266708D01*
X150243030Y-80602363D01*
X150760904Y-80751163D01*
X150977600Y-80599825D01*
X150977600Y-79527400D01*
X151282400Y-79527400D01*
X151282400Y-80599825D01*
X151499096Y-80751163D01*
X152016970Y-80602363D01*
X152438480Y-80266708D01*
X152699454Y-79795299D01*
X152706484Y-79738761D01*
X152593637Y-79527400D01*
X151282400Y-79527400D01*
X150977600Y-79527400D01*
X149666363Y-79527400D01*
X149553516Y-79738761D01*
X147376114Y-79738761D01*
X147448471Y-79375000D01*
X147376115Y-79011239D01*
X149553516Y-79011239D01*
X149666363Y-79222600D01*
X150977600Y-79222600D01*
X150977600Y-78150175D01*
X151282400Y-78150175D01*
X151282400Y-79222600D01*
X152593637Y-79222600D01*
X152706484Y-79011239D01*
X152699454Y-78954701D01*
X152438480Y-78483292D01*
X152016970Y-78147637D01*
X151499096Y-77998837D01*
X151282400Y-78150175D01*
X150977600Y-78150175D01*
X150760904Y-77998837D01*
X150243030Y-78147637D01*
X149821520Y-78483292D01*
X149560546Y-78954701D01*
X149553516Y-79011239D01*
X147376115Y-79011239D01*
X147363399Y-78947313D01*
X147121134Y-78584737D01*
X146758558Y-78342472D01*
X146330871Y-78257400D01*
X145769129Y-78257400D01*
X145341442Y-78342472D01*
X144978866Y-78584737D01*
X144736601Y-78947313D01*
X144651529Y-79375000D01*
X137652639Y-79375000D01*
X137587687Y-79331601D01*
X137160000Y-79246529D01*
X136732313Y-79331601D01*
X136369737Y-79573866D01*
X136298954Y-79679800D01*
X133317566Y-79679800D01*
X133317566Y-78930000D01*
X133289967Y-78791252D01*
X133211373Y-78673627D01*
X133093748Y-78595033D01*
X132955000Y-78567434D01*
X131205000Y-78567434D01*
X131066252Y-78595033D01*
X130948627Y-78673627D01*
X130870033Y-78791252D01*
X130842434Y-78930000D01*
X130842434Y-81580000D01*
X130870033Y-81718748D01*
X130948627Y-81836373D01*
X131057294Y-81908981D01*
X130702687Y-82262970D01*
X130454683Y-82860230D01*
X130454119Y-83506933D01*
X130701080Y-84104625D01*
X131057029Y-84461196D01*
X130948627Y-84533627D01*
X130870033Y-84651252D01*
X130842434Y-84790000D01*
X130842434Y-87440000D01*
X130870033Y-87578748D01*
X130929134Y-87667200D01*
X128150866Y-87667200D01*
X128209967Y-87578748D01*
X128237566Y-87440000D01*
X128237566Y-84790000D01*
X128209967Y-84651252D01*
X128131373Y-84533627D01*
X128022706Y-84461019D01*
X128377313Y-84107030D01*
X128625317Y-83509770D01*
X128625881Y-82863067D01*
X128378920Y-82265375D01*
X128022971Y-81908804D01*
X128131373Y-81836373D01*
X128209967Y-81718748D01*
X128237566Y-81580000D01*
X128237566Y-78930000D01*
X128209967Y-78791252D01*
X128131373Y-78673627D01*
X128013748Y-78595033D01*
X127875000Y-78567434D01*
X126125000Y-78567434D01*
X125986252Y-78595033D01*
X125868627Y-78673627D01*
X125790033Y-78791252D01*
X125762434Y-78930000D01*
X125762434Y-79289800D01*
X125261100Y-79289800D01*
X124953015Y-79351082D01*
X124891733Y-79363271D01*
X124578600Y-79572501D01*
X124471301Y-79679800D01*
X122781046Y-79679800D01*
X122710263Y-79573866D01*
X122347687Y-79331601D01*
X121920000Y-79246529D01*
X121492313Y-79331601D01*
X121129737Y-79573866D01*
X121058954Y-79679800D01*
X120294100Y-79679800D01*
X119924734Y-79753271D01*
X119611601Y-79962501D01*
X119402371Y-80275634D01*
X119328900Y-80645000D01*
X119328900Y-95291700D01*
X119390261Y-95600185D01*
X119402371Y-95661066D01*
X119611601Y-95974199D01*
X121233100Y-97595699D01*
X121546233Y-97804929D01*
X121607515Y-97817118D01*
X121915600Y-97878400D01*
X122640900Y-97878400D01*
X122725435Y-97861585D01*
X122870800Y-97890500D01*
X123241654Y-97890500D01*
X123217885Y-97926073D01*
X123194229Y-98045000D01*
X123194229Y-98805000D01*
X123217885Y-98923927D01*
X123285252Y-99024748D01*
X123338010Y-99060000D01*
X123285252Y-99095252D01*
X123217885Y-99196073D01*
X123194229Y-99315000D01*
X123194229Y-100075000D01*
X123217885Y-100193927D01*
X123285252Y-100294748D01*
X123338010Y-100330000D01*
X123285252Y-100365252D01*
X123223947Y-100457000D01*
X122859800Y-100457000D01*
X122665397Y-100495669D01*
X122500590Y-100605790D01*
X118385790Y-104720590D01*
X118275669Y-104885397D01*
X118237000Y-105079800D01*
X118237000Y-105192558D01*
X117873915Y-105435163D01*
X117837249Y-105490038D01*
X117834210Y-105485490D01*
X112954510Y-100605790D01*
X112789703Y-100495669D01*
X112595300Y-100457000D01*
X111726053Y-100457000D01*
X111664748Y-100365252D01*
X111611990Y-100330000D01*
X111664748Y-100294748D01*
X111732115Y-100193927D01*
X111755771Y-100075000D01*
X111755771Y-99390200D01*
X111945552Y-99390200D01*
X112110855Y-99500652D01*
X112148834Y-99526029D01*
X112518200Y-99599500D01*
X114004000Y-99599500D01*
X114373366Y-99526029D01*
X114686499Y-99316799D01*
X118219600Y-95783699D01*
X118428829Y-95470566D01*
X118435903Y-95435004D01*
X118502300Y-95101200D01*
X118502300Y-89954800D01*
X118428829Y-89585434D01*
X118219599Y-89272301D01*
X117906466Y-89063071D01*
X117537100Y-88989600D01*
X117167734Y-89063071D01*
X116854601Y-89272301D01*
X116671000Y-89547078D01*
X116671000Y-82709200D01*
X116597529Y-82339834D01*
X116388299Y-82026701D01*
X116075166Y-81817471D01*
X115705800Y-81744000D01*
X115336434Y-81817471D01*
X115023301Y-82026701D01*
X114814071Y-82339834D01*
X114740600Y-82709200D01*
X114740600Y-94448701D01*
X112769802Y-96419500D01*
X112040830Y-96419500D01*
X112054600Y-96386257D01*
X112054600Y-96189800D01*
X111902200Y-96037400D01*
X110747400Y-96037400D01*
X110747400Y-96057400D01*
X110442600Y-96057400D01*
X110442600Y-96037400D01*
X109287800Y-96037400D01*
X109135400Y-96189800D01*
X109135400Y-96386257D01*
X109228206Y-96610311D01*
X109399689Y-96781794D01*
X109434229Y-96796101D01*
X109434229Y-97535000D01*
X109457885Y-97653927D01*
X109525252Y-97754748D01*
X109578010Y-97790000D01*
X109525252Y-97825252D01*
X109457885Y-97926073D01*
X109434229Y-98045000D01*
X109434229Y-98805000D01*
X109457885Y-98923927D01*
X109525252Y-99024748D01*
X109578010Y-99060000D01*
X109525252Y-99095252D01*
X109457885Y-99196073D01*
X109434229Y-99315000D01*
X109434229Y-100075000D01*
X109457885Y-100193927D01*
X109525252Y-100294748D01*
X109578010Y-100330000D01*
X109525252Y-100365252D01*
X109463947Y-100457000D01*
X108921171Y-100457000D01*
X108921171Y-99720400D01*
X108897515Y-99601473D01*
X108830148Y-99500652D01*
X108729327Y-99433285D01*
X108610400Y-99409629D01*
X107213400Y-99409629D01*
X107094473Y-99433285D01*
X106993652Y-99500652D01*
X106926285Y-99601473D01*
X106902629Y-99720400D01*
X106902629Y-102006800D01*
X106678157Y-102006800D01*
X105257600Y-100586244D01*
X105257600Y-100555556D01*
X107170878Y-98642279D01*
X107369095Y-98345625D01*
X107438699Y-97995700D01*
X107369095Y-97645775D01*
X107170878Y-97349122D01*
X107048652Y-97267453D01*
X107196794Y-97119311D01*
X107289600Y-96895257D01*
X107289600Y-96443800D01*
X107137200Y-96291400D01*
X105562400Y-96291400D01*
X105562400Y-97231200D01*
X105714800Y-97383600D01*
X105843243Y-97383600D01*
X103766309Y-99460535D01*
X103725527Y-99433285D01*
X103606600Y-99409629D01*
X102209600Y-99409629D01*
X102090673Y-99433285D01*
X101989852Y-99500652D01*
X101922485Y-99601473D01*
X101898829Y-99720400D01*
X101898829Y-102209600D01*
X101922485Y-102328527D01*
X101989852Y-102429348D01*
X102090673Y-102496715D01*
X102209600Y-102520371D01*
X103606600Y-102520371D01*
X103725527Y-102496715D01*
X103826348Y-102429348D01*
X103893715Y-102328527D01*
X103917371Y-102209600D01*
X103917371Y-101879400D01*
X103964444Y-101879400D01*
X104972359Y-102887316D01*
X104794748Y-102887161D01*
X104702203Y-102925400D01*
X91866900Y-102925400D01*
X91575295Y-102983404D01*
X91328084Y-103148585D01*
X90266185Y-104210485D01*
X90101004Y-104457695D01*
X90043000Y-104749300D01*
X90043000Y-105301357D01*
X89897994Y-105398247D01*
X89619940Y-105814385D01*
X89522300Y-106305253D01*
X89522300Y-107054747D01*
X89619940Y-107545615D01*
X89873370Y-107924900D01*
X89135991Y-107924900D01*
X89136085Y-107924837D01*
X89403127Y-107525180D01*
X89496900Y-107053752D01*
X89496900Y-106306248D01*
X89403127Y-105834820D01*
X89136085Y-105435163D01*
X88736428Y-105168121D01*
X88265000Y-105074348D01*
X87793572Y-105168121D01*
X87393915Y-105435163D01*
X87126873Y-105834820D01*
X87033100Y-106306248D01*
X87033100Y-106859080D01*
X86672300Y-106498280D01*
X86672300Y-102012477D01*
X87451840Y-102012477D01*
X87768259Y-102778270D01*
X88353648Y-103364682D01*
X89118888Y-103682437D01*
X89947477Y-103683160D01*
X90713270Y-103366741D01*
X91299682Y-102781352D01*
X91617437Y-102016112D01*
X91618160Y-101187523D01*
X91301741Y-100421730D01*
X90716352Y-99835318D01*
X89951112Y-99517563D01*
X89122523Y-99516840D01*
X88356730Y-99833259D01*
X87770318Y-100418648D01*
X87452563Y-101183888D01*
X87451840Y-102012477D01*
X86672300Y-102012477D01*
X86672300Y-98139800D01*
X96540400Y-98139800D01*
X96540400Y-99341257D01*
X96633206Y-99565311D01*
X96804689Y-99736794D01*
X97028743Y-99829600D01*
X98120200Y-99829600D01*
X98272600Y-99677200D01*
X98272600Y-97987400D01*
X98577400Y-97987400D01*
X98577400Y-99677200D01*
X98729800Y-99829600D01*
X99821257Y-99829600D01*
X100045311Y-99736794D01*
X100216794Y-99565311D01*
X100309600Y-99341257D01*
X100309600Y-98139800D01*
X100157200Y-97987400D01*
X98577400Y-97987400D01*
X98272600Y-97987400D01*
X96692800Y-97987400D01*
X96540400Y-98139800D01*
X86672300Y-98139800D01*
X86672300Y-96328743D01*
X96540400Y-96328743D01*
X96540400Y-97530200D01*
X96692800Y-97682600D01*
X98272600Y-97682600D01*
X98272600Y-95992800D01*
X98577400Y-95992800D01*
X98577400Y-97682600D01*
X100157200Y-97682600D01*
X100309600Y-97530200D01*
X100309600Y-96443800D01*
X103530400Y-96443800D01*
X103530400Y-96895257D01*
X103623206Y-97119311D01*
X103794689Y-97290794D01*
X104018743Y-97383600D01*
X105105200Y-97383600D01*
X105257600Y-97231200D01*
X105257600Y-96291400D01*
X103682800Y-96291400D01*
X103530400Y-96443800D01*
X100309600Y-96443800D01*
X100309600Y-96328743D01*
X100216794Y-96104689D01*
X100045311Y-95933206D01*
X99821257Y-95840400D01*
X98729800Y-95840400D01*
X98577400Y-95992800D01*
X98272600Y-95992800D01*
X98120200Y-95840400D01*
X97028743Y-95840400D01*
X96804689Y-95933206D01*
X96633206Y-96104689D01*
X96540400Y-96328743D01*
X86672300Y-96328743D01*
X86672300Y-95382743D01*
X103530400Y-95382743D01*
X103530400Y-95834200D01*
X103682800Y-95986600D01*
X105257600Y-95986600D01*
X105257600Y-95046800D01*
X105562400Y-95046800D01*
X105562400Y-95986600D01*
X107137200Y-95986600D01*
X107289600Y-95834200D01*
X107289600Y-95382743D01*
X107196794Y-95158689D01*
X107025311Y-94987206D01*
X106801257Y-94894400D01*
X105714800Y-94894400D01*
X105562400Y-95046800D01*
X105257600Y-95046800D01*
X105105200Y-94894400D01*
X104018743Y-94894400D01*
X103794689Y-94987206D01*
X103623206Y-95158689D01*
X103530400Y-95382743D01*
X86672300Y-95382743D01*
X86672300Y-91984800D01*
X87060400Y-91984800D01*
X87060400Y-92521257D01*
X87153206Y-92745311D01*
X87324689Y-92916794D01*
X87548743Y-93009600D01*
X88165200Y-93009600D01*
X88317600Y-92857200D01*
X88317600Y-91832400D01*
X88622400Y-91832400D01*
X88622400Y-92857200D01*
X88774800Y-93009600D01*
X89391257Y-93009600D01*
X89535000Y-92950060D01*
X89678743Y-93009600D01*
X90295200Y-93009600D01*
X90447600Y-92857200D01*
X90447600Y-91832400D01*
X90752400Y-91832400D01*
X90752400Y-92857200D01*
X90904800Y-93009600D01*
X91521257Y-93009600D01*
X91745311Y-92916794D01*
X91916794Y-92745311D01*
X92009600Y-92521257D01*
X92009600Y-91984800D01*
X91857200Y-91832400D01*
X90752400Y-91832400D01*
X90447600Y-91832400D01*
X88622400Y-91832400D01*
X88317600Y-91832400D01*
X87212800Y-91832400D01*
X87060400Y-91984800D01*
X86672300Y-91984800D01*
X86672300Y-82954230D01*
X88773000Y-85054930D01*
X88773000Y-85089229D01*
X87635000Y-85089229D01*
X87516073Y-85112885D01*
X87415252Y-85180252D01*
X87347885Y-85281073D01*
X87324229Y-85400000D01*
X87324229Y-90360000D01*
X87339555Y-90437048D01*
X87324689Y-90443206D01*
X87153206Y-90614689D01*
X87060400Y-90838743D01*
X87060400Y-91375200D01*
X87212800Y-91527600D01*
X88317600Y-91527600D01*
X88317600Y-91507600D01*
X88622400Y-91507600D01*
X88622400Y-91527600D01*
X90447600Y-91527600D01*
X90447600Y-91507600D01*
X90752400Y-91507600D01*
X90752400Y-91527600D01*
X91857200Y-91527600D01*
X92009600Y-91375200D01*
X92009600Y-90838743D01*
X91916794Y-90614689D01*
X91745311Y-90443206D01*
X91730445Y-90437048D01*
X91745771Y-90360000D01*
X91745771Y-85400000D01*
X91722115Y-85281073D01*
X91654748Y-85180252D01*
X91553927Y-85112885D01*
X91435000Y-85089229D01*
X90297000Y-85089229D01*
X90297000Y-84739300D01*
X90238996Y-84447695D01*
X90073815Y-84200485D01*
X87800300Y-81926970D01*
X87800300Y-77410367D01*
X88353648Y-77964682D01*
X89118888Y-78282437D01*
X89947477Y-78283160D01*
X90713270Y-77966741D01*
X91299682Y-77381352D01*
X91617437Y-76616112D01*
X91618160Y-75787523D01*
X91301741Y-75021730D01*
X90716352Y-74435318D01*
X89951112Y-74117563D01*
X89122523Y-74116840D01*
X88356730Y-74433259D01*
X87800300Y-74988718D01*
X87800300Y-74593030D01*
X88803816Y-73589515D01*
X88902834Y-73441323D01*
X88968996Y-73342305D01*
X89027000Y-73050700D01*
X89027000Y-72752566D01*
X89192100Y-72752566D01*
X89330848Y-72724967D01*
X89448473Y-72646373D01*
X89527067Y-72528748D01*
X89554666Y-72390000D01*
X89554666Y-69900400D01*
X89917052Y-69900400D01*
X89666873Y-70274820D01*
X89573100Y-70746248D01*
X89573100Y-71493752D01*
X89666873Y-71965180D01*
X89890600Y-72300011D01*
X89890600Y-73126600D01*
X89960205Y-73476526D01*
X89986180Y-73515400D01*
X90158422Y-73773178D01*
X94248100Y-77862857D01*
X94248100Y-90144100D01*
X94317705Y-90494026D01*
X94398330Y-90614689D01*
X94515922Y-90790678D01*
X95766822Y-92041579D01*
X96063475Y-92239796D01*
X96413400Y-92309400D01*
X96839229Y-92309400D01*
X96839229Y-92780000D01*
X96862885Y-92898927D01*
X96930252Y-92999748D01*
X97031073Y-93067115D01*
X97150000Y-93090771D01*
X99700000Y-93090771D01*
X99818927Y-93067115D01*
X99919748Y-92999748D01*
X99987115Y-92898927D01*
X100010771Y-92780000D01*
X100010771Y-92309400D01*
X100436600Y-92309400D01*
X100786526Y-92239795D01*
X101083178Y-92041578D01*
X101684229Y-91440528D01*
X101684229Y-91740000D01*
X101707885Y-91858927D01*
X101775252Y-91959748D01*
X101876073Y-92027115D01*
X101995000Y-92050771D01*
X103745000Y-92050771D01*
X103863927Y-92027115D01*
X103964748Y-91959748D01*
X104032115Y-91858927D01*
X104055771Y-91740000D01*
X104055771Y-91329400D01*
X104102844Y-91329400D01*
X104495600Y-91722157D01*
X104495600Y-92145229D01*
X104140000Y-92145229D01*
X104021073Y-92168885D01*
X103920252Y-92236252D01*
X103852885Y-92337073D01*
X103829229Y-92456000D01*
X103829229Y-92859673D01*
X103669243Y-92620237D01*
X103302547Y-92375219D01*
X102870000Y-92289180D01*
X102437453Y-92375219D01*
X102070757Y-92620237D01*
X101825739Y-92986933D01*
X101739700Y-93419480D01*
X101739700Y-93981720D01*
X101825739Y-94414267D01*
X102070757Y-94780963D01*
X102437453Y-95025981D01*
X102870000Y-95112020D01*
X103302547Y-95025981D01*
X103669243Y-94780963D01*
X103914261Y-94414267D01*
X103997225Y-93997180D01*
X104021073Y-94013115D01*
X104140000Y-94036771D01*
X106680000Y-94036771D01*
X106798927Y-94013115D01*
X106810473Y-94005400D01*
X106824410Y-94005400D01*
X106905739Y-94414267D01*
X107150757Y-94780963D01*
X107517453Y-95025981D01*
X107950000Y-95112020D01*
X108382547Y-95025981D01*
X108749243Y-94780963D01*
X108994261Y-94414267D01*
X109080300Y-93981720D01*
X109080300Y-93419480D01*
X109009999Y-93066054D01*
X109212291Y-93066230D01*
X109434229Y-92974527D01*
X109434229Y-93725000D01*
X109457885Y-93843927D01*
X109525252Y-93944748D01*
X109578010Y-93980000D01*
X109525252Y-94015252D01*
X109457885Y-94116073D01*
X109434229Y-94235000D01*
X109434229Y-94973899D01*
X109399689Y-94988206D01*
X109228206Y-95159689D01*
X109135400Y-95383743D01*
X109135400Y-95580200D01*
X109287800Y-95732600D01*
X110442600Y-95732600D01*
X110442600Y-95712600D01*
X110747400Y-95712600D01*
X110747400Y-95732600D01*
X111902200Y-95732600D01*
X112054600Y-95580200D01*
X112054600Y-95383743D01*
X111961794Y-95159689D01*
X111900234Y-95098129D01*
X111969603Y-95084331D01*
X112134410Y-94974210D01*
X113111810Y-93996810D01*
X113221931Y-93832004D01*
X113243215Y-93725000D01*
X113260600Y-93637600D01*
X113260600Y-91257800D01*
X113221931Y-91063397D01*
X113221931Y-91063396D01*
X113111810Y-90898589D01*
X109751610Y-87538390D01*
X109586803Y-87428269D01*
X109392400Y-87389600D01*
X109187566Y-87389600D01*
X109187566Y-85444129D01*
X111912400Y-85444129D01*
X111912400Y-86005871D01*
X111997472Y-86433558D01*
X112239737Y-86796134D01*
X112602313Y-87038399D01*
X113030000Y-87123471D01*
X113457687Y-87038399D01*
X113820263Y-86796134D01*
X114062528Y-86433558D01*
X114147600Y-86005871D01*
X114147600Y-85444129D01*
X114062528Y-85016442D01*
X113820263Y-84653866D01*
X113457687Y-84411601D01*
X113030000Y-84326529D01*
X112602313Y-84411601D01*
X112239737Y-84653866D01*
X111997472Y-85016442D01*
X111912400Y-85444129D01*
X109187566Y-85444129D01*
X109187566Y-84790000D01*
X109159967Y-84651252D01*
X109081373Y-84533627D01*
X108972706Y-84461019D01*
X109327313Y-84107030D01*
X109575317Y-83509770D01*
X109575881Y-82863067D01*
X109328920Y-82265375D01*
X108972971Y-81908804D01*
X109081373Y-81836373D01*
X109159967Y-81718748D01*
X109187566Y-81580000D01*
X109187566Y-81220200D01*
X109289101Y-81220200D01*
X109396400Y-81327499D01*
X109709533Y-81536729D01*
X109770815Y-81548918D01*
X110078900Y-81610200D01*
X112168954Y-81610200D01*
X112239737Y-81716134D01*
X112602313Y-81958399D01*
X113030000Y-82043471D01*
X113457687Y-81958399D01*
X113820263Y-81716134D01*
X114062528Y-81353558D01*
X114147600Y-80925871D01*
X114147600Y-80364129D01*
X114062528Y-79936442D01*
X113820263Y-79573866D01*
X113457687Y-79331601D01*
X113030000Y-79246529D01*
X112602313Y-79331601D01*
X112239737Y-79573866D01*
X112168954Y-79679800D01*
X110478698Y-79679800D01*
X110371399Y-79572501D01*
X110058266Y-79363271D01*
X109688900Y-79289800D01*
X109187566Y-79289800D01*
X109187566Y-78930000D01*
X109159967Y-78791252D01*
X109081373Y-78673627D01*
X108963748Y-78595033D01*
X108825000Y-78567434D01*
X107075000Y-78567434D01*
X106936252Y-78595033D01*
X106818627Y-78673627D01*
X106740033Y-78791252D01*
X106712434Y-78930000D01*
X106712434Y-81580000D01*
X106740033Y-81718748D01*
X106818627Y-81836373D01*
X106927294Y-81908981D01*
X106572687Y-82262970D01*
X106324683Y-82860230D01*
X106324119Y-83506933D01*
X106571080Y-84104625D01*
X106927029Y-84461196D01*
X106818627Y-84533627D01*
X106740033Y-84651252D01*
X106712434Y-84790000D01*
X106712434Y-87389600D01*
X104107566Y-87389600D01*
X104107566Y-84790000D01*
X104079967Y-84651252D01*
X104001373Y-84533627D01*
X103892706Y-84461019D01*
X104247313Y-84107030D01*
X104495317Y-83509770D01*
X104495881Y-82863067D01*
X104248920Y-82265375D01*
X103892971Y-81908804D01*
X104001373Y-81836373D01*
X104079967Y-81718748D01*
X104107566Y-81580000D01*
X104107566Y-78930000D01*
X104079967Y-78791252D01*
X104001373Y-78673627D01*
X103883748Y-78595033D01*
X103745000Y-78567434D01*
X101995000Y-78567434D01*
X101856252Y-78595033D01*
X101738627Y-78673627D01*
X101660033Y-78791252D01*
X101632434Y-78930000D01*
X101632434Y-79679800D01*
X98651046Y-79679800D01*
X98580263Y-79573866D01*
X98217687Y-79331601D01*
X97790000Y-79246529D01*
X97362313Y-79331601D01*
X97078400Y-79521305D01*
X97078400Y-76644300D01*
X97039731Y-76449897D01*
X96929610Y-76285090D01*
X96904320Y-76259800D01*
X101385400Y-76259800D01*
X101385400Y-77401257D01*
X101478206Y-77625311D01*
X101649689Y-77796794D01*
X101873743Y-77889600D01*
X102565200Y-77889600D01*
X102717600Y-77737200D01*
X102717600Y-76107400D01*
X103022400Y-76107400D01*
X103022400Y-77737200D01*
X103174800Y-77889600D01*
X103866257Y-77889600D01*
X104090311Y-77796794D01*
X104261794Y-77625311D01*
X104354600Y-77401257D01*
X104354600Y-76259800D01*
X106465400Y-76259800D01*
X106465400Y-77401257D01*
X106558206Y-77625311D01*
X106729689Y-77796794D01*
X106953743Y-77889600D01*
X107645200Y-77889600D01*
X107797600Y-77737200D01*
X107797600Y-76107400D01*
X108102400Y-76107400D01*
X108102400Y-77737200D01*
X108254800Y-77889600D01*
X108946257Y-77889600D01*
X109170311Y-77796794D01*
X109341794Y-77625311D01*
X109434600Y-77401257D01*
X109434600Y-76259800D01*
X125515400Y-76259800D01*
X125515400Y-77401257D01*
X125608206Y-77625311D01*
X125779689Y-77796794D01*
X126003743Y-77889600D01*
X126695200Y-77889600D01*
X126847600Y-77737200D01*
X126847600Y-76107400D01*
X127152400Y-76107400D01*
X127152400Y-77737200D01*
X127304800Y-77889600D01*
X127996257Y-77889600D01*
X128220311Y-77796794D01*
X128391794Y-77625311D01*
X128484600Y-77401257D01*
X128484600Y-76259800D01*
X130595400Y-76259800D01*
X130595400Y-77401257D01*
X130688206Y-77625311D01*
X130859689Y-77796794D01*
X131083743Y-77889600D01*
X131775200Y-77889600D01*
X131927600Y-77737200D01*
X131927600Y-76107400D01*
X132232400Y-76107400D01*
X132232400Y-77737200D01*
X132384800Y-77889600D01*
X133076257Y-77889600D01*
X133300311Y-77796794D01*
X133471794Y-77625311D01*
X133564600Y-77401257D01*
X133564600Y-76259800D01*
X133412200Y-76107400D01*
X132232400Y-76107400D01*
X131927600Y-76107400D01*
X130747800Y-76107400D01*
X130595400Y-76259800D01*
X128484600Y-76259800D01*
X128332200Y-76107400D01*
X127152400Y-76107400D01*
X126847600Y-76107400D01*
X125667800Y-76107400D01*
X125515400Y-76259800D01*
X109434600Y-76259800D01*
X109282200Y-76107400D01*
X108102400Y-76107400D01*
X107797600Y-76107400D01*
X106617800Y-76107400D01*
X106465400Y-76259800D01*
X104354600Y-76259800D01*
X104202200Y-76107400D01*
X103022400Y-76107400D01*
X102717600Y-76107400D01*
X101537800Y-76107400D01*
X101385400Y-76259800D01*
X96904320Y-76259800D01*
X95153263Y-74508743D01*
X101385400Y-74508743D01*
X101385400Y-75650200D01*
X101537800Y-75802600D01*
X102717600Y-75802600D01*
X102717600Y-74172800D01*
X103022400Y-74172800D01*
X103022400Y-75802600D01*
X104202200Y-75802600D01*
X104354600Y-75650200D01*
X104354600Y-74508743D01*
X106465400Y-74508743D01*
X106465400Y-75650200D01*
X106617800Y-75802600D01*
X107797600Y-75802600D01*
X107797600Y-74172800D01*
X108102400Y-74172800D01*
X108102400Y-75802600D01*
X109282200Y-75802600D01*
X109434600Y-75650200D01*
X109434600Y-74508743D01*
X125515400Y-74508743D01*
X125515400Y-75650200D01*
X125667800Y-75802600D01*
X126847600Y-75802600D01*
X126847600Y-74172800D01*
X127152400Y-74172800D01*
X127152400Y-75802600D01*
X128332200Y-75802600D01*
X128484600Y-75650200D01*
X128484600Y-74508743D01*
X130595400Y-74508743D01*
X130595400Y-75650200D01*
X130747800Y-75802600D01*
X131927600Y-75802600D01*
X131927600Y-74172800D01*
X132232400Y-74172800D01*
X132232400Y-75802600D01*
X133412200Y-75802600D01*
X133564600Y-75650200D01*
X133564600Y-74508743D01*
X133471794Y-74284689D01*
X133300311Y-74113206D01*
X133076257Y-74020400D01*
X132384800Y-74020400D01*
X132232400Y-74172800D01*
X131927600Y-74172800D01*
X131775200Y-74020400D01*
X131083743Y-74020400D01*
X130859689Y-74113206D01*
X130688206Y-74284689D01*
X130595400Y-74508743D01*
X128484600Y-74508743D01*
X128391794Y-74284689D01*
X128220311Y-74113206D01*
X127996257Y-74020400D01*
X127304800Y-74020400D01*
X127152400Y-74172800D01*
X126847600Y-74172800D01*
X126695200Y-74020400D01*
X126003743Y-74020400D01*
X125779689Y-74113206D01*
X125608206Y-74284689D01*
X125515400Y-74508743D01*
X109434600Y-74508743D01*
X109341794Y-74284689D01*
X109170311Y-74113206D01*
X108946257Y-74020400D01*
X108254800Y-74020400D01*
X108102400Y-74172800D01*
X107797600Y-74172800D01*
X107645200Y-74020400D01*
X106953743Y-74020400D01*
X106729689Y-74113206D01*
X106558206Y-74284689D01*
X106465400Y-74508743D01*
X104354600Y-74508743D01*
X104261794Y-74284689D01*
X104090311Y-74113206D01*
X103866257Y-74020400D01*
X103174800Y-74020400D01*
X103022400Y-74172800D01*
X102717600Y-74172800D01*
X102565200Y-74020400D01*
X101873743Y-74020400D01*
X101649689Y-74113206D01*
X101478206Y-74284689D01*
X101385400Y-74508743D01*
X95153263Y-74508743D01*
X93365996Y-72721476D01*
X93816428Y-72631879D01*
X94216085Y-72364837D01*
X94483127Y-71965180D01*
X94576900Y-71493752D01*
X94576900Y-70746248D01*
X94653100Y-70746248D01*
X94653100Y-71493752D01*
X94746873Y-71965180D01*
X95013915Y-72364837D01*
X95413572Y-72631879D01*
X95885000Y-72725652D01*
X96356428Y-72631879D01*
X96756085Y-72364837D01*
X97023127Y-71965180D01*
X97116900Y-71493752D01*
X97116900Y-70746248D01*
X97193100Y-70746248D01*
X97193100Y-71493752D01*
X97286873Y-71965180D01*
X97553915Y-72364837D01*
X97953572Y-72631879D01*
X98425000Y-72725652D01*
X98896428Y-72631879D01*
X99296085Y-72364837D01*
X99563127Y-71965180D01*
X99656900Y-71493752D01*
X99656900Y-70746248D01*
X99733100Y-70746248D01*
X99733100Y-71493752D01*
X99826873Y-71965180D01*
X100093915Y-72364837D01*
X100493572Y-72631879D01*
X100965000Y-72725652D01*
X101436428Y-72631879D01*
X101836085Y-72364837D01*
X102103127Y-71965180D01*
X102196900Y-71493752D01*
X102196900Y-70746248D01*
X102273100Y-70746248D01*
X102273100Y-71493752D01*
X102366873Y-71965180D01*
X102633915Y-72364837D01*
X103033572Y-72631879D01*
X103505000Y-72725652D01*
X103976428Y-72631879D01*
X104376085Y-72364837D01*
X104643127Y-71965180D01*
X104736900Y-71493752D01*
X104736900Y-70746248D01*
X104813100Y-70746248D01*
X104813100Y-71493752D01*
X104906873Y-71965180D01*
X105173915Y-72364837D01*
X105573572Y-72631879D01*
X106045000Y-72725652D01*
X106516428Y-72631879D01*
X106916085Y-72364837D01*
X107183127Y-71965180D01*
X107276900Y-71493752D01*
X107276900Y-70746248D01*
X107353100Y-70746248D01*
X107353100Y-71493752D01*
X107446873Y-71965180D01*
X107713915Y-72364837D01*
X108113572Y-72631879D01*
X108585000Y-72725652D01*
X109056428Y-72631879D01*
X109456085Y-72364837D01*
X109723127Y-71965180D01*
X109816900Y-71493752D01*
X109816900Y-70746248D01*
X109893100Y-70746248D01*
X109893100Y-71493752D01*
X109986873Y-71965180D01*
X110253915Y-72364837D01*
X110653572Y-72631879D01*
X111125000Y-72725652D01*
X111596428Y-72631879D01*
X111996085Y-72364837D01*
X112263127Y-71965180D01*
X112356900Y-71493752D01*
X112356900Y-70746248D01*
X112433100Y-70746248D01*
X112433100Y-71493752D01*
X112526873Y-71965180D01*
X112793915Y-72364837D01*
X113193572Y-72631879D01*
X113665000Y-72725652D01*
X114136428Y-72631879D01*
X114536085Y-72364837D01*
X114803127Y-71965180D01*
X114896900Y-71493752D01*
X114896900Y-70746248D01*
X114973100Y-70746248D01*
X114973100Y-71493752D01*
X115066873Y-71965180D01*
X115333915Y-72364837D01*
X115733572Y-72631879D01*
X116205000Y-72725652D01*
X116676428Y-72631879D01*
X117076085Y-72364837D01*
X117343127Y-71965180D01*
X117436900Y-71493752D01*
X117436900Y-70746248D01*
X117513100Y-70746248D01*
X117513100Y-71493752D01*
X117606873Y-71965180D01*
X117873915Y-72364837D01*
X118273572Y-72631879D01*
X118745000Y-72725652D01*
X119216428Y-72631879D01*
X119616085Y-72364837D01*
X119883127Y-71965180D01*
X119976900Y-71493752D01*
X119976900Y-70746248D01*
X120053100Y-70746248D01*
X120053100Y-71493752D01*
X120146873Y-71965180D01*
X120413915Y-72364837D01*
X120813572Y-72631879D01*
X121285000Y-72725652D01*
X121756428Y-72631879D01*
X122156085Y-72364837D01*
X122423127Y-71965180D01*
X122516900Y-71493752D01*
X122516900Y-70746248D01*
X122593100Y-70746248D01*
X122593100Y-71493752D01*
X122686873Y-71965180D01*
X122953915Y-72364837D01*
X123353572Y-72631879D01*
X123825000Y-72725652D01*
X124296428Y-72631879D01*
X124696085Y-72364837D01*
X124963127Y-71965180D01*
X125056900Y-71493752D01*
X125056900Y-70746248D01*
X125133100Y-70746248D01*
X125133100Y-71493752D01*
X125226873Y-71965180D01*
X125493915Y-72364837D01*
X125893572Y-72631879D01*
X126365000Y-72725652D01*
X126836428Y-72631879D01*
X127236085Y-72364837D01*
X127503127Y-71965180D01*
X127589197Y-71532477D01*
X128091840Y-71532477D01*
X128408259Y-72298270D01*
X128993648Y-72884682D01*
X129758888Y-73202437D01*
X130587477Y-73203160D01*
X131353270Y-72886741D01*
X131939682Y-72301352D01*
X132257437Y-71536112D01*
X132258160Y-70707523D01*
X131941741Y-69941730D01*
X131356352Y-69355318D01*
X130591112Y-69037563D01*
X129762523Y-69036840D01*
X128996730Y-69353259D01*
X128410318Y-69938648D01*
X128092563Y-70703888D01*
X128091840Y-71532477D01*
X127589197Y-71532477D01*
X127596900Y-71493752D01*
X127596900Y-70746248D01*
X127503127Y-70274820D01*
X127236085Y-69875163D01*
X126836428Y-69608121D01*
X126365000Y-69514348D01*
X125893572Y-69608121D01*
X125493915Y-69875163D01*
X125226873Y-70274820D01*
X125133100Y-70746248D01*
X125056900Y-70746248D01*
X124963127Y-70274820D01*
X124696085Y-69875163D01*
X124296428Y-69608121D01*
X123825000Y-69514348D01*
X123353572Y-69608121D01*
X122953915Y-69875163D01*
X122686873Y-70274820D01*
X122593100Y-70746248D01*
X122516900Y-70746248D01*
X122423127Y-70274820D01*
X122156085Y-69875163D01*
X121756428Y-69608121D01*
X121285000Y-69514348D01*
X120813572Y-69608121D01*
X120413915Y-69875163D01*
X120146873Y-70274820D01*
X120053100Y-70746248D01*
X119976900Y-70746248D01*
X119883127Y-70274820D01*
X119616085Y-69875163D01*
X119216428Y-69608121D01*
X118745000Y-69514348D01*
X118273572Y-69608121D01*
X117873915Y-69875163D01*
X117606873Y-70274820D01*
X117513100Y-70746248D01*
X117436900Y-70746248D01*
X117343127Y-70274820D01*
X117076085Y-69875163D01*
X116676428Y-69608121D01*
X116205000Y-69514348D01*
X115733572Y-69608121D01*
X115333915Y-69875163D01*
X115066873Y-70274820D01*
X114973100Y-70746248D01*
X114896900Y-70746248D01*
X114803127Y-70274820D01*
X114536085Y-69875163D01*
X114136428Y-69608121D01*
X113665000Y-69514348D01*
X113193572Y-69608121D01*
X112793915Y-69875163D01*
X112526873Y-70274820D01*
X112433100Y-70746248D01*
X112356900Y-70746248D01*
X112263127Y-70274820D01*
X111996085Y-69875163D01*
X111596428Y-69608121D01*
X111125000Y-69514348D01*
X110653572Y-69608121D01*
X110253915Y-69875163D01*
X109986873Y-70274820D01*
X109893100Y-70746248D01*
X109816900Y-70746248D01*
X109723127Y-70274820D01*
X109456085Y-69875163D01*
X109056428Y-69608121D01*
X108585000Y-69514348D01*
X108113572Y-69608121D01*
X107713915Y-69875163D01*
X107446873Y-70274820D01*
X107353100Y-70746248D01*
X107276900Y-70746248D01*
X107183127Y-70274820D01*
X106916085Y-69875163D01*
X106516428Y-69608121D01*
X106045000Y-69514348D01*
X105573572Y-69608121D01*
X105173915Y-69875163D01*
X104906873Y-70274820D01*
X104813100Y-70746248D01*
X104736900Y-70746248D01*
X104643127Y-70274820D01*
X104376085Y-69875163D01*
X103976428Y-69608121D01*
X103505000Y-69514348D01*
X103033572Y-69608121D01*
X102633915Y-69875163D01*
X102366873Y-70274820D01*
X102273100Y-70746248D01*
X102196900Y-70746248D01*
X102103127Y-70274820D01*
X101836085Y-69875163D01*
X101436428Y-69608121D01*
X100965000Y-69514348D01*
X100493572Y-69608121D01*
X100093915Y-69875163D01*
X99826873Y-70274820D01*
X99733100Y-70746248D01*
X99656900Y-70746248D01*
X99563127Y-70274820D01*
X99296085Y-69875163D01*
X98896428Y-69608121D01*
X98425000Y-69514348D01*
X97953572Y-69608121D01*
X97553915Y-69875163D01*
X97286873Y-70274820D01*
X97193100Y-70746248D01*
X97116900Y-70746248D01*
X97023127Y-70274820D01*
X96756085Y-69875163D01*
X96356428Y-69608121D01*
X95885000Y-69514348D01*
X95413572Y-69608121D01*
X95013915Y-69875163D01*
X94746873Y-70274820D01*
X94653100Y-70746248D01*
X94576900Y-70746248D01*
X94483127Y-70274820D01*
X94216085Y-69875163D01*
X93816428Y-69608121D01*
X93345000Y-69514348D01*
X92873572Y-69608121D01*
X92473915Y-69875163D01*
X92447573Y-69914587D01*
X92434211Y-69894590D01*
X91572810Y-69033190D01*
X91521791Y-68999100D01*
X155155900Y-68999100D01*
X155155900Y-108800900D01*
X155155900Y-108800900D01*
G37*
X155155900Y-108800900D02*
X109324755Y-108800900D01*
X109337910Y-108792110D01*
X110226910Y-107903110D01*
X110233154Y-107893766D01*
X110253915Y-107924837D01*
X110653572Y-108191879D01*
X111125000Y-108285652D01*
X111596428Y-108191879D01*
X111996085Y-107924837D01*
X112263127Y-107525180D01*
X112356900Y-107053752D01*
X112356900Y-106306248D01*
X112433100Y-106306248D01*
X112433100Y-107053752D01*
X112526873Y-107525180D01*
X112793915Y-107924837D01*
X113193572Y-108191879D01*
X113665000Y-108285652D01*
X114136428Y-108191879D01*
X114536085Y-107924837D01*
X114803127Y-107525180D01*
X114896900Y-107053752D01*
X114896900Y-106306248D01*
X114803127Y-105834820D01*
X114536085Y-105435163D01*
X114136428Y-105168121D01*
X113665000Y-105074348D01*
X113193572Y-105168121D01*
X112793915Y-105435163D01*
X112526873Y-105834820D01*
X112433100Y-106306248D01*
X112356900Y-106306248D01*
X112263127Y-105834820D01*
X111996085Y-105435163D01*
X111596428Y-105168121D01*
X111125000Y-105074348D01*
X110653572Y-105168121D01*
X110253915Y-105435163D01*
X109986873Y-105834820D01*
X109919804Y-106172000D01*
X109867700Y-106172000D01*
X109793146Y-106186830D01*
X109723127Y-105834820D01*
X109456085Y-105435163D01*
X109056428Y-105168121D01*
X108585000Y-105074348D01*
X108113572Y-105168121D01*
X107713915Y-105435163D01*
X107446873Y-105834820D01*
X107353100Y-106306248D01*
X107353100Y-107053752D01*
X107446873Y-107525180D01*
X107713915Y-107924837D01*
X107714009Y-107924900D01*
X106915991Y-107924900D01*
X106916085Y-107924837D01*
X107183127Y-107525180D01*
X107276900Y-107053752D01*
X107276900Y-106306248D01*
X107183127Y-105834820D01*
X106916085Y-105435163D01*
X106516428Y-105168121D01*
X106045000Y-105074348D01*
X105573572Y-105168121D01*
X105173915Y-105435163D01*
X104906873Y-105834820D01*
X104813100Y-106306248D01*
X104813100Y-107053752D01*
X104906873Y-107525180D01*
X105173915Y-107924837D01*
X105174009Y-107924900D01*
X104375991Y-107924900D01*
X104376085Y-107924837D01*
X104643127Y-107525180D01*
X104736900Y-107053752D01*
X104736900Y-106306248D01*
X104643127Y-105834820D01*
X104376085Y-105435163D01*
X103976428Y-105168121D01*
X103505000Y-105074348D01*
X103033572Y-105168121D01*
X102633915Y-105435163D01*
X102366873Y-105834820D01*
X102273100Y-106306248D01*
X102273100Y-107053752D01*
X102366873Y-107525180D01*
X102633915Y-107924837D01*
X102634009Y-107924900D01*
X101835991Y-107924900D01*
X101836085Y-107924837D01*
X102103127Y-107525180D01*
X102196900Y-107053752D01*
X102196900Y-106306248D01*
X102103127Y-105834820D01*
X101836085Y-105435163D01*
X101436428Y-105168121D01*
X100965000Y-105074348D01*
X100493572Y-105168121D01*
X100093915Y-105435163D01*
X99826873Y-105834820D01*
X99733100Y-106306248D01*
X99733100Y-107053752D01*
X99826873Y-107525180D01*
X100093915Y-107924837D01*
X100094009Y-107924900D01*
X99295991Y-107924900D01*
X99296085Y-107924837D01*
X99563127Y-107525180D01*
X99656900Y-107053752D01*
X99656900Y-106306248D01*
X99563127Y-105834820D01*
X99296085Y-105435163D01*
X98896428Y-105168121D01*
X98425000Y-105074348D01*
X97953572Y-105168121D01*
X97553915Y-105435163D01*
X97286873Y-105834820D01*
X97193100Y-106306248D01*
X97193100Y-107053752D01*
X97286873Y-107525180D01*
X97553915Y-107924837D01*
X97554009Y-107924900D01*
X96755991Y-107924900D01*
X96756085Y-107924837D01*
X97023127Y-107525180D01*
X97116900Y-107053752D01*
X97116900Y-106306248D01*
X97023127Y-105834820D01*
X96756085Y-105435163D01*
X96356428Y-105168121D01*
X95885000Y-105074348D01*
X95413572Y-105168121D01*
X95013915Y-105435163D01*
X94746873Y-105834820D01*
X94653100Y-106306248D01*
X94653100Y-107053752D01*
X94746873Y-107525180D01*
X95013915Y-107924837D01*
X95014009Y-107924900D01*
X94215991Y-107924900D01*
X94216085Y-107924837D01*
X94483127Y-107525180D01*
X94576900Y-107053752D01*
X94576900Y-106306248D01*
X94483127Y-105834820D01*
X94216085Y-105435163D01*
X93816428Y-105168121D01*
X93345000Y-105074348D01*
X92873572Y-105168121D01*
X92473915Y-105435163D01*
X92206873Y-105834820D01*
X92113100Y-106306248D01*
X92113100Y-107053752D01*
X92206873Y-107525180D01*
X92473915Y-107924837D01*
X92474009Y-107924900D01*
X91736630Y-107924900D01*
X91990060Y-107545615D01*
X92087700Y-107054747D01*
X92087700Y-106305253D01*
X91990060Y-105814385D01*
X91712006Y-105398247D01*
X91567000Y-105301357D01*
X91567000Y-105064930D01*
X92182531Y-104449400D01*
X104701932Y-104449400D01*
X104793352Y-104487361D01*
X105111652Y-104487639D01*
X105405828Y-104366087D01*
X105631096Y-104141212D01*
X105753161Y-103847248D01*
X105753346Y-103634947D01*
X105949475Y-103765996D01*
X106299400Y-103835600D01*
X109908800Y-103835600D01*
X110258726Y-103765995D01*
X110555378Y-103567778D01*
X111197386Y-102925771D01*
X111445000Y-102925771D01*
X111563927Y-102902115D01*
X111664748Y-102834748D01*
X111732115Y-102733927D01*
X111755771Y-102615000D01*
X111755771Y-101855000D01*
X111732115Y-101736073D01*
X111664748Y-101635252D01*
X111611990Y-101600000D01*
X111664748Y-101564748D01*
X111726053Y-101473000D01*
X112384880Y-101473000D01*
X116022525Y-105110645D01*
X115733572Y-105168121D01*
X115333915Y-105435163D01*
X115066873Y-105834820D01*
X114973100Y-106306248D01*
X114973100Y-107053752D01*
X115066873Y-107525180D01*
X115333915Y-107924837D01*
X115733572Y-108191879D01*
X116205000Y-108285652D01*
X116676428Y-108191879D01*
X117076085Y-107924837D01*
X117119156Y-107860376D01*
X117904490Y-108645710D01*
X118069296Y-108755831D01*
X118101550Y-108762246D01*
X118263700Y-108794500D01*
X119285100Y-108794500D01*
X119479503Y-108755831D01*
X119644310Y-108645710D01*
X120386910Y-107903110D01*
X120393154Y-107893766D01*
X120413915Y-107924837D01*
X120813572Y-108191879D01*
X121285000Y-108285652D01*
X121756428Y-108191879D01*
X122156085Y-107924837D01*
X122423127Y-107525180D01*
X122516900Y-107053752D01*
X122516900Y-106306248D01*
X122593100Y-106306248D01*
X122593100Y-107053752D01*
X122686873Y-107525180D01*
X122953915Y-107924837D01*
X123353572Y-108191879D01*
X123825000Y-108285652D01*
X124296428Y-108191879D01*
X124696085Y-107924837D01*
X124963127Y-107525180D01*
X125056900Y-107053752D01*
X125056900Y-106306248D01*
X125133100Y-106306248D01*
X125133100Y-107053752D01*
X125226873Y-107525180D01*
X125493915Y-107924837D01*
X125893572Y-108191879D01*
X126365000Y-108285652D01*
X126836428Y-108191879D01*
X127236085Y-107924837D01*
X127503127Y-107525180D01*
X127589197Y-107092477D01*
X128091840Y-107092477D01*
X128408259Y-107858270D01*
X128993648Y-108444682D01*
X129758888Y-108762437D01*
X130587477Y-108763160D01*
X131353270Y-108446741D01*
X131939682Y-107861352D01*
X132257437Y-107096112D01*
X132258160Y-106267523D01*
X131941741Y-105501730D01*
X131356352Y-104915318D01*
X130591112Y-104597563D01*
X129762523Y-104596840D01*
X128996730Y-104913259D01*
X128410318Y-105498648D01*
X128092563Y-106263888D01*
X128091840Y-107092477D01*
X127589197Y-107092477D01*
X127596900Y-107053752D01*
X127596900Y-106306248D01*
X127503127Y-105834820D01*
X127236085Y-105435163D01*
X126836428Y-105168121D01*
X126365000Y-105074348D01*
X125893572Y-105168121D01*
X125493915Y-105435163D01*
X125226873Y-105834820D01*
X125133100Y-106306248D01*
X125056900Y-106306248D01*
X124963127Y-105834820D01*
X124696085Y-105435163D01*
X124296428Y-105168121D01*
X123825000Y-105074348D01*
X123353572Y-105168121D01*
X122953915Y-105435163D01*
X122686873Y-105834820D01*
X122593100Y-106306248D01*
X122516900Y-106306248D01*
X122423127Y-105834820D01*
X122156085Y-105435163D01*
X121756428Y-105168121D01*
X121285000Y-105074348D01*
X120813572Y-105168121D01*
X120413915Y-105435163D01*
X120146873Y-105834820D01*
X120079804Y-106172000D01*
X120027700Y-106172000D01*
X119953146Y-106186830D01*
X119883127Y-105834820D01*
X119616085Y-105435163D01*
X119311544Y-105231676D01*
X123070220Y-101473000D01*
X123223947Y-101473000D01*
X123285252Y-101564748D01*
X123338010Y-101600000D01*
X123285252Y-101635252D01*
X123217885Y-101736073D01*
X123194229Y-101855000D01*
X123194229Y-102615000D01*
X123217885Y-102733927D01*
X123285252Y-102834748D01*
X123386073Y-102902115D01*
X123505000Y-102925771D01*
X123752615Y-102925771D01*
X124420221Y-103593378D01*
X124568548Y-103692486D01*
X124716874Y-103791595D01*
X125066800Y-103861200D01*
X128625000Y-103861200D01*
X128974926Y-103791595D01*
X129271578Y-103593378D01*
X130985557Y-101879400D01*
X131032629Y-101879400D01*
X131032629Y-102209600D01*
X131056285Y-102328527D01*
X131123652Y-102429348D01*
X131224473Y-102496715D01*
X131343400Y-102520371D01*
X132740400Y-102520371D01*
X132859327Y-102496715D01*
X132960148Y-102429348D01*
X133027515Y-102328527D01*
X133051171Y-102209600D01*
X133051171Y-101879400D01*
X133477000Y-101879400D01*
X133826926Y-101809795D01*
X134123578Y-101611578D01*
X134135156Y-101600000D01*
X145139864Y-101600000D01*
X145250757Y-101765963D01*
X145617453Y-102010981D01*
X146050000Y-102097020D01*
X146482547Y-102010981D01*
X146849243Y-101765963D01*
X147094261Y-101399267D01*
X147180300Y-100966720D01*
X147180300Y-100404480D01*
X147094261Y-99971933D01*
X146849243Y-99605237D01*
X146482547Y-99360219D01*
X146050000Y-99274180D01*
X145617453Y-99360219D01*
X145250757Y-99605237D01*
X145139864Y-99771200D01*
X133756400Y-99771200D01*
X133406474Y-99840805D01*
X133258148Y-99939913D01*
X133109821Y-100039022D01*
X133098243Y-100050600D01*
X133051171Y-100050600D01*
X133051171Y-99720400D01*
X133027515Y-99601473D01*
X132960148Y-99500652D01*
X132859327Y-99433285D01*
X132740400Y-99409629D01*
X131907769Y-99409629D01*
X135595199Y-95722199D01*
X135804429Y-95409066D01*
X135822134Y-95320056D01*
X135877900Y-95039700D01*
X135877900Y-87208800D01*
X135804429Y-86839434D01*
X135775497Y-86796134D01*
X135595200Y-86526301D01*
X134513028Y-85444129D01*
X136042400Y-85444129D01*
X136042400Y-86005871D01*
X136127472Y-86433558D01*
X136369737Y-86796134D01*
X136499600Y-86882905D01*
X136499600Y-88100200D01*
X136549870Y-88352924D01*
X136693027Y-88567173D01*
X149278426Y-101152573D01*
X149492676Y-101295730D01*
X149745400Y-101346000D01*
X150024146Y-101346000D01*
X150038806Y-101419702D01*
X150294836Y-101802879D01*
X150678013Y-102058909D01*
X151130000Y-102148815D01*
X151581987Y-102058909D01*
X151965164Y-101802879D01*
X152221194Y-101419702D01*
X152311100Y-100967715D01*
X152311100Y-100403485D01*
X152221194Y-99951498D01*
X151965164Y-99568321D01*
X151581987Y-99312291D01*
X151130000Y-99222385D01*
X150678013Y-99312291D01*
X150294836Y-99568321D01*
X150038806Y-99951498D01*
X150024146Y-100025200D01*
X150018947Y-100025200D01*
X143389547Y-93395800D01*
X147670667Y-93395800D01*
X147829211Y-94192853D01*
X148280705Y-94868562D01*
X148956414Y-95320056D01*
X149753467Y-95478600D01*
X151388933Y-95478600D01*
X152185986Y-95320056D01*
X152861695Y-94868562D01*
X153313189Y-94192853D01*
X153471733Y-93395800D01*
X153313189Y-92598747D01*
X152861695Y-91923038D01*
X152185986Y-91471544D01*
X151388933Y-91313000D01*
X149753467Y-91313000D01*
X148956414Y-91471544D01*
X148280705Y-91923038D01*
X147829211Y-92598747D01*
X147670667Y-93395800D01*
X143389547Y-93395800D01*
X139046147Y-89052400D01*
X140944600Y-89052400D01*
X140944600Y-89560400D01*
X141204001Y-90559696D01*
X141826070Y-91383656D01*
X142716103Y-91906841D01*
X143023127Y-91988891D01*
X143433800Y-91892530D01*
X143433800Y-89052400D01*
X143738600Y-89052400D01*
X143738600Y-91892530D01*
X144149273Y-91988891D01*
X144456297Y-91906841D01*
X145346330Y-91383656D01*
X145968399Y-90559696D01*
X146227800Y-89560400D01*
X146227800Y-89052400D01*
X143738600Y-89052400D01*
X143433800Y-89052400D01*
X140944600Y-89052400D01*
X139046147Y-89052400D01*
X138893747Y-88900000D01*
X146431043Y-88900000D01*
X146589587Y-89697053D01*
X147041081Y-90372762D01*
X147716790Y-90824256D01*
X148513843Y-90982800D01*
X149631357Y-90982800D01*
X150428410Y-90824256D01*
X151104119Y-90372762D01*
X151555613Y-89697053D01*
X151559495Y-89677538D01*
X151857463Y-89976026D01*
X152324073Y-90169779D01*
X152829310Y-90170220D01*
X153296258Y-89977282D01*
X153653826Y-89620337D01*
X153847579Y-89153727D01*
X153848020Y-88648490D01*
X153655082Y-88181542D01*
X153298137Y-87823974D01*
X152831527Y-87630221D01*
X152326290Y-87629780D01*
X151859342Y-87822718D01*
X151559425Y-88122112D01*
X151555613Y-88102947D01*
X151104119Y-87427238D01*
X150428410Y-86975744D01*
X149631357Y-86817200D01*
X148513843Y-86817200D01*
X147716790Y-86975744D01*
X147041081Y-87427238D01*
X146589587Y-88102947D01*
X146431043Y-88900000D01*
X138893747Y-88900000D01*
X138233347Y-88239600D01*
X140944600Y-88239600D01*
X140944600Y-88747600D01*
X143433800Y-88747600D01*
X143433800Y-85907470D01*
X143738600Y-85907470D01*
X143738600Y-88747600D01*
X146227800Y-88747600D01*
X146227800Y-88239600D01*
X145968399Y-87240304D01*
X145346330Y-86416344D01*
X144456297Y-85893159D01*
X144149273Y-85811109D01*
X143738600Y-85907470D01*
X143433800Y-85907470D01*
X143023127Y-85811109D01*
X142716103Y-85893159D01*
X141826070Y-86416344D01*
X141204001Y-87240304D01*
X140944600Y-88239600D01*
X138233347Y-88239600D01*
X137820400Y-87826654D01*
X137820400Y-86882905D01*
X137950263Y-86796134D01*
X138192528Y-86433558D01*
X138277600Y-86005871D01*
X138277600Y-85444129D01*
X138192528Y-85016442D01*
X137950263Y-84653866D01*
X137587687Y-84411601D01*
X137550480Y-84404200D01*
X147670667Y-84404200D01*
X147829211Y-85201253D01*
X148280705Y-85876962D01*
X148956414Y-86328456D01*
X149753467Y-86487000D01*
X151388933Y-86487000D01*
X152185986Y-86328456D01*
X152861695Y-85876962D01*
X153313189Y-85201253D01*
X153471733Y-84404200D01*
X153313189Y-83607147D01*
X152861695Y-82931438D01*
X152185986Y-82479944D01*
X151388933Y-82321400D01*
X149753467Y-82321400D01*
X148956414Y-82479944D01*
X148280705Y-82931438D01*
X147829211Y-83607147D01*
X147670667Y-84404200D01*
X137550480Y-84404200D01*
X137160000Y-84326529D01*
X136732313Y-84411601D01*
X136369737Y-84653866D01*
X136127472Y-85016442D01*
X136042400Y-85444129D01*
X134513028Y-85444129D01*
X134501399Y-85432501D01*
X134188266Y-85223271D01*
X133818900Y-85149800D01*
X133317566Y-85149800D01*
X133317566Y-84790000D01*
X133289967Y-84651252D01*
X133211373Y-84533627D01*
X133102706Y-84461019D01*
X133457313Y-84107030D01*
X133705317Y-83509770D01*
X133705881Y-82863067D01*
X133458920Y-82265375D01*
X133102971Y-81908804D01*
X133211373Y-81836373D01*
X133289967Y-81718748D01*
X133311559Y-81610200D01*
X136298954Y-81610200D01*
X136369737Y-81716134D01*
X136732313Y-81958399D01*
X137160000Y-82043471D01*
X137587687Y-81958399D01*
X137950263Y-81716134D01*
X138192528Y-81353558D01*
X138277600Y-80925871D01*
X138277600Y-80364129D01*
X138192528Y-79936442D01*
X137950263Y-79573866D01*
X137652639Y-79375000D01*
X144651529Y-79375000D01*
X144736601Y-79802687D01*
X144978866Y-80165263D01*
X145341442Y-80407528D01*
X145769129Y-80492600D01*
X146330871Y-80492600D01*
X146758558Y-80407528D01*
X147121134Y-80165263D01*
X147363399Y-79802687D01*
X147376114Y-79738761D01*
X149553516Y-79738761D01*
X149560546Y-79795299D01*
X149821520Y-80266708D01*
X150243030Y-80602363D01*
X150760904Y-80751163D01*
X150977600Y-80599825D01*
X150977600Y-79527400D01*
X151282400Y-79527400D01*
X151282400Y-80599825D01*
X151499096Y-80751163D01*
X152016970Y-80602363D01*
X152438480Y-80266708D01*
X152699454Y-79795299D01*
X152706484Y-79738761D01*
X152593637Y-79527400D01*
X151282400Y-79527400D01*
X150977600Y-79527400D01*
X149666363Y-79527400D01*
X149553516Y-79738761D01*
X147376114Y-79738761D01*
X147448471Y-79375000D01*
X147376115Y-79011239D01*
X149553516Y-79011239D01*
X149666363Y-79222600D01*
X150977600Y-79222600D01*
X150977600Y-78150175D01*
X151282400Y-78150175D01*
X151282400Y-79222600D01*
X152593637Y-79222600D01*
X152706484Y-79011239D01*
X152699454Y-78954701D01*
X152438480Y-78483292D01*
X152016970Y-78147637D01*
X151499096Y-77998837D01*
X151282400Y-78150175D01*
X150977600Y-78150175D01*
X150760904Y-77998837D01*
X150243030Y-78147637D01*
X149821520Y-78483292D01*
X149560546Y-78954701D01*
X149553516Y-79011239D01*
X147376115Y-79011239D01*
X147363399Y-78947313D01*
X147121134Y-78584737D01*
X146758558Y-78342472D01*
X146330871Y-78257400D01*
X145769129Y-78257400D01*
X145341442Y-78342472D01*
X144978866Y-78584737D01*
X144736601Y-78947313D01*
X144651529Y-79375000D01*
X137652639Y-79375000D01*
X137587687Y-79331601D01*
X137160000Y-79246529D01*
X136732313Y-79331601D01*
X136369737Y-79573866D01*
X136298954Y-79679800D01*
X133317566Y-79679800D01*
X133317566Y-78930000D01*
X133289967Y-78791252D01*
X133211373Y-78673627D01*
X133093748Y-78595033D01*
X132955000Y-78567434D01*
X131205000Y-78567434D01*
X131066252Y-78595033D01*
X130948627Y-78673627D01*
X130870033Y-78791252D01*
X130842434Y-78930000D01*
X130842434Y-81580000D01*
X130870033Y-81718748D01*
X130948627Y-81836373D01*
X131057294Y-81908981D01*
X130702687Y-82262970D01*
X130454683Y-82860230D01*
X130454119Y-83506933D01*
X130701080Y-84104625D01*
X131057029Y-84461196D01*
X130948627Y-84533627D01*
X130870033Y-84651252D01*
X130842434Y-84790000D01*
X130842434Y-87440000D01*
X130870033Y-87578748D01*
X130929134Y-87667200D01*
X128150866Y-87667200D01*
X128209967Y-87578748D01*
X128237566Y-87440000D01*
X128237566Y-84790000D01*
X128209967Y-84651252D01*
X128131373Y-84533627D01*
X128022706Y-84461019D01*
X128377313Y-84107030D01*
X128625317Y-83509770D01*
X128625881Y-82863067D01*
X128378920Y-82265375D01*
X128022971Y-81908804D01*
X128131373Y-81836373D01*
X128209967Y-81718748D01*
X128237566Y-81580000D01*
X128237566Y-78930000D01*
X128209967Y-78791252D01*
X128131373Y-78673627D01*
X128013748Y-78595033D01*
X127875000Y-78567434D01*
X126125000Y-78567434D01*
X125986252Y-78595033D01*
X125868627Y-78673627D01*
X125790033Y-78791252D01*
X125762434Y-78930000D01*
X125762434Y-79289800D01*
X125261100Y-79289800D01*
X124953015Y-79351082D01*
X124891733Y-79363271D01*
X124578600Y-79572501D01*
X124471301Y-79679800D01*
X122781046Y-79679800D01*
X122710263Y-79573866D01*
X122347687Y-79331601D01*
X121920000Y-79246529D01*
X121492313Y-79331601D01*
X121129737Y-79573866D01*
X121058954Y-79679800D01*
X120294100Y-79679800D01*
X119924734Y-79753271D01*
X119611601Y-79962501D01*
X119402371Y-80275634D01*
X119328900Y-80645000D01*
X119328900Y-95291700D01*
X119390261Y-95600185D01*
X119402371Y-95661066D01*
X119611601Y-95974199D01*
X121233100Y-97595699D01*
X121546233Y-97804929D01*
X121607515Y-97817118D01*
X121915600Y-97878400D01*
X122640900Y-97878400D01*
X122725435Y-97861585D01*
X122870800Y-97890500D01*
X123241654Y-97890500D01*
X123217885Y-97926073D01*
X123194229Y-98045000D01*
X123194229Y-98805000D01*
X123217885Y-98923927D01*
X123285252Y-99024748D01*
X123338010Y-99060000D01*
X123285252Y-99095252D01*
X123217885Y-99196073D01*
X123194229Y-99315000D01*
X123194229Y-100075000D01*
X123217885Y-100193927D01*
X123285252Y-100294748D01*
X123338010Y-100330000D01*
X123285252Y-100365252D01*
X123223947Y-100457000D01*
X122859800Y-100457000D01*
X122665397Y-100495669D01*
X122500590Y-100605790D01*
X118385790Y-104720590D01*
X118275669Y-104885397D01*
X118237000Y-105079800D01*
X118237000Y-105192558D01*
X117873915Y-105435163D01*
X117837249Y-105490038D01*
X117834210Y-105485490D01*
X112954510Y-100605790D01*
X112789703Y-100495669D01*
X112595300Y-100457000D01*
X111726053Y-100457000D01*
X111664748Y-100365252D01*
X111611990Y-100330000D01*
X111664748Y-100294748D01*
X111732115Y-100193927D01*
X111755771Y-100075000D01*
X111755771Y-99390200D01*
X111945552Y-99390200D01*
X112110855Y-99500652D01*
X112148834Y-99526029D01*
X112518200Y-99599500D01*
X114004000Y-99599500D01*
X114373366Y-99526029D01*
X114686499Y-99316799D01*
X118219600Y-95783699D01*
X118428829Y-95470566D01*
X118435903Y-95435004D01*
X118502300Y-95101200D01*
X118502300Y-89954800D01*
X118428829Y-89585434D01*
X118219599Y-89272301D01*
X117906466Y-89063071D01*
X117537100Y-88989600D01*
X117167734Y-89063071D01*
X116854601Y-89272301D01*
X116671000Y-89547078D01*
X116671000Y-82709200D01*
X116597529Y-82339834D01*
X116388299Y-82026701D01*
X116075166Y-81817471D01*
X115705800Y-81744000D01*
X115336434Y-81817471D01*
X115023301Y-82026701D01*
X114814071Y-82339834D01*
X114740600Y-82709200D01*
X114740600Y-94448701D01*
X112769802Y-96419500D01*
X112040830Y-96419500D01*
X112054600Y-96386257D01*
X112054600Y-96189800D01*
X111902200Y-96037400D01*
X110747400Y-96037400D01*
X110747400Y-96057400D01*
X110442600Y-96057400D01*
X110442600Y-96037400D01*
X109287800Y-96037400D01*
X109135400Y-96189800D01*
X109135400Y-96386257D01*
X109228206Y-96610311D01*
X109399689Y-96781794D01*
X109434229Y-96796101D01*
X109434229Y-97535000D01*
X109457885Y-97653927D01*
X109525252Y-97754748D01*
X109578010Y-97790000D01*
X109525252Y-97825252D01*
X109457885Y-97926073D01*
X109434229Y-98045000D01*
X109434229Y-98805000D01*
X109457885Y-98923927D01*
X109525252Y-99024748D01*
X109578010Y-99060000D01*
X109525252Y-99095252D01*
X109457885Y-99196073D01*
X109434229Y-99315000D01*
X109434229Y-100075000D01*
X109457885Y-100193927D01*
X109525252Y-100294748D01*
X109578010Y-100330000D01*
X109525252Y-100365252D01*
X109463947Y-100457000D01*
X108921171Y-100457000D01*
X108921171Y-99720400D01*
X108897515Y-99601473D01*
X108830148Y-99500652D01*
X108729327Y-99433285D01*
X108610400Y-99409629D01*
X107213400Y-99409629D01*
X107094473Y-99433285D01*
X106993652Y-99500652D01*
X106926285Y-99601473D01*
X106902629Y-99720400D01*
X106902629Y-102006800D01*
X106678157Y-102006800D01*
X105257600Y-100586244D01*
X105257600Y-100555556D01*
X107170878Y-98642279D01*
X107369095Y-98345625D01*
X107438699Y-97995700D01*
X107369095Y-97645775D01*
X107170878Y-97349122D01*
X107048652Y-97267453D01*
X107196794Y-97119311D01*
X107289600Y-96895257D01*
X107289600Y-96443800D01*
X107137200Y-96291400D01*
X105562400Y-96291400D01*
X105562400Y-97231200D01*
X105714800Y-97383600D01*
X105843243Y-97383600D01*
X103766309Y-99460535D01*
X103725527Y-99433285D01*
X103606600Y-99409629D01*
X102209600Y-99409629D01*
X102090673Y-99433285D01*
X101989852Y-99500652D01*
X101922485Y-99601473D01*
X101898829Y-99720400D01*
X101898829Y-102209600D01*
X101922485Y-102328527D01*
X101989852Y-102429348D01*
X102090673Y-102496715D01*
X102209600Y-102520371D01*
X103606600Y-102520371D01*
X103725527Y-102496715D01*
X103826348Y-102429348D01*
X103893715Y-102328527D01*
X103917371Y-102209600D01*
X103917371Y-101879400D01*
X103964444Y-101879400D01*
X104972359Y-102887316D01*
X104794748Y-102887161D01*
X104702203Y-102925400D01*
X91866900Y-102925400D01*
X91575295Y-102983404D01*
X91328084Y-103148585D01*
X90266185Y-104210485D01*
X90101004Y-104457695D01*
X90043000Y-104749300D01*
X90043000Y-105301357D01*
X89897994Y-105398247D01*
X89619940Y-105814385D01*
X89522300Y-106305253D01*
X89522300Y-107054747D01*
X89619940Y-107545615D01*
X89873370Y-107924900D01*
X89135991Y-107924900D01*
X89136085Y-107924837D01*
X89403127Y-107525180D01*
X89496900Y-107053752D01*
X89496900Y-106306248D01*
X89403127Y-105834820D01*
X89136085Y-105435163D01*
X88736428Y-105168121D01*
X88265000Y-105074348D01*
X87793572Y-105168121D01*
X87393915Y-105435163D01*
X87126873Y-105834820D01*
X87033100Y-106306248D01*
X87033100Y-106859080D01*
X86672300Y-106498280D01*
X86672300Y-102012477D01*
X87451840Y-102012477D01*
X87768259Y-102778270D01*
X88353648Y-103364682D01*
X89118888Y-103682437D01*
X89947477Y-103683160D01*
X90713270Y-103366741D01*
X91299682Y-102781352D01*
X91617437Y-102016112D01*
X91618160Y-101187523D01*
X91301741Y-100421730D01*
X90716352Y-99835318D01*
X89951112Y-99517563D01*
X89122523Y-99516840D01*
X88356730Y-99833259D01*
X87770318Y-100418648D01*
X87452563Y-101183888D01*
X87451840Y-102012477D01*
X86672300Y-102012477D01*
X86672300Y-98139800D01*
X96540400Y-98139800D01*
X96540400Y-99341257D01*
X96633206Y-99565311D01*
X96804689Y-99736794D01*
X97028743Y-99829600D01*
X98120200Y-99829600D01*
X98272600Y-99677200D01*
X98272600Y-97987400D01*
X98577400Y-97987400D01*
X98577400Y-99677200D01*
X98729800Y-99829600D01*
X99821257Y-99829600D01*
X100045311Y-99736794D01*
X100216794Y-99565311D01*
X100309600Y-99341257D01*
X100309600Y-98139800D01*
X100157200Y-97987400D01*
X98577400Y-97987400D01*
X98272600Y-97987400D01*
X96692800Y-97987400D01*
X96540400Y-98139800D01*
X86672300Y-98139800D01*
X86672300Y-96328743D01*
X96540400Y-96328743D01*
X96540400Y-97530200D01*
X96692800Y-97682600D01*
X98272600Y-97682600D01*
X98272600Y-95992800D01*
X98577400Y-95992800D01*
X98577400Y-97682600D01*
X100157200Y-97682600D01*
X100309600Y-97530200D01*
X100309600Y-96443800D01*
X103530400Y-96443800D01*
X103530400Y-96895257D01*
X103623206Y-97119311D01*
X103794689Y-97290794D01*
X104018743Y-97383600D01*
X105105200Y-97383600D01*
X105257600Y-97231200D01*
X105257600Y-96291400D01*
X103682800Y-96291400D01*
X103530400Y-96443800D01*
X100309600Y-96443800D01*
X100309600Y-96328743D01*
X100216794Y-96104689D01*
X100045311Y-95933206D01*
X99821257Y-95840400D01*
X98729800Y-95840400D01*
X98577400Y-95992800D01*
X98272600Y-95992800D01*
X98120200Y-95840400D01*
X97028743Y-95840400D01*
X96804689Y-95933206D01*
X96633206Y-96104689D01*
X96540400Y-96328743D01*
X86672300Y-96328743D01*
X86672300Y-95382743D01*
X103530400Y-95382743D01*
X103530400Y-95834200D01*
X103682800Y-95986600D01*
X105257600Y-95986600D01*
X105257600Y-95046800D01*
X105562400Y-95046800D01*
X105562400Y-95986600D01*
X107137200Y-95986600D01*
X107289600Y-95834200D01*
X107289600Y-95382743D01*
X107196794Y-95158689D01*
X107025311Y-94987206D01*
X106801257Y-94894400D01*
X105714800Y-94894400D01*
X105562400Y-95046800D01*
X105257600Y-95046800D01*
X105105200Y-94894400D01*
X104018743Y-94894400D01*
X103794689Y-94987206D01*
X103623206Y-95158689D01*
X103530400Y-95382743D01*
X86672300Y-95382743D01*
X86672300Y-91984800D01*
X87060400Y-91984800D01*
X87060400Y-92521257D01*
X87153206Y-92745311D01*
X87324689Y-92916794D01*
X87548743Y-93009600D01*
X88165200Y-93009600D01*
X88317600Y-92857200D01*
X88317600Y-91832400D01*
X88622400Y-91832400D01*
X88622400Y-92857200D01*
X88774800Y-93009600D01*
X89391257Y-93009600D01*
X89535000Y-92950060D01*
X89678743Y-93009600D01*
X90295200Y-93009600D01*
X90447600Y-92857200D01*
X90447600Y-91832400D01*
X90752400Y-91832400D01*
X90752400Y-92857200D01*
X90904800Y-93009600D01*
X91521257Y-93009600D01*
X91745311Y-92916794D01*
X91916794Y-92745311D01*
X92009600Y-92521257D01*
X92009600Y-91984800D01*
X91857200Y-91832400D01*
X90752400Y-91832400D01*
X90447600Y-91832400D01*
X88622400Y-91832400D01*
X88317600Y-91832400D01*
X87212800Y-91832400D01*
X87060400Y-91984800D01*
X86672300Y-91984800D01*
X86672300Y-82954230D01*
X88773000Y-85054930D01*
X88773000Y-85089229D01*
X87635000Y-85089229D01*
X87516073Y-85112885D01*
X87415252Y-85180252D01*
X87347885Y-85281073D01*
X87324229Y-85400000D01*
X87324229Y-90360000D01*
X87339555Y-90437048D01*
X87324689Y-90443206D01*
X87153206Y-90614689D01*
X87060400Y-90838743D01*
X87060400Y-91375200D01*
X87212800Y-91527600D01*
X88317600Y-91527600D01*
X88317600Y-91507600D01*
X88622400Y-91507600D01*
X88622400Y-91527600D01*
X90447600Y-91527600D01*
X90447600Y-91507600D01*
X90752400Y-91507600D01*
X90752400Y-91527600D01*
X91857200Y-91527600D01*
X92009600Y-91375200D01*
X92009600Y-90838743D01*
X91916794Y-90614689D01*
X91745311Y-90443206D01*
X91730445Y-90437048D01*
X91745771Y-90360000D01*
X91745771Y-85400000D01*
X91722115Y-85281073D01*
X91654748Y-85180252D01*
X91553927Y-85112885D01*
X91435000Y-85089229D01*
X90297000Y-85089229D01*
X90297000Y-84739300D01*
X90238996Y-84447695D01*
X90073815Y-84200485D01*
X87800300Y-81926970D01*
X87800300Y-77410367D01*
X88353648Y-77964682D01*
X89118888Y-78282437D01*
X89947477Y-78283160D01*
X90713270Y-77966741D01*
X91299682Y-77381352D01*
X91617437Y-76616112D01*
X91618160Y-75787523D01*
X91301741Y-75021730D01*
X90716352Y-74435318D01*
X89951112Y-74117563D01*
X89122523Y-74116840D01*
X88356730Y-74433259D01*
X87800300Y-74988718D01*
X87800300Y-74593030D01*
X88803816Y-73589515D01*
X88902834Y-73441323D01*
X88968996Y-73342305D01*
X89027000Y-73050700D01*
X89027000Y-72752566D01*
X89192100Y-72752566D01*
X89330848Y-72724967D01*
X89448473Y-72646373D01*
X89527067Y-72528748D01*
X89554666Y-72390000D01*
X89554666Y-69900400D01*
X89917052Y-69900400D01*
X89666873Y-70274820D01*
X89573100Y-70746248D01*
X89573100Y-71493752D01*
X89666873Y-71965180D01*
X89890600Y-72300011D01*
X89890600Y-73126600D01*
X89960205Y-73476526D01*
X89986180Y-73515400D01*
X90158422Y-73773178D01*
X94248100Y-77862857D01*
X94248100Y-90144100D01*
X94317705Y-90494026D01*
X94398330Y-90614689D01*
X94515922Y-90790678D01*
X95766822Y-92041579D01*
X96063475Y-92239796D01*
X96413400Y-92309400D01*
X96839229Y-92309400D01*
X96839229Y-92780000D01*
X96862885Y-92898927D01*
X96930252Y-92999748D01*
X97031073Y-93067115D01*
X97150000Y-93090771D01*
X99700000Y-93090771D01*
X99818927Y-93067115D01*
X99919748Y-92999748D01*
X99987115Y-92898927D01*
X100010771Y-92780000D01*
X100010771Y-92309400D01*
X100436600Y-92309400D01*
X100786526Y-92239795D01*
X101083178Y-92041578D01*
X101684229Y-91440528D01*
X101684229Y-91740000D01*
X101707885Y-91858927D01*
X101775252Y-91959748D01*
X101876073Y-92027115D01*
X101995000Y-92050771D01*
X103745000Y-92050771D01*
X103863927Y-92027115D01*
X103964748Y-91959748D01*
X104032115Y-91858927D01*
X104055771Y-91740000D01*
X104055771Y-91329400D01*
X104102844Y-91329400D01*
X104495600Y-91722157D01*
X104495600Y-92145229D01*
X104140000Y-92145229D01*
X104021073Y-92168885D01*
X103920252Y-92236252D01*
X103852885Y-92337073D01*
X103829229Y-92456000D01*
X103829229Y-92859673D01*
X103669243Y-92620237D01*
X103302547Y-92375219D01*
X102870000Y-92289180D01*
X102437453Y-92375219D01*
X102070757Y-92620237D01*
X101825739Y-92986933D01*
X101739700Y-93419480D01*
X101739700Y-93981720D01*
X101825739Y-94414267D01*
X102070757Y-94780963D01*
X102437453Y-95025981D01*
X102870000Y-95112020D01*
X103302547Y-95025981D01*
X103669243Y-94780963D01*
X103914261Y-94414267D01*
X103997225Y-93997180D01*
X104021073Y-94013115D01*
X104140000Y-94036771D01*
X106680000Y-94036771D01*
X106798927Y-94013115D01*
X106810473Y-94005400D01*
X106824410Y-94005400D01*
X106905739Y-94414267D01*
X107150757Y-94780963D01*
X107517453Y-95025981D01*
X107950000Y-95112020D01*
X108382547Y-95025981D01*
X108749243Y-94780963D01*
X108994261Y-94414267D01*
X109080300Y-93981720D01*
X109080300Y-93419480D01*
X109009999Y-93066054D01*
X109212291Y-93066230D01*
X109434229Y-92974527D01*
X109434229Y-93725000D01*
X109457885Y-93843927D01*
X109525252Y-93944748D01*
X109578010Y-93980000D01*
X109525252Y-94015252D01*
X109457885Y-94116073D01*
X109434229Y-94235000D01*
X109434229Y-94973899D01*
X109399689Y-94988206D01*
X109228206Y-95159689D01*
X109135400Y-95383743D01*
X109135400Y-95580200D01*
X109287800Y-95732600D01*
X110442600Y-95732600D01*
X110442600Y-95712600D01*
X110747400Y-95712600D01*
X110747400Y-95732600D01*
X111902200Y-95732600D01*
X112054600Y-95580200D01*
X112054600Y-95383743D01*
X111961794Y-95159689D01*
X111900234Y-95098129D01*
X111969603Y-95084331D01*
X112134410Y-94974210D01*
X113111810Y-93996810D01*
X113221931Y-93832004D01*
X113243215Y-93725000D01*
X113260600Y-93637600D01*
X113260600Y-91257800D01*
X113221931Y-91063397D01*
X113221931Y-91063396D01*
X113111810Y-90898589D01*
X109751610Y-87538390D01*
X109586803Y-87428269D01*
X109392400Y-87389600D01*
X109187566Y-87389600D01*
X109187566Y-85444129D01*
X111912400Y-85444129D01*
X111912400Y-86005871D01*
X111997472Y-86433558D01*
X112239737Y-86796134D01*
X112602313Y-87038399D01*
X113030000Y-87123471D01*
X113457687Y-87038399D01*
X113820263Y-86796134D01*
X114062528Y-86433558D01*
X114147600Y-86005871D01*
X114147600Y-85444129D01*
X114062528Y-85016442D01*
X113820263Y-84653866D01*
X113457687Y-84411601D01*
X113030000Y-84326529D01*
X112602313Y-84411601D01*
X112239737Y-84653866D01*
X111997472Y-85016442D01*
X111912400Y-85444129D01*
X109187566Y-85444129D01*
X109187566Y-84790000D01*
X109159967Y-84651252D01*
X109081373Y-84533627D01*
X108972706Y-84461019D01*
X109327313Y-84107030D01*
X109575317Y-83509770D01*
X109575881Y-82863067D01*
X109328920Y-82265375D01*
X108972971Y-81908804D01*
X109081373Y-81836373D01*
X109159967Y-81718748D01*
X109187566Y-81580000D01*
X109187566Y-81220200D01*
X109289101Y-81220200D01*
X109396400Y-81327499D01*
X109709533Y-81536729D01*
X109770815Y-81548918D01*
X110078900Y-81610200D01*
X112168954Y-81610200D01*
X112239737Y-81716134D01*
X112602313Y-81958399D01*
X113030000Y-82043471D01*
X113457687Y-81958399D01*
X113820263Y-81716134D01*
X114062528Y-81353558D01*
X114147600Y-80925871D01*
X114147600Y-80364129D01*
X114062528Y-79936442D01*
X113820263Y-79573866D01*
X113457687Y-79331601D01*
X113030000Y-79246529D01*
X112602313Y-79331601D01*
X112239737Y-79573866D01*
X112168954Y-79679800D01*
X110478698Y-79679800D01*
X110371399Y-79572501D01*
X110058266Y-79363271D01*
X109688900Y-79289800D01*
X109187566Y-79289800D01*
X109187566Y-78930000D01*
X109159967Y-78791252D01*
X109081373Y-78673627D01*
X108963748Y-78595033D01*
X108825000Y-78567434D01*
X107075000Y-78567434D01*
X106936252Y-78595033D01*
X106818627Y-78673627D01*
X106740033Y-78791252D01*
X106712434Y-78930000D01*
X106712434Y-81580000D01*
X106740033Y-81718748D01*
X106818627Y-81836373D01*
X106927294Y-81908981D01*
X106572687Y-82262970D01*
X106324683Y-82860230D01*
X106324119Y-83506933D01*
X106571080Y-84104625D01*
X106927029Y-84461196D01*
X106818627Y-84533627D01*
X106740033Y-84651252D01*
X106712434Y-84790000D01*
X106712434Y-87389600D01*
X104107566Y-87389600D01*
X104107566Y-84790000D01*
X104079967Y-84651252D01*
X104001373Y-84533627D01*
X103892706Y-84461019D01*
X104247313Y-84107030D01*
X104495317Y-83509770D01*
X104495881Y-82863067D01*
X104248920Y-82265375D01*
X103892971Y-81908804D01*
X104001373Y-81836373D01*
X104079967Y-81718748D01*
X104107566Y-81580000D01*
X104107566Y-78930000D01*
X104079967Y-78791252D01*
X104001373Y-78673627D01*
X103883748Y-78595033D01*
X103745000Y-78567434D01*
X101995000Y-78567434D01*
X101856252Y-78595033D01*
X101738627Y-78673627D01*
X101660033Y-78791252D01*
X101632434Y-78930000D01*
X101632434Y-79679800D01*
X98651046Y-79679800D01*
X98580263Y-79573866D01*
X98217687Y-79331601D01*
X97790000Y-79246529D01*
X97362313Y-79331601D01*
X97078400Y-79521305D01*
X97078400Y-76644300D01*
X97039731Y-76449897D01*
X96929610Y-76285090D01*
X96904320Y-76259800D01*
X101385400Y-76259800D01*
X101385400Y-77401257D01*
X101478206Y-77625311D01*
X101649689Y-77796794D01*
X101873743Y-77889600D01*
X102565200Y-77889600D01*
X102717600Y-77737200D01*
X102717600Y-76107400D01*
X103022400Y-76107400D01*
X103022400Y-77737200D01*
X103174800Y-77889600D01*
X103866257Y-77889600D01*
X104090311Y-77796794D01*
X104261794Y-77625311D01*
X104354600Y-77401257D01*
X104354600Y-76259800D01*
X106465400Y-76259800D01*
X106465400Y-77401257D01*
X106558206Y-77625311D01*
X106729689Y-77796794D01*
X106953743Y-77889600D01*
X107645200Y-77889600D01*
X107797600Y-77737200D01*
X107797600Y-76107400D01*
X108102400Y-76107400D01*
X108102400Y-77737200D01*
X108254800Y-77889600D01*
X108946257Y-77889600D01*
X109170311Y-77796794D01*
X109341794Y-77625311D01*
X109434600Y-77401257D01*
X109434600Y-76259800D01*
X125515400Y-76259800D01*
X125515400Y-77401257D01*
X125608206Y-77625311D01*
X125779689Y-77796794D01*
X126003743Y-77889600D01*
X126695200Y-77889600D01*
X126847600Y-77737200D01*
X126847600Y-76107400D01*
X127152400Y-76107400D01*
X127152400Y-77737200D01*
X127304800Y-77889600D01*
X127996257Y-77889600D01*
X128220311Y-77796794D01*
X128391794Y-77625311D01*
X128484600Y-77401257D01*
X128484600Y-76259800D01*
X130595400Y-76259800D01*
X130595400Y-77401257D01*
X130688206Y-77625311D01*
X130859689Y-77796794D01*
X131083743Y-77889600D01*
X131775200Y-77889600D01*
X131927600Y-77737200D01*
X131927600Y-76107400D01*
X132232400Y-76107400D01*
X132232400Y-77737200D01*
X132384800Y-77889600D01*
X133076257Y-77889600D01*
X133300311Y-77796794D01*
X133471794Y-77625311D01*
X133564600Y-77401257D01*
X133564600Y-76259800D01*
X133412200Y-76107400D01*
X132232400Y-76107400D01*
X131927600Y-76107400D01*
X130747800Y-76107400D01*
X130595400Y-76259800D01*
X128484600Y-76259800D01*
X128332200Y-76107400D01*
X127152400Y-76107400D01*
X126847600Y-76107400D01*
X125667800Y-76107400D01*
X125515400Y-76259800D01*
X109434600Y-76259800D01*
X109282200Y-76107400D01*
X108102400Y-76107400D01*
X107797600Y-76107400D01*
X106617800Y-76107400D01*
X106465400Y-76259800D01*
X104354600Y-76259800D01*
X104202200Y-76107400D01*
X103022400Y-76107400D01*
X102717600Y-76107400D01*
X101537800Y-76107400D01*
X101385400Y-76259800D01*
X96904320Y-76259800D01*
X95153263Y-74508743D01*
X101385400Y-74508743D01*
X101385400Y-75650200D01*
X101537800Y-75802600D01*
X102717600Y-75802600D01*
X102717600Y-74172800D01*
X103022400Y-74172800D01*
X103022400Y-75802600D01*
X104202200Y-75802600D01*
X104354600Y-75650200D01*
X104354600Y-74508743D01*
X106465400Y-74508743D01*
X106465400Y-75650200D01*
X106617800Y-75802600D01*
X107797600Y-75802600D01*
X107797600Y-74172800D01*
X108102400Y-74172800D01*
X108102400Y-75802600D01*
X109282200Y-75802600D01*
X109434600Y-75650200D01*
X109434600Y-74508743D01*
X125515400Y-74508743D01*
X125515400Y-75650200D01*
X125667800Y-75802600D01*
X126847600Y-75802600D01*
X126847600Y-74172800D01*
X127152400Y-74172800D01*
X127152400Y-75802600D01*
X128332200Y-75802600D01*
X128484600Y-75650200D01*
X128484600Y-74508743D01*
X130595400Y-74508743D01*
X130595400Y-75650200D01*
X130747800Y-75802600D01*
X131927600Y-75802600D01*
X131927600Y-74172800D01*
X132232400Y-74172800D01*
X132232400Y-75802600D01*
X133412200Y-75802600D01*
X133564600Y-75650200D01*
X133564600Y-74508743D01*
X133471794Y-74284689D01*
X133300311Y-74113206D01*
X133076257Y-74020400D01*
X132384800Y-74020400D01*
X132232400Y-74172800D01*
X131927600Y-74172800D01*
X131775200Y-74020400D01*
X131083743Y-74020400D01*
X130859689Y-74113206D01*
X130688206Y-74284689D01*
X130595400Y-74508743D01*
X128484600Y-74508743D01*
X128391794Y-74284689D01*
X128220311Y-74113206D01*
X127996257Y-74020400D01*
X127304800Y-74020400D01*
X127152400Y-74172800D01*
X126847600Y-74172800D01*
X126695200Y-74020400D01*
X126003743Y-74020400D01*
X125779689Y-74113206D01*
X125608206Y-74284689D01*
X125515400Y-74508743D01*
X109434600Y-74508743D01*
X109341794Y-74284689D01*
X109170311Y-74113206D01*
X108946257Y-74020400D01*
X108254800Y-74020400D01*
X108102400Y-74172800D01*
X107797600Y-74172800D01*
X107645200Y-74020400D01*
X106953743Y-74020400D01*
X106729689Y-74113206D01*
X106558206Y-74284689D01*
X106465400Y-74508743D01*
X104354600Y-74508743D01*
X104261794Y-74284689D01*
X104090311Y-74113206D01*
X103866257Y-74020400D01*
X103174800Y-74020400D01*
X103022400Y-74172800D01*
X102717600Y-74172800D01*
X102565200Y-74020400D01*
X101873743Y-74020400D01*
X101649689Y-74113206D01*
X101478206Y-74284689D01*
X101385400Y-74508743D01*
X95153263Y-74508743D01*
X93365996Y-72721476D01*
X93816428Y-72631879D01*
X94216085Y-72364837D01*
X94483127Y-71965180D01*
X94576900Y-71493752D01*
X94576900Y-70746248D01*
X94653100Y-70746248D01*
X94653100Y-71493752D01*
X94746873Y-71965180D01*
X95013915Y-72364837D01*
X95413572Y-72631879D01*
X95885000Y-72725652D01*
X96356428Y-72631879D01*
X96756085Y-72364837D01*
X97023127Y-71965180D01*
X97116900Y-71493752D01*
X97116900Y-70746248D01*
X97193100Y-70746248D01*
X97193100Y-71493752D01*
X97286873Y-71965180D01*
X97553915Y-72364837D01*
X97953572Y-72631879D01*
X98425000Y-72725652D01*
X98896428Y-72631879D01*
X99296085Y-72364837D01*
X99563127Y-71965180D01*
X99656900Y-71493752D01*
X99656900Y-70746248D01*
X99733100Y-70746248D01*
X99733100Y-71493752D01*
X99826873Y-71965180D01*
X100093915Y-72364837D01*
X100493572Y-72631879D01*
X100965000Y-72725652D01*
X101436428Y-72631879D01*
X101836085Y-72364837D01*
X102103127Y-71965180D01*
X102196900Y-71493752D01*
X102196900Y-70746248D01*
X102273100Y-70746248D01*
X102273100Y-71493752D01*
X102366873Y-71965180D01*
X102633915Y-72364837D01*
X103033572Y-72631879D01*
X103505000Y-72725652D01*
X103976428Y-72631879D01*
X104376085Y-72364837D01*
X104643127Y-71965180D01*
X104736900Y-71493752D01*
X104736900Y-70746248D01*
X104813100Y-70746248D01*
X104813100Y-71493752D01*
X104906873Y-71965180D01*
X105173915Y-72364837D01*
X105573572Y-72631879D01*
X106045000Y-72725652D01*
X106516428Y-72631879D01*
X106916085Y-72364837D01*
X107183127Y-71965180D01*
X107276900Y-71493752D01*
X107276900Y-70746248D01*
X107353100Y-70746248D01*
X107353100Y-71493752D01*
X107446873Y-71965180D01*
X107713915Y-72364837D01*
X108113572Y-72631879D01*
X108585000Y-72725652D01*
X109056428Y-72631879D01*
X109456085Y-72364837D01*
X109723127Y-71965180D01*
X109816900Y-71493752D01*
X109816900Y-70746248D01*
X109893100Y-70746248D01*
X109893100Y-71493752D01*
X109986873Y-71965180D01*
X110253915Y-72364837D01*
X110653572Y-72631879D01*
X111125000Y-72725652D01*
X111596428Y-72631879D01*
X111996085Y-72364837D01*
X112263127Y-71965180D01*
X112356900Y-71493752D01*
X112356900Y-70746248D01*
X112433100Y-70746248D01*
X112433100Y-71493752D01*
X112526873Y-71965180D01*
X112793915Y-72364837D01*
X113193572Y-72631879D01*
X113665000Y-72725652D01*
X114136428Y-72631879D01*
X114536085Y-72364837D01*
X114803127Y-71965180D01*
X114896900Y-71493752D01*
X114896900Y-70746248D01*
X114973100Y-70746248D01*
X114973100Y-71493752D01*
X115066873Y-71965180D01*
X115333915Y-72364837D01*
X115733572Y-72631879D01*
X116205000Y-72725652D01*
X116676428Y-72631879D01*
X117076085Y-72364837D01*
X117343127Y-71965180D01*
X117436900Y-71493752D01*
X117436900Y-70746248D01*
X117513100Y-70746248D01*
X117513100Y-71493752D01*
X117606873Y-71965180D01*
X117873915Y-72364837D01*
X118273572Y-72631879D01*
X118745000Y-72725652D01*
X119216428Y-72631879D01*
X119616085Y-72364837D01*
X119883127Y-71965180D01*
X119976900Y-71493752D01*
X119976900Y-70746248D01*
X120053100Y-70746248D01*
X120053100Y-71493752D01*
X120146873Y-71965180D01*
X120413915Y-72364837D01*
X120813572Y-72631879D01*
X121285000Y-72725652D01*
X121756428Y-72631879D01*
X122156085Y-72364837D01*
X122423127Y-71965180D01*
X122516900Y-71493752D01*
X122516900Y-70746248D01*
X122593100Y-70746248D01*
X122593100Y-71493752D01*
X122686873Y-71965180D01*
X122953915Y-72364837D01*
X123353572Y-72631879D01*
X123825000Y-72725652D01*
X124296428Y-72631879D01*
X124696085Y-72364837D01*
X124963127Y-71965180D01*
X125056900Y-71493752D01*
X125056900Y-70746248D01*
X125133100Y-70746248D01*
X125133100Y-71493752D01*
X125226873Y-71965180D01*
X125493915Y-72364837D01*
X125893572Y-72631879D01*
X126365000Y-72725652D01*
X126836428Y-72631879D01*
X127236085Y-72364837D01*
X127503127Y-71965180D01*
X127589197Y-71532477D01*
X128091840Y-71532477D01*
X128408259Y-72298270D01*
X128993648Y-72884682D01*
X129758888Y-73202437D01*
X130587477Y-73203160D01*
X131353270Y-72886741D01*
X131939682Y-72301352D01*
X132257437Y-71536112D01*
X132258160Y-70707523D01*
X131941741Y-69941730D01*
X131356352Y-69355318D01*
X130591112Y-69037563D01*
X129762523Y-69036840D01*
X128996730Y-69353259D01*
X128410318Y-69938648D01*
X128092563Y-70703888D01*
X128091840Y-71532477D01*
X127589197Y-71532477D01*
X127596900Y-71493752D01*
X127596900Y-70746248D01*
X127503127Y-70274820D01*
X127236085Y-69875163D01*
X126836428Y-69608121D01*
X126365000Y-69514348D01*
X125893572Y-69608121D01*
X125493915Y-69875163D01*
X125226873Y-70274820D01*
X125133100Y-70746248D01*
X125056900Y-70746248D01*
X124963127Y-70274820D01*
X124696085Y-69875163D01*
X124296428Y-69608121D01*
X123825000Y-69514348D01*
X123353572Y-69608121D01*
X122953915Y-69875163D01*
X122686873Y-70274820D01*
X122593100Y-70746248D01*
X122516900Y-70746248D01*
X122423127Y-70274820D01*
X122156085Y-69875163D01*
X121756428Y-69608121D01*
X121285000Y-69514348D01*
X120813572Y-69608121D01*
X120413915Y-69875163D01*
X120146873Y-70274820D01*
X120053100Y-70746248D01*
X119976900Y-70746248D01*
X119883127Y-70274820D01*
X119616085Y-69875163D01*
X119216428Y-69608121D01*
X118745000Y-69514348D01*
X118273572Y-69608121D01*
X117873915Y-69875163D01*
X117606873Y-70274820D01*
X117513100Y-70746248D01*
X117436900Y-70746248D01*
X117343127Y-70274820D01*
X117076085Y-69875163D01*
X116676428Y-69608121D01*
X116205000Y-69514348D01*
X115733572Y-69608121D01*
X115333915Y-69875163D01*
X115066873Y-70274820D01*
X114973100Y-70746248D01*
X114896900Y-70746248D01*
X114803127Y-70274820D01*
X114536085Y-69875163D01*
X114136428Y-69608121D01*
X113665000Y-69514348D01*
X113193572Y-69608121D01*
X112793915Y-69875163D01*
X112526873Y-70274820D01*
X112433100Y-70746248D01*
X112356900Y-70746248D01*
X112263127Y-70274820D01*
X111996085Y-69875163D01*
X111596428Y-69608121D01*
X111125000Y-69514348D01*
X110653572Y-69608121D01*
X110253915Y-69875163D01*
X109986873Y-70274820D01*
X109893100Y-70746248D01*
X109816900Y-70746248D01*
X109723127Y-70274820D01*
X109456085Y-69875163D01*
X109056428Y-69608121D01*
X108585000Y-69514348D01*
X108113572Y-69608121D01*
X107713915Y-69875163D01*
X107446873Y-70274820D01*
X107353100Y-70746248D01*
X107276900Y-70746248D01*
X107183127Y-70274820D01*
X106916085Y-69875163D01*
X106516428Y-69608121D01*
X106045000Y-69514348D01*
X105573572Y-69608121D01*
X105173915Y-69875163D01*
X104906873Y-70274820D01*
X104813100Y-70746248D01*
X104736900Y-70746248D01*
X104643127Y-70274820D01*
X104376085Y-69875163D01*
X103976428Y-69608121D01*
X103505000Y-69514348D01*
X103033572Y-69608121D01*
X102633915Y-69875163D01*
X102366873Y-70274820D01*
X102273100Y-70746248D01*
X102196900Y-70746248D01*
X102103127Y-70274820D01*
X101836085Y-69875163D01*
X101436428Y-69608121D01*
X100965000Y-69514348D01*
X100493572Y-69608121D01*
X100093915Y-69875163D01*
X99826873Y-70274820D01*
X99733100Y-70746248D01*
X99656900Y-70746248D01*
X99563127Y-70274820D01*
X99296085Y-69875163D01*
X98896428Y-69608121D01*
X98425000Y-69514348D01*
X97953572Y-69608121D01*
X97553915Y-69875163D01*
X97286873Y-70274820D01*
X97193100Y-70746248D01*
X97116900Y-70746248D01*
X97023127Y-70274820D01*
X96756085Y-69875163D01*
X96356428Y-69608121D01*
X95885000Y-69514348D01*
X95413572Y-69608121D01*
X95013915Y-69875163D01*
X94746873Y-70274820D01*
X94653100Y-70746248D01*
X94576900Y-70746248D01*
X94483127Y-70274820D01*
X94216085Y-69875163D01*
X93816428Y-69608121D01*
X93345000Y-69514348D01*
X92873572Y-69608121D01*
X92473915Y-69875163D01*
X92447573Y-69914587D01*
X92434211Y-69894590D01*
X91572810Y-69033190D01*
X91521791Y-68999100D01*
X155155900Y-68999100D01*
X155155900Y-108800900D01*
M02*
